<ttFont>
    <TTGlyph name="A" xMin="10" yMin="0" xMax="480" yMax="700">
      <contour>
        <pt x="346" y="0" on="1"/>
        <pt x="325" y="111" on="1"/>
        <pt x="167" y="111" on="1"/>
        <pt x="146" y="0" on="1"/>
        <pt x="10" y="0" on="1"/>
        <pt x="145" y="700" on="1"/>
        <pt x="352" y="700" on="1"/>
        <pt x="480" y="0" on="1"/>
      </contour>
      <contour>
        <pt x="244" y="570" on="1"/>
        <pt x="205" y="337" on="1"/>
        <pt x="183" y="218" on="1"/>
        <pt x="308" y="218" on="1"/>
        <pt x="285" y="337" on="1"/>
        <pt x="246" y="570" on="1"/>
      </contour>
    </TTGlyph>
    <TTGlyph name="AE" xMin="5" yMin="0" xMax="646" yMax="700">
      <contour>
        <pt x="5" y="0" on="1"/>
        <pt x="186" y="700" on="1"/>
        <pt x="642" y="700" on="1"/>
        <pt x="642" y="580" on="1"/>
        <pt x="420" y="580" on="1"/>
        <pt x="420" y="413" on="1"/>
        <pt x="618" y="413" on="1"/>
        <pt x="618" y="297" on="1"/>
        <pt x="420" y="297" on="1"/>
        <pt x="420" y="116" on="1"/>
        <pt x="646" y="116" on="1"/>
        <pt x="646" y="0" on="1"/>
        <pt x="283" y="0" on="1"/>
        <pt x="283" y="170" on="1"/>
        <pt x="181" y="170" on="1"/>
        <pt x="141" y="0" on="1"/>
      </contour>
      <contour>
        <pt x="277" y="580" on="1"/>
        <pt x="206" y="278" on="1"/>
        <pt x="283" y="278" on="1"/>
        <pt x="283" y="580" on="1"/>
      </contour>
    </TTGlyph>
    <TTGlyph name="AEacute" xMin="5" yMin="0" xMax="646" yMax="916">
      <component glyphName="AE" x="0" y="0" flags="0x1004"/>
      <component glyphName="acute" x="182" y="189" flags="0x1004"/>
    </TTGlyph>
    <TTGlyph name="Aacute" xMin="10" yMin="0" xMax="480" yMax="899">
      <contour>
        <pt x="346" y="0" on="1"/>
        <pt x="325" y="111" on="1"/>
        <pt x="167" y="111" on="1"/>
        <pt x="146" y="0" on="1"/>
        <pt x="10" y="0" on="1"/>
        <pt x="145" y="700" on="1"/>
        <pt x="352" y="700" on="1"/>
        <pt x="480" y="0" on="1"/>
      </contour>
      <contour>
        <pt x="244" y="570" on="1"/>
        <pt x="205" y="337" on="1"/>
        <pt x="183" y="218" on="1"/>
        <pt x="308" y="218" on="1"/>
        <pt x="285" y="337" on="1"/>
        <pt x="246" y="570" on="1"/>
      </contour>
      <contour>
        <pt x="159" y="817" on="1"/>
        <pt x="342" y="899" on="1"/>
        <pt x="380" y="788" on="1"/>
        <pt x="191" y="730" on="1"/>
      </contour>
    </TTGlyph>
    <TTGlyph name="Abreve" xMin="10" yMin="0" xMax="480" yMax="879">
      <contour>
        <pt x="346" y="0" on="1"/>
        <pt x="325" y="111" on="1"/>
        <pt x="167" y="111" on="1"/>
        <pt x="146" y="0" on="1"/>
        <pt x="10" y="0" on="1"/>
        <pt x="145" y="700" on="1"/>
        <pt x="352" y="700" on="1"/>
        <pt x="480" y="0" on="1"/>
      </contour>
      <contour>
        <pt x="244" y="570" on="1"/>
        <pt x="205" y="337" on="1"/>
        <pt x="183" y="218" on="1"/>
        <pt x="308" y="218" on="1"/>
        <pt x="285" y="337" on="1"/>
        <pt x="246" y="570" on="1"/>
      </contour>
      <contour>
        <pt x="98" y="879" on="1"/>
        <pt x="190" y="879" on="1"/>
        <pt x="200" y="840" on="0"/>
        <pt x="226" y="827" on="1"/>
        <pt x="265" y="827" on="1"/>
        <pt x="291" y="840" on="0"/>
        <pt x="301" y="879" on="1"/>
        <pt x="394" y="879" on="1"/>
        <pt x="390" y="771" on="0"/>
        <pt x="289" y="730" on="1"/>
        <pt x="203" y="730" on="1"/>
        <pt x="104" y="770" on="0"/>
      </contour>
    </TTGlyph>
    <TTGlyph name="Acircumflex" xMin="10" yMin="0" xMax="480" yMax="878">
      <contour>
        <pt x="346" y="0" on="1"/>
        <pt x="325" y="111" on="1"/>
        <pt x="167" y="111" on="1"/>
        <pt x="146" y="0" on="1"/>
        <pt x="10" y="0" on="1"/>
        <pt x="145" y="700" on="1"/>
        <pt x="352" y="700" on="1"/>
        <pt x="480" y="0" on="1"/>
      </contour>
      <contour>
        <pt x="244" y="570" on="1"/>
        <pt x="205" y="337" on="1"/>
        <pt x="183" y="218" on="1"/>
        <pt x="308" y="218" on="1"/>
        <pt x="285" y="337" on="1"/>
        <pt x="246" y="570" on="1"/>
      </contour>
      <contour>
        <pt x="193" y="878" on="1"/>
        <pt x="299" y="878" on="1"/>
        <pt x="390" y="767" on="1"/>
        <pt x="331" y="728" on="1"/>
        <pt x="245" y="786" on="1"/>
        <pt x="159" y="729" on="1"/>
        <pt x="100" y="769" on="1"/>
      </contour>
    </TTGlyph>
    <TTGlyph name="Adieresis" xMin="10" yMin="0" xMax="480" yMax="865">
      <contour>
        <pt x="346" y="0" on="1"/>
        <pt x="325" y="111" on="1"/>
        <pt x="167" y="111" on="1"/>
        <pt x="146" y="0" on="1"/>
        <pt x="10" y="0" on="1"/>
        <pt x="145" y="700" on="1"/>
        <pt x="352" y="700" on="1"/>
        <pt x="480" y="0" on="1"/>
      </contour>
      <contour>
        <pt x="244" y="570" on="1"/>
        <pt x="205" y="337" on="1"/>
        <pt x="183" y="218" on="1"/>
        <pt x="308" y="218" on="1"/>
        <pt x="285" y="337" on="1"/>
        <pt x="246" y="570" on="1"/>
      </contour>
      <contour>
        <pt x="93" y="730" on="1"/>
        <pt x="93" y="865" on="1"/>
        <pt x="225" y="865" on="1"/>
        <pt x="225" y="730" on="1"/>
      </contour>
      <contour>
        <pt x="266" y="730" on="1"/>
        <pt x="266" y="865" on="1"/>
        <pt x="398" y="865" on="1"/>
        <pt x="398" y="730" on="1"/>
      </contour>
    </TTGlyph>
    <TTGlyph name="Agrave" xMin="10" yMin="0" xMax="480" yMax="899">
      <contour>
        <pt x="346" y="0" on="1"/>
        <pt x="325" y="111" on="1"/>
        <pt x="167" y="111" on="1"/>
        <pt x="146" y="0" on="1"/>
        <pt x="10" y="0" on="1"/>
        <pt x="145" y="700" on="1"/>
        <pt x="352" y="700" on="1"/>
        <pt x="480" y="0" on="1"/>
      </contour>
      <contour>
        <pt x="244" y="570" on="1"/>
        <pt x="205" y="337" on="1"/>
        <pt x="183" y="218" on="1"/>
        <pt x="308" y="218" on="1"/>
        <pt x="285" y="337" on="1"/>
        <pt x="246" y="570" on="1"/>
      </contour>
      <contour>
        <pt x="170" y="899" on="1"/>
        <pt x="353" y="817" on="1"/>
        <pt x="321" y="730" on="1"/>
        <pt x="131" y="788" on="1"/>
      </contour>
    </TTGlyph>
    <TTGlyph name="Amacron" xMin="10" yMin="0" xMax="480" yMax="838">
      <contour>
        <pt x="346" y="0" on="1"/>
        <pt x="325" y="111" on="1"/>
        <pt x="167" y="111" on="1"/>
        <pt x="146" y="0" on="1"/>
        <pt x="10" y="0" on="1"/>
        <pt x="145" y="700" on="1"/>
        <pt x="352" y="700" on="1"/>
        <pt x="480" y="0" on="1"/>
      </contour>
      <contour>
        <pt x="244" y="570" on="1"/>
        <pt x="205" y="337" on="1"/>
        <pt x="183" y="218" on="1"/>
        <pt x="308" y="218" on="1"/>
        <pt x="285" y="337" on="1"/>
        <pt x="246" y="570" on="1"/>
      </contour>
      <contour>
        <pt x="119" y="738" on="1"/>
        <pt x="119" y="838" on="1"/>
        <pt x="371" y="838" on="1"/>
        <pt x="371" y="738" on="1"/>
      </contour>
    </TTGlyph>
    <TTGlyph name="Aogonek" xMin="10" yMin="-227" xMax="480" yMax="700">
      <contour>
        <pt x="346" y="0" on="1"/>
        <pt x="325" y="111" on="1"/>
        <pt x="167" y="111" on="1"/>
        <pt x="146" y="0" on="1"/>
        <pt x="10" y="0" on="1"/>
        <pt x="145" y="700" on="1"/>
        <pt x="352" y="700" on="1"/>
        <pt x="480" y="0" on="1"/>
        <pt x="417" y="-103" on="1"/>
        <pt x="411" y="-113" on="0"/>
        <pt x="411" y="-127" on="0"/>
        <pt x="421" y="-127" on="1"/>
        <pt x="471" y="-127" on="1"/>
        <pt x="471" y="-227" on="1"/>
        <pt x="328" y="-227" on="1"/>
        <pt x="291" y="-204" on="0"/>
        <pt x="291" y="-112" on="0"/>
        <pt x="341" y="-40" on="1"/>
        <pt x="367" y="0" on="1"/>
      </contour>
      <contour>
        <pt x="244" y="570" on="1"/>
        <pt x="205" y="337" on="1"/>
        <pt x="183" y="218" on="1"/>
        <pt x="308" y="218" on="1"/>
        <pt x="285" y="337" on="1"/>
        <pt x="246" y="570" on="1"/>
      </contour>
    </TTGlyph>
    <TTGlyph name="Aring" xMin="10" yMin="0" xMax="480" yMax="892">
      <contour>
        <pt x="202" y="892" on="1"/>
        <pt x="292" y="892" on="1"/>
        <pt x="372" y="853" on="0"/>
        <pt x="372" y="767" on="1"/>
        <pt x="372" y="729" on="0"/>
        <pt x="352" y="698" on="1"/>
        <pt x="480" y="0" on="1"/>
        <pt x="346" y="0" on="1"/>
        <pt x="325" y="111" on="1"/>
        <pt x="167" y="111" on="1"/>
        <pt x="146" y="0" on="1"/>
        <pt x="10" y="0" on="1"/>
        <pt x="144" y="694" on="1"/>
        <pt x="122" y="726" on="0"/>
        <pt x="122" y="767" on="1"/>
        <pt x="122" y="853" on="0"/>
      </contour>
      <contour>
        <pt x="244" y="570" on="1"/>
        <pt x="205" y="337" on="1"/>
        <pt x="183" y="218" on="1"/>
        <pt x="308" y="218" on="1"/>
        <pt x="285" y="337" on="1"/>
        <pt x="246" y="570" on="1"/>
      </contour>
      <contour>
        <pt x="228" y="719" on="1"/>
        <pt x="265" y="719" on="1"/>
        <pt x="286" y="740" on="0"/>
        <pt x="286" y="798" on="0"/>
        <pt x="265" y="817" on="1"/>
        <pt x="228" y="817" on="1"/>
        <pt x="208" y="797" on="0"/>
        <pt x="208" y="739" on="0"/>
      </contour>
    </TTGlyph>
    <TTGlyph name="Aringacute" xMin="10" yMin="0" xMax="480" yMax="1079">
      <contour>
        <pt x="202" y="892" on="1"/>
        <pt x="292" y="892" on="1"/>
        <pt x="372" y="853" on="0"/>
        <pt x="372" y="767" on="1"/>
        <pt x="372" y="729" on="0"/>
        <pt x="352" y="698" on="1"/>
        <pt x="480" y="0" on="1"/>
        <pt x="346" y="0" on="1"/>
        <pt x="325" y="111" on="1"/>
        <pt x="167" y="111" on="1"/>
        <pt x="146" y="0" on="1"/>
        <pt x="10" y="0" on="1"/>
        <pt x="144" y="694" on="1"/>
        <pt x="122" y="726" on="0"/>
        <pt x="122" y="767" on="1"/>
        <pt x="122" y="853" on="0"/>
      </contour>
      <contour>
        <pt x="244" y="570" on="1"/>
        <pt x="205" y="337" on="1"/>
        <pt x="183" y="218" on="1"/>
        <pt x="308" y="218" on="1"/>
        <pt x="285" y="337" on="1"/>
        <pt x="246" y="570" on="1"/>
      </contour>
      <contour>
        <pt x="153" y="997" on="1"/>
        <pt x="336" y="1079" on="1"/>
        <pt x="374" y="968" on="1"/>
        <pt x="185" y="910" on="1"/>
      </contour>
      <contour>
        <pt x="228" y="719" on="1"/>
        <pt x="265" y="719" on="1"/>
        <pt x="286" y="740" on="0"/>
        <pt x="286" y="798" on="0"/>
        <pt x="265" y="817" on="1"/>
        <pt x="228" y="817" on="1"/>
        <pt x="208" y="797" on="0"/>
        <pt x="208" y="739" on="0"/>
      </contour>
    </TTGlyph>
    <TTGlyph name="Atilde" xMin="10" yMin="0" xMax="480" yMax="868">
      <contour>
        <pt x="346" y="0" on="1"/>
        <pt x="325" y="111" on="1"/>
        <pt x="167" y="111" on="1"/>
        <pt x="146" y="0" on="1"/>
        <pt x="10" y="0" on="1"/>
        <pt x="145" y="700" on="1"/>
        <pt x="352" y="700" on="1"/>
        <pt x="480" y="0" on="1"/>
      </contour>
      <contour>
        <pt x="244" y="570" on="1"/>
        <pt x="205" y="337" on="1"/>
        <pt x="183" y="218" on="1"/>
        <pt x="308" y="218" on="1"/>
        <pt x="285" y="337" on="1"/>
        <pt x="246" y="570" on="1"/>
      </contour>
      <contour>
        <pt x="292" y="734" on="1"/>
        <pt x="196" y="759" on="1"/>
        <pt x="175" y="759" on="0"/>
        <pt x="114" y="736" on="1"/>
        <pt x="114" y="841" on="1"/>
        <pt x="178" y="868" on="0"/>
        <pt x="200" y="868" on="1"/>
        <pt x="297" y="841" on="1"/>
        <pt x="317" y="841" on="0"/>
        <pt x="376" y="855" on="1"/>
        <pt x="376" y="748" on="1"/>
        <pt x="315" y="733" on="0"/>
      </contour>
    </TTGlyph>
    <TTGlyph name="B" xMin="48" yMin="0" xMax="476" yMax="700">
      <contour>
        <pt x="48" y="0" on="1"/>
        <pt x="48" y="700" on="1"/>
        <pt x="333" y="700" on="1"/>
        <pt x="382" y="682" on="0"/>
        <pt x="458" y="592" on="0"/>
        <pt x="458" y="528" on="1"/>
        <pt x="458" y="415" on="0"/>
        <pt x="384" y="370" on="1"/>
        <pt x="384" y="366" on="1"/>
        <pt x="476" y="315" on="0"/>
        <pt x="476" y="206" on="1"/>
        <pt x="476" y="81" on="0"/>
        <pt x="349" y="0" on="1"/>
      </contour>
      <contour>
        <pt x="184" y="411" on="1"/>
        <pt x="283" y="411" on="1"/>
        <pt x="327" y="438" on="0"/>
        <pt x="327" y="548" on="0"/>
        <pt x="286" y="580" on="1"/>
        <pt x="184" y="580" on="1"/>
      </contour>
      <contour>
        <pt x="184" y="116" on="1"/>
        <pt x="287" y="116" on="1"/>
        <pt x="305" y="129" on="0"/>
        <pt x="334" y="185" on="0"/>
        <pt x="334" y="241" on="0"/>
        <pt x="310" y="287" on="0"/>
        <pt x="292" y="298" on="1"/>
        <pt x="184" y="298" on="1"/>
      </contour>
    </TTGlyph>
    <TTGlyph name="C" xMin="30" yMin="0" xMax="418" yMax="700">
      <contour>
        <pt x="242" y="116" on="1"/>
        <pt x="418" y="116" on="1"/>
        <pt x="418" y="0" on="1"/>
        <pt x="164" y="0" on="1"/>
        <pt x="98" y="62" on="0"/>
        <pt x="30" y="252" on="0"/>
        <pt x="30" y="453" on="0"/>
        <pt x="106" y="639" on="0"/>
        <pt x="181" y="700" on="1"/>
        <pt x="418" y="700" on="1"/>
        <pt x="418" y="580" on="1"/>
        <pt x="242" y="580" on="1"/>
        <pt x="215" y="549" on="0"/>
        <pt x="176" y="411" on="0"/>
        <pt x="176" y="285" on="0"/>
        <pt x="215" y="147" on="0"/>
      </contour>
    </TTGlyph>
    <TTGlyph name="Cacute" xMin="30" yMin="0" xMax="420" yMax="899">
      <contour>
        <pt x="242" y="116" on="1"/>
        <pt x="418" y="116" on="1"/>
        <pt x="418" y="0" on="1"/>
        <pt x="164" y="0" on="1"/>
        <pt x="98" y="62" on="0"/>
        <pt x="30" y="252" on="0"/>
        <pt x="30" y="453" on="0"/>
        <pt x="106" y="639" on="0"/>
        <pt x="181" y="700" on="1"/>
        <pt x="418" y="700" on="1"/>
        <pt x="418" y="580" on="1"/>
        <pt x="242" y="580" on="1"/>
        <pt x="215" y="549" on="0"/>
        <pt x="176" y="411" on="0"/>
        <pt x="176" y="285" on="0"/>
        <pt x="215" y="147" on="0"/>
      </contour>
      <contour>
        <pt x="199" y="817" on="1"/>
        <pt x="382" y="899" on="1"/>
        <pt x="420" y="788" on="1"/>
        <pt x="231" y="730" on="1"/>
      </contour>
    </TTGlyph>
    <TTGlyph name="Ccaron" xMin="30" yMin="0" xMax="431" yMax="878">
      <contour>
        <pt x="242" y="116" on="1"/>
        <pt x="418" y="116" on="1"/>
        <pt x="418" y="0" on="1"/>
        <pt x="164" y="0" on="1"/>
        <pt x="98" y="62" on="0"/>
        <pt x="30" y="252" on="0"/>
        <pt x="30" y="453" on="0"/>
        <pt x="106" y="639" on="0"/>
        <pt x="181" y="700" on="1"/>
        <pt x="418" y="700" on="1"/>
        <pt x="418" y="580" on="1"/>
        <pt x="242" y="580" on="1"/>
        <pt x="215" y="549" on="0"/>
        <pt x="176" y="411" on="0"/>
        <pt x="176" y="285" on="0"/>
        <pt x="215" y="147" on="0"/>
      </contour>
      <contour>
        <pt x="340" y="728" on="1"/>
        <pt x="234" y="728" on="1"/>
        <pt x="141" y="837" on="1"/>
        <pt x="200" y="877" on="1"/>
        <pt x="286" y="820" on="1"/>
        <pt x="372" y="878" on="1"/>
        <pt x="431" y="839" on="1"/>
      </contour>
    </TTGlyph>
    <TTGlyph name="Ccedilla" xMin="30" yMin="-260" xMax="418" yMax="700">
      <contour>
        <pt x="224" y="-132" on="1"/>
        <pt x="199" y="-132" on="1"/>
        <pt x="199" y="-60" on="1"/>
        <pt x="225" y="0" on="1"/>
        <pt x="164" y="0" on="1"/>
        <pt x="98" y="62" on="0"/>
        <pt x="30" y="252" on="0"/>
        <pt x="30" y="453" on="0"/>
        <pt x="106" y="639" on="0"/>
        <pt x="181" y="700" on="1"/>
        <pt x="418" y="700" on="1"/>
        <pt x="418" y="580" on="1"/>
        <pt x="242" y="580" on="1"/>
        <pt x="215" y="549" on="0"/>
        <pt x="176" y="411" on="0"/>
        <pt x="176" y="285" on="0"/>
        <pt x="215" y="147" on="0"/>
        <pt x="242" y="116" on="1"/>
        <pt x="418" y="116" on="1"/>
        <pt x="418" y="0" on="1"/>
        <pt x="310" y="0" on="1"/>
        <pt x="287" y="-60" on="1"/>
        <pt x="302" y="-73" on="0"/>
        <pt x="309" y="-82" on="1"/>
        <pt x="331" y="-108" on="0"/>
        <pt x="331" y="-184" on="0"/>
        <pt x="295" y="-242" on="0"/>
        <pt x="267" y="-260" on="1"/>
        <pt x="179" y="-260" on="1"/>
        <pt x="179" y="-179" on="1"/>
        <pt x="224" y="-179" on="1"/>
        <pt x="233" y="-173" on="0"/>
        <pt x="234" y="-139" on="0"/>
      </contour>
    </TTGlyph>
    <TTGlyph name="Ccircumflex" xMin="30" yMin="0" xMax="421" yMax="878">
      <contour>
        <pt x="242" y="116" on="1"/>
        <pt x="418" y="116" on="1"/>
        <pt x="418" y="0" on="1"/>
        <pt x="164" y="0" on="1"/>
        <pt x="98" y="62" on="0"/>
        <pt x="30" y="252" on="0"/>
        <pt x="30" y="453" on="0"/>
        <pt x="106" y="639" on="0"/>
        <pt x="181" y="700" on="1"/>
        <pt x="418" y="700" on="1"/>
        <pt x="418" y="580" on="1"/>
        <pt x="242" y="580" on="1"/>
        <pt x="215" y="549" on="0"/>
        <pt x="176" y="411" on="0"/>
        <pt x="176" y="285" on="0"/>
        <pt x="215" y="147" on="0"/>
      </contour>
      <contour>
        <pt x="224" y="878" on="1"/>
        <pt x="330" y="878" on="1"/>
        <pt x="421" y="767" on="1"/>
        <pt x="362" y="728" on="1"/>
        <pt x="276" y="786" on="1"/>
        <pt x="190" y="729" on="1"/>
        <pt x="131" y="769" on="1"/>
      </contour>
    </TTGlyph>
    <TTGlyph name="Cdotaccent" xMin="30" yMin="0" xMax="418" yMax="865">
      <contour>
        <pt x="242" y="116" on="1"/>
        <pt x="418" y="116" on="1"/>
        <pt x="418" y="0" on="1"/>
        <pt x="164" y="0" on="1"/>
        <pt x="98" y="62" on="0"/>
        <pt x="30" y="252" on="0"/>
        <pt x="30" y="453" on="0"/>
        <pt x="106" y="639" on="0"/>
        <pt x="181" y="700" on="1"/>
        <pt x="418" y="700" on="1"/>
        <pt x="418" y="580" on="1"/>
        <pt x="242" y="580" on="1"/>
        <pt x="215" y="549" on="0"/>
        <pt x="176" y="411" on="0"/>
        <pt x="176" y="285" on="0"/>
        <pt x="215" y="147" on="0"/>
      </contour>
      <contour>
        <pt x="233" y="865" on="1"/>
        <pt x="365" y="865" on="1"/>
        <pt x="365" y="730" on="1"/>
        <pt x="233" y="730" on="1"/>
      </contour>
    </TTGlyph>
    <TTGlyph name="D" xMin="48" yMin="0" xMax="480" yMax="700">
      <contour>
        <pt x="184" y="116" on="1"/>
        <pt x="274" y="116" on="1"/>
        <pt x="302" y="151" on="0"/>
        <pt x="335" y="285" on="0"/>
        <pt x="335" y="351" on="1"/>
        <pt x="335" y="508" on="0"/>
        <pt x="276" y="580" on="1"/>
        <pt x="184" y="580" on="1"/>
      </contour>
      <contour>
        <pt x="48" y="0" on="1"/>
        <pt x="48" y="700" on="1"/>
        <pt x="338" y="700" on="1"/>
        <pt x="480" y="574" on="0"/>
        <pt x="480" y="143" on="0"/>
        <pt x="347" y="0" on="1"/>
      </contour>
    </TTGlyph>
    <TTGlyph name="Dcaron" xMin="48" yMin="0" xMax="480" yMax="878">
      <contour>
        <pt x="274" y="116" on="1"/>
        <pt x="184" y="116" on="1"/>
        <pt x="184" y="580" on="1"/>
        <pt x="276" y="580" on="1"/>
        <pt x="335" y="508" on="0"/>
        <pt x="335" y="351" on="1"/>
        <pt x="335" y="285" on="0"/>
        <pt x="302" y="151" on="0"/>
      </contour>
      <contour>
        <pt x="48" y="700" on="1"/>
        <pt x="48" y="0" on="1"/>
        <pt x="347" y="0" on="1"/>
        <pt x="480" y="143" on="0"/>
        <pt x="480" y="574" on="0"/>
        <pt x="338" y="700" on="1"/>
      </contour>
      <contour>
        <pt x="273" y="728" on="1"/>
        <pt x="167" y="728" on="1"/>
        <pt x="74" y="837" on="1"/>
        <pt x="133" y="877" on="1"/>
        <pt x="219" y="820" on="1"/>
        <pt x="305" y="878" on="1"/>
        <pt x="364" y="839" on="1"/>
      </contour>
    </TTGlyph>
    <TTGlyph name="Dcroat" xMin="13" yMin="0" xMax="492" yMax="700">
      <contour>
        <pt x="13" y="299" on="1"/>
        <pt x="13" y="405" on="1"/>
        <pt x="60" y="405" on="1"/>
        <pt x="60" y="700" on="1"/>
        <pt x="350" y="700" on="1"/>
        <pt x="492" y="574" on="0"/>
        <pt x="492" y="143" on="0"/>
        <pt x="359" y="0" on="1"/>
        <pt x="60" y="0" on="1"/>
        <pt x="60" y="299" on="1"/>
      </contour>
      <contour>
        <pt x="196" y="116" on="1"/>
        <pt x="286" y="116" on="1"/>
        <pt x="314" y="151" on="0"/>
        <pt x="347" y="285" on="0"/>
        <pt x="347" y="351" on="1"/>
        <pt x="347" y="508" on="0"/>
        <pt x="288" y="580" on="1"/>
        <pt x="196" y="580" on="1"/>
        <pt x="196" y="405" on="1"/>
        <pt x="283" y="405" on="1"/>
        <pt x="283" y="299" on="1"/>
        <pt x="196" y="299" on="1"/>
      </contour>
    </TTGlyph>
    <TTGlyph name="E" xMin="48" yMin="0" xMax="411" yMax="700">
      <contour>
        <pt x="48" y="0" on="1"/>
        <pt x="48" y="700" on="1"/>
        <pt x="407" y="700" on="1"/>
        <pt x="407" y="580" on="1"/>
        <pt x="185" y="580" on="1"/>
        <pt x="185" y="413" on="1"/>
        <pt x="383" y="413" on="1"/>
        <pt x="383" y="297" on="1"/>
        <pt x="185" y="297" on="1"/>
        <pt x="185" y="116" on="1"/>
        <pt x="411" y="116" on="1"/>
        <pt x="411" y="0" on="1"/>
      </contour>
    </TTGlyph>
    <TTGlyph name="Eacute" xMin="48" yMin="0" xMax="411" yMax="899">
      <contour>
        <pt x="48" y="700" on="1"/>
        <pt x="48" y="0" on="1"/>
        <pt x="411" y="0" on="1"/>
        <pt x="411" y="116" on="1"/>
        <pt x="185" y="116" on="1"/>
        <pt x="185" y="297" on="1"/>
        <pt x="383" y="297" on="1"/>
        <pt x="383" y="413" on="1"/>
        <pt x="185" y="413" on="1"/>
        <pt x="185" y="580" on="1"/>
        <pt x="407" y="580" on="1"/>
        <pt x="407" y="700" on="1"/>
      </contour>
      <contour>
        <pt x="128" y="817" on="1"/>
        <pt x="311" y="899" on="1"/>
        <pt x="349" y="788" on="1"/>
        <pt x="160" y="730" on="1"/>
      </contour>
    </TTGlyph>
    <TTGlyph name="Ebreve" xMin="48" yMin="0" xMax="411" yMax="879">
      <contour>
        <pt x="48" y="0" on="1"/>
        <pt x="48" y="700" on="1"/>
        <pt x="407" y="700" on="1"/>
        <pt x="407" y="580" on="1"/>
        <pt x="185" y="580" on="1"/>
        <pt x="185" y="413" on="1"/>
        <pt x="383" y="413" on="1"/>
        <pt x="383" y="297" on="1"/>
        <pt x="185" y="297" on="1"/>
        <pt x="185" y="116" on="1"/>
        <pt x="411" y="116" on="1"/>
        <pt x="411" y="0" on="1"/>
      </contour>
      <contour>
        <pt x="81" y="879" on="1"/>
        <pt x="173" y="879" on="1"/>
        <pt x="183" y="840" on="0"/>
        <pt x="209" y="827" on="1"/>
        <pt x="248" y="827" on="1"/>
        <pt x="274" y="840" on="0"/>
        <pt x="284" y="879" on="1"/>
        <pt x="377" y="879" on="1"/>
        <pt x="373" y="771" on="0"/>
        <pt x="272" y="730" on="1"/>
        <pt x="186" y="730" on="1"/>
        <pt x="87" y="770" on="0"/>
      </contour>
    </TTGlyph>
    <TTGlyph name="Ecaron" xMin="48" yMin="0" xMax="411" yMax="878">
      <contour>
        <pt x="48" y="700" on="1"/>
        <pt x="48" y="0" on="1"/>
        <pt x="411" y="0" on="1"/>
        <pt x="411" y="116" on="1"/>
        <pt x="185" y="116" on="1"/>
        <pt x="185" y="297" on="1"/>
        <pt x="383" y="297" on="1"/>
        <pt x="383" y="413" on="1"/>
        <pt x="185" y="413" on="1"/>
        <pt x="185" y="580" on="1"/>
        <pt x="407" y="580" on="1"/>
        <pt x="407" y="700" on="1"/>
      </contour>
      <contour>
        <pt x="287" y="728" on="1"/>
        <pt x="181" y="728" on="1"/>
        <pt x="88" y="837" on="1"/>
        <pt x="147" y="877" on="1"/>
        <pt x="233" y="820" on="1"/>
        <pt x="319" y="878" on="1"/>
        <pt x="378" y="839" on="1"/>
      </contour>
    </TTGlyph>
    <TTGlyph name="Ecircumflex" xMin="48" yMin="0" xMax="411" yMax="878">
      <contour>
        <pt x="48" y="700" on="1"/>
        <pt x="48" y="0" on="1"/>
        <pt x="411" y="0" on="1"/>
        <pt x="411" y="116" on="1"/>
        <pt x="185" y="116" on="1"/>
        <pt x="185" y="297" on="1"/>
        <pt x="383" y="297" on="1"/>
        <pt x="383" y="413" on="1"/>
        <pt x="185" y="413" on="1"/>
        <pt x="185" y="580" on="1"/>
        <pt x="407" y="580" on="1"/>
        <pt x="407" y="700" on="1"/>
      </contour>
      <contour>
        <pt x="178" y="878" on="1"/>
        <pt x="284" y="878" on="1"/>
        <pt x="375" y="767" on="1"/>
        <pt x="316" y="728" on="1"/>
        <pt x="230" y="786" on="1"/>
        <pt x="144" y="729" on="1"/>
        <pt x="85" y="769" on="1"/>
      </contour>
    </TTGlyph>
    <TTGlyph name="Edieresis" xMin="48" yMin="0" xMax="411" yMax="865">
      <contour>
        <pt x="48" y="700" on="1"/>
        <pt x="48" y="0" on="1"/>
        <pt x="411" y="0" on="1"/>
        <pt x="411" y="116" on="1"/>
        <pt x="185" y="116" on="1"/>
        <pt x="185" y="297" on="1"/>
        <pt x="383" y="297" on="1"/>
        <pt x="383" y="413" on="1"/>
        <pt x="185" y="413" on="1"/>
        <pt x="185" y="580" on="1"/>
        <pt x="407" y="580" on="1"/>
        <pt x="407" y="700" on="1"/>
      </contour>
      <contour>
        <pt x="75" y="730" on="1"/>
        <pt x="75" y="865" on="1"/>
        <pt x="207" y="865" on="1"/>
        <pt x="207" y="730" on="1"/>
      </contour>
      <contour>
        <pt x="248" y="730" on="1"/>
        <pt x="248" y="865" on="1"/>
        <pt x="380" y="865" on="1"/>
        <pt x="380" y="730" on="1"/>
      </contour>
    </TTGlyph>
    <TTGlyph name="Edotaccent" xMin="48" yMin="0" xMax="411" yMax="865">
      <contour>
        <pt x="48" y="700" on="1"/>
        <pt x="48" y="0" on="1"/>
        <pt x="411" y="0" on="1"/>
        <pt x="411" y="116" on="1"/>
        <pt x="185" y="116" on="1"/>
        <pt x="185" y="297" on="1"/>
        <pt x="383" y="297" on="1"/>
        <pt x="383" y="413" on="1"/>
        <pt x="185" y="413" on="1"/>
        <pt x="185" y="580" on="1"/>
        <pt x="407" y="580" on="1"/>
        <pt x="407" y="700" on="1"/>
      </contour>
      <contour>
        <pt x="166" y="865" on="1"/>
        <pt x="298" y="865" on="1"/>
        <pt x="298" y="730" on="1"/>
        <pt x="166" y="730" on="1"/>
      </contour>
    </TTGlyph>
    <TTGlyph name="Egrave" xMin="48" yMin="0" xMax="411" yMax="899">
      <contour>
        <pt x="48" y="700" on="1"/>
        <pt x="48" y="0" on="1"/>
        <pt x="411" y="0" on="1"/>
        <pt x="411" y="116" on="1"/>
        <pt x="185" y="116" on="1"/>
        <pt x="185" y="297" on="1"/>
        <pt x="383" y="297" on="1"/>
        <pt x="383" y="413" on="1"/>
        <pt x="185" y="413" on="1"/>
        <pt x="185" y="580" on="1"/>
        <pt x="407" y="580" on="1"/>
        <pt x="407" y="700" on="1"/>
      </contour>
      <contour>
        <pt x="159" y="899" on="1"/>
        <pt x="342" y="817" on="1"/>
        <pt x="310" y="730" on="1"/>
        <pt x="120" y="788" on="1"/>
      </contour>
    </TTGlyph>
    <TTGlyph name="Emacron" xMin="48" yMin="0" xMax="411" yMax="838">
      <contour>
        <pt x="48" y="700" on="1"/>
        <pt x="48" y="0" on="1"/>
        <pt x="411" y="0" on="1"/>
        <pt x="411" y="116" on="1"/>
        <pt x="185" y="116" on="1"/>
        <pt x="185" y="297" on="1"/>
        <pt x="383" y="297" on="1"/>
        <pt x="383" y="413" on="1"/>
        <pt x="185" y="413" on="1"/>
        <pt x="185" y="580" on="1"/>
        <pt x="407" y="580" on="1"/>
        <pt x="407" y="700" on="1"/>
      </contour>
      <contour>
        <pt x="104" y="738" on="1"/>
        <pt x="104" y="838" on="1"/>
        <pt x="356" y="838" on="1"/>
        <pt x="356" y="738" on="1"/>
      </contour>
    </TTGlyph>
    <TTGlyph name="Eng" xMin="48" yMin="-150" xMax="453" yMax="700">
      <contour>
        <pt x="298" y="-35" on="1"/>
        <pt x="323" y="-20" on="0"/>
        <pt x="323" y="13" on="1"/>
        <pt x="323" y="77" on="1"/>
        <pt x="453" y="51" on="1"/>
        <pt x="453" y="-23" on="0"/>
        <pt x="412" y="-115" on="0"/>
        <pt x="354" y="-150" on="1"/>
        <pt x="241" y="-150" on="1"/>
        <pt x="241" y="-35" on="1"/>
      </contour>
      <contour>
        <pt x="360" y="0" on="1"/>
        <pt x="173" y="387" on="1"/>
        <pt x="168" y="385" on="1"/>
        <pt x="174" y="267" on="1"/>
        <pt x="174" y="0" on="1"/>
        <pt x="48" y="0" on="1"/>
        <pt x="48" y="700" on="1"/>
        <pt x="149" y="700" on="1"/>
        <pt x="333" y="298" on="1"/>
        <pt x="338" y="300" on="1"/>
        <pt x="327" y="423" on="1"/>
        <pt x="327" y="700" on="1"/>
        <pt x="453" y="700" on="1"/>
        <pt x="453" y="51" on="1"/>
      </contour>
    </TTGlyph>
    <TTGlyph name="Eogonek" xMin="48" yMin="-227" xMax="411" yMax="700">
      <contour>
        <pt x="48" y="0" on="1"/>
        <pt x="48" y="700" on="1"/>
        <pt x="407" y="700" on="1"/>
        <pt x="407" y="580" on="1"/>
        <pt x="185" y="580" on="1"/>
        <pt x="185" y="413" on="1"/>
        <pt x="383" y="413" on="1"/>
        <pt x="383" y="297" on="1"/>
        <pt x="185" y="297" on="1"/>
        <pt x="185" y="116" on="1"/>
        <pt x="411" y="116" on="1"/>
        <pt x="411" y="0" on="1"/>
        <pt x="336" y="-103" on="1"/>
        <pt x="330" y="-113" on="0"/>
        <pt x="330" y="-127" on="0"/>
        <pt x="340" y="-127" on="1"/>
        <pt x="395" y="-127" on="1"/>
        <pt x="395" y="-227" on="1"/>
        <pt x="252" y="-227" on="1"/>
        <pt x="215" y="-204" on="0"/>
        <pt x="215" y="-111" on="0"/>
        <pt x="262" y="-47" on="1"/>
        <pt x="297" y="0" on="1"/>
      </contour>
    </TTGlyph>
    <TTGlyph name="Eth" xMin="13" yMin="0" xMax="492" yMax="700">
      <contour>
        <pt x="13" y="299" on="1"/>
        <pt x="13" y="405" on="1"/>
        <pt x="60" y="405" on="1"/>
        <pt x="60" y="700" on="1"/>
        <pt x="350" y="700" on="1"/>
        <pt x="492" y="574" on="0"/>
        <pt x="492" y="143" on="0"/>
        <pt x="359" y="0" on="1"/>
        <pt x="60" y="0" on="1"/>
        <pt x="60" y="299" on="1"/>
      </contour>
      <contour>
        <pt x="196" y="116" on="1"/>
        <pt x="286" y="116" on="1"/>
        <pt x="314" y="151" on="0"/>
        <pt x="347" y="285" on="0"/>
        <pt x="347" y="351" on="1"/>
        <pt x="347" y="508" on="0"/>
        <pt x="288" y="580" on="1"/>
        <pt x="196" y="580" on="1"/>
        <pt x="196" y="405" on="1"/>
        <pt x="283" y="405" on="1"/>
        <pt x="283" y="299" on="1"/>
        <pt x="196" y="299" on="1"/>
      </contour>
    </TTGlyph>
    <TTGlyph name="Euro" xMin="22" yMin="0" xMax="483" yMax="700">
      <contour>
        <pt x="34" y="372" on="1"/>
        <pt x="46" y="437" on="1"/>
        <pt x="101" y="437" on="1"/>
        <pt x="106" y="486" on="0"/>
        <pt x="119" y="523" on="1"/>
        <pt x="159" y="633" on="0"/>
        <pt x="242" y="700" on="1"/>
        <pt x="483" y="700" on="1"/>
        <pt x="483" y="580" on="1"/>
        <pt x="310" y="580" on="1"/>
        <pt x="269" y="528" on="0"/>
        <pt x="253" y="437" on="1"/>
        <pt x="415" y="437" on="1"/>
        <pt x="403" y="372" on="1"/>
      </contour>
      <contour>
        <pt x="22" y="265" on="1"/>
        <pt x="34" y="330" on="1"/>
        <pt x="394" y="330" on="1"/>
        <pt x="382" y="265" on="1"/>
        <pt x="252" y="265" on="1"/>
        <pt x="267" y="168" on="0"/>
        <pt x="310" y="116" on="1"/>
        <pt x="483" y="116" on="1"/>
        <pt x="483" y="0" on="1"/>
        <pt x="225" y="0" on="1"/>
        <pt x="154" y="66" on="0"/>
        <pt x="118" y="179" on="1"/>
        <pt x="107" y="212" on="0"/>
        <pt x="101" y="265" on="1"/>
      </contour>
    </TTGlyph>
    <TTGlyph name="F" xMin="48" yMin="0" xMax="413" yMax="700">
      <contour>
        <pt x="48" y="0" on="1"/>
        <pt x="48" y="700" on="1"/>
        <pt x="413" y="700" on="1"/>
        <pt x="413" y="580" on="1"/>
        <pt x="185" y="580" on="1"/>
        <pt x="185" y="405" on="1"/>
        <pt x="383" y="405" on="1"/>
        <pt x="383" y="289" on="1"/>
        <pt x="185" y="289" on="1"/>
        <pt x="185" y="0" on="1"/>
      </contour>
    </TTGlyph>
    <TTGlyph name="G" xMin="30" yMin="0" xMax="464" yMax="700">
      <contour>
        <pt x="380" y="0" on="1"/>
        <pt x="168" y="0" on="1"/>
        <pt x="96" y="66" on="0"/>
        <pt x="30" y="248" on="0"/>
        <pt x="30" y="447" on="0"/>
        <pt x="110" y="641" on="0"/>
        <pt x="182" y="700" on="1"/>
        <pt x="425" y="700" on="1"/>
        <pt x="425" y="580" on="1"/>
        <pt x="239" y="580" on="1"/>
        <pt x="213" y="550" on="0"/>
        <pt x="175" y="421" on="0"/>
        <pt x="175" y="276" on="0"/>
        <pt x="210" y="145" on="0"/>
        <pt x="236" y="116" on="1"/>
        <pt x="332" y="116" on="1"/>
        <pt x="332" y="388" on="1"/>
        <pt x="464" y="388" on="1"/>
        <pt x="464" y="220" on="1"/>
        <pt x="464" y="82" on="0"/>
      </contour>
    </TTGlyph>
    <TTGlyph name="Gbreve" xMin="30" yMin="0" xMax="464" yMax="879">
      <contour>
        <pt x="380" y="0" on="1"/>
        <pt x="168" y="0" on="1"/>
        <pt x="96" y="66" on="0"/>
        <pt x="30" y="248" on="0"/>
        <pt x="30" y="447" on="0"/>
        <pt x="110" y="641" on="0"/>
        <pt x="182" y="700" on="1"/>
        <pt x="425" y="700" on="1"/>
        <pt x="425" y="580" on="1"/>
        <pt x="239" y="580" on="1"/>
        <pt x="213" y="550" on="0"/>
        <pt x="175" y="421" on="0"/>
        <pt x="175" y="276" on="0"/>
        <pt x="210" y="145" on="0"/>
        <pt x="236" y="116" on="1"/>
        <pt x="332" y="116" on="1"/>
        <pt x="332" y="388" on="1"/>
        <pt x="464" y="388" on="1"/>
        <pt x="464" y="220" on="1"/>
        <pt x="464" y="82" on="0"/>
      </contour>
      <contour>
        <pt x="125" y="879" on="1"/>
        <pt x="217" y="879" on="1"/>
        <pt x="227" y="840" on="0"/>
        <pt x="253" y="827" on="1"/>
        <pt x="292" y="827" on="1"/>
        <pt x="318" y="840" on="0"/>
        <pt x="328" y="879" on="1"/>
        <pt x="421" y="879" on="1"/>
        <pt x="417" y="771" on="0"/>
        <pt x="316" y="730" on="1"/>
        <pt x="230" y="730" on="1"/>
        <pt x="131" y="770" on="0"/>
      </contour>
    </TTGlyph>
    <TTGlyph name="Gcircumflex" xMin="30" yMin="0" xMax="464" yMax="878">
      <contour>
        <pt x="380" y="0" on="1"/>
        <pt x="168" y="0" on="1"/>
        <pt x="96" y="66" on="0"/>
        <pt x="30" y="248" on="0"/>
        <pt x="30" y="447" on="0"/>
        <pt x="110" y="641" on="0"/>
        <pt x="182" y="700" on="1"/>
        <pt x="425" y="700" on="1"/>
        <pt x="425" y="580" on="1"/>
        <pt x="239" y="580" on="1"/>
        <pt x="213" y="550" on="0"/>
        <pt x="175" y="421" on="0"/>
        <pt x="175" y="276" on="0"/>
        <pt x="210" y="145" on="0"/>
        <pt x="236" y="116" on="1"/>
        <pt x="332" y="116" on="1"/>
        <pt x="332" y="388" on="1"/>
        <pt x="464" y="388" on="1"/>
        <pt x="464" y="220" on="1"/>
        <pt x="464" y="82" on="0"/>
      </contour>
      <contour>
        <pt x="215" y="878" on="1"/>
        <pt x="321" y="878" on="1"/>
        <pt x="412" y="767" on="1"/>
        <pt x="353" y="728" on="1"/>
        <pt x="267" y="786" on="1"/>
        <pt x="181" y="729" on="1"/>
        <pt x="122" y="769" on="1"/>
      </contour>
    </TTGlyph>
    <TTGlyph name="Gcommaaccent" xMin="30" yMin="-319" xMax="464" yMax="700">
      <contour>
        <pt x="380" y="0" on="1"/>
        <pt x="168" y="0" on="1"/>
        <pt x="96" y="66" on="0"/>
        <pt x="30" y="248" on="0"/>
        <pt x="30" y="447" on="0"/>
        <pt x="110" y="641" on="0"/>
        <pt x="182" y="700" on="1"/>
        <pt x="425" y="700" on="1"/>
        <pt x="425" y="580" on="1"/>
        <pt x="239" y="580" on="1"/>
        <pt x="213" y="550" on="0"/>
        <pt x="175" y="421" on="0"/>
        <pt x="175" y="276" on="0"/>
        <pt x="210" y="145" on="0"/>
        <pt x="236" y="116" on="1"/>
        <pt x="332" y="116" on="1"/>
        <pt x="332" y="388" on="1"/>
        <pt x="464" y="388" on="1"/>
        <pt x="464" y="220" on="1"/>
        <pt x="464" y="82" on="0"/>
      </contour>
      <contour>
        <pt x="213" y="-203" on="1"/>
        <pt x="213" y="-66" on="1"/>
        <pt x="333" y="-66" on="1"/>
        <pt x="333" y="-109" on="1"/>
        <pt x="333" y="-185" on="0"/>
        <pt x="309" y="-256" on="0"/>
        <pt x="263" y="-319" on="1"/>
        <pt x="217" y="-293" on="1"/>
        <pt x="246" y="-244" on="0"/>
        <pt x="257" y="-203" on="1"/>
      </contour>
    </TTGlyph>
    <TTGlyph name="Gdotaccent" xMin="30" yMin="0" xMax="464" yMax="865">
      <contour>
        <pt x="380" y="0" on="1"/>
        <pt x="168" y="0" on="1"/>
        <pt x="96" y="66" on="0"/>
        <pt x="30" y="248" on="0"/>
        <pt x="30" y="447" on="0"/>
        <pt x="110" y="641" on="0"/>
        <pt x="182" y="700" on="1"/>
        <pt x="425" y="700" on="1"/>
        <pt x="425" y="580" on="1"/>
        <pt x="239" y="580" on="1"/>
        <pt x="213" y="550" on="0"/>
        <pt x="175" y="421" on="0"/>
        <pt x="175" y="276" on="0"/>
        <pt x="210" y="145" on="0"/>
        <pt x="236" y="116" on="1"/>
        <pt x="332" y="116" on="1"/>
        <pt x="332" y="388" on="1"/>
        <pt x="464" y="388" on="1"/>
        <pt x="464" y="220" on="1"/>
        <pt x="464" y="82" on="0"/>
      </contour>
      <contour>
        <pt x="210" y="865" on="1"/>
        <pt x="342" y="865" on="1"/>
        <pt x="342" y="730" on="1"/>
        <pt x="210" y="730" on="1"/>
      </contour>
    </TTGlyph>
    <TTGlyph name="H" xMin="48" yMin="0" xMax="482" yMax="700">
      <contour>
        <pt x="185" y="0" on="1"/>
        <pt x="48" y="0" on="1"/>
        <pt x="48" y="700" on="1"/>
        <pt x="185" y="700" on="1"/>
        <pt x="185" y="418" on="1"/>
        <pt x="345" y="418" on="1"/>
        <pt x="345" y="700" on="1"/>
        <pt x="482" y="700" on="1"/>
        <pt x="482" y="0" on="1"/>
        <pt x="345" y="0" on="1"/>
        <pt x="345" y="290" on="1"/>
        <pt x="185" y="290" on="1"/>
      </contour>
    </TTGlyph>
    <TTGlyph name="Hbar" xMin="13" yMin="0" xMax="531" yMax="700">
      <contour>
        <pt x="192" y="0" on="1"/>
        <pt x="55" y="0" on="1"/>
        <pt x="55" y="501" on="1"/>
        <pt x="13" y="501" on="1"/>
        <pt x="13" y="615" on="1"/>
        <pt x="55" y="615" on="1"/>
        <pt x="55" y="700" on="1"/>
        <pt x="192" y="700" on="1"/>
        <pt x="192" y="615" on="1"/>
        <pt x="352" y="615" on="1"/>
        <pt x="352" y="700" on="1"/>
        <pt x="489" y="700" on="1"/>
        <pt x="489" y="615" on="1"/>
        <pt x="531" y="615" on="1"/>
        <pt x="531" y="501" on="1"/>
        <pt x="489" y="501" on="1"/>
        <pt x="489" y="0" on="1"/>
        <pt x="352" y="0" on="1"/>
        <pt x="352" y="290" on="1"/>
        <pt x="192" y="290" on="1"/>
      </contour>
      <contour>
        <pt x="192" y="418" on="1"/>
        <pt x="352" y="418" on="1"/>
        <pt x="352" y="501" on="1"/>
        <pt x="192" y="501" on="1"/>
      </contour>
    </TTGlyph>
    <TTGlyph name="Hcircumflex" xMin="48" yMin="0" xMax="482" yMax="878">
      <contour>
        <pt x="48" y="0" on="1"/>
        <pt x="185" y="0" on="1"/>
        <pt x="185" y="290" on="1"/>
        <pt x="345" y="290" on="1"/>
        <pt x="345" y="0" on="1"/>
        <pt x="482" y="0" on="1"/>
        <pt x="482" y="700" on="1"/>
        <pt x="345" y="700" on="1"/>
        <pt x="345" y="418" on="1"/>
        <pt x="185" y="418" on="1"/>
        <pt x="185" y="700" on="1"/>
        <pt x="48" y="700" on="1"/>
      </contour>
      <contour>
        <pt x="213" y="878" on="1"/>
        <pt x="319" y="878" on="1"/>
        <pt x="410" y="767" on="1"/>
        <pt x="351" y="728" on="1"/>
        <pt x="265" y="786" on="1"/>
        <pt x="179" y="729" on="1"/>
        <pt x="120" y="769" on="1"/>
      </contour>
    </TTGlyph>
    <TTGlyph name="I" xMin="48" yMin="0" xMax="185" yMax="700">
      <contour>
        <pt x="48" y="0" on="1"/>
        <pt x="48" y="700" on="1"/>
        <pt x="185" y="700" on="1"/>
        <pt x="185" y="0" on="1"/>
      </contour>
    </TTGlyph>
    <TTGlyph name="IJ" xMin="48" yMin="0" xMax="511" yMax="700">
      <contour>
        <pt x="48" y="0" on="1"/>
        <pt x="48" y="700" on="1"/>
        <pt x="185" y="700" on="1"/>
        <pt x="185" y="0" on="1"/>
      </contour>
      <contour>
        <pt x="243" y="116" on="1"/>
        <pt x="346" y="116" on="1"/>
        <pt x="364" y="139" on="0"/>
        <pt x="374" y="200" on="0"/>
        <pt x="374" y="293" on="1"/>
        <pt x="374" y="700" on="1"/>
        <pt x="511" y="700" on="1"/>
        <pt x="511" y="340" on="1"/>
        <pt x="511" y="273" on="0"/>
        <pt x="506" y="199" on="0"/>
        <pt x="496" y="152" on="1"/>
        <pt x="477" y="63" on="0"/>
        <pt x="401" y="0" on="1"/>
        <pt x="243" y="0" on="1"/>
      </contour>
    </TTGlyph>
    <TTGlyph name="Iacute" xMin="30" yMin="0" xMax="251" yMax="899">
      <contour>
        <pt x="48" y="700" on="1"/>
        <pt x="48" y="0" on="1"/>
        <pt x="185" y="0" on="1"/>
        <pt x="185" y="700" on="1"/>
      </contour>
      <contour>
        <pt x="30" y="817" on="1"/>
        <pt x="213" y="899" on="1"/>
        <pt x="251" y="788" on="1"/>
        <pt x="62" y="730" on="1"/>
      </contour>
    </TTGlyph>
    <TTGlyph name="Ibreve" xMin="-32" yMin="0" xMax="264" yMax="879">
      <contour>
        <pt x="48" y="0" on="1"/>
        <pt x="48" y="700" on="1"/>
        <pt x="185" y="700" on="1"/>
        <pt x="185" y="0" on="1"/>
      </contour>
      <contour>
        <pt x="-32" y="879" on="1"/>
        <pt x="60" y="879" on="1"/>
        <pt x="70" y="840" on="0"/>
        <pt x="96" y="827" on="1"/>
        <pt x="135" y="827" on="1"/>
        <pt x="161" y="840" on="0"/>
        <pt x="171" y="879" on="1"/>
        <pt x="264" y="879" on="1"/>
        <pt x="260" y="771" on="0"/>
        <pt x="159" y="730" on="1"/>
        <pt x="73" y="730" on="1"/>
        <pt x="-26" y="770" on="0"/>
      </contour>
    </TTGlyph>
    <TTGlyph name="Icircumflex" xMin="-29" yMin="0" xMax="261" yMax="878">
      <contour>
        <pt x="48" y="700" on="1"/>
        <pt x="48" y="0" on="1"/>
        <pt x="185" y="0" on="1"/>
        <pt x="185" y="700" on="1"/>
      </contour>
      <contour>
        <pt x="64" y="878" on="1"/>
        <pt x="170" y="878" on="1"/>
        <pt x="261" y="767" on="1"/>
        <pt x="202" y="728" on="1"/>
        <pt x="116" y="786" on="1"/>
        <pt x="30" y="729" on="1"/>
        <pt x="-29" y="769" on="1"/>
      </contour>
    </TTGlyph>
    <TTGlyph name="Idieresis" xMin="-36" yMin="0" xMax="269" yMax="865">
      <contour>
        <pt x="48" y="700" on="1"/>
        <pt x="48" y="0" on="1"/>
        <pt x="185" y="0" on="1"/>
        <pt x="185" y="700" on="1"/>
      </contour>
      <contour>
        <pt x="-36" y="730" on="1"/>
        <pt x="-36" y="865" on="1"/>
        <pt x="96" y="865" on="1"/>
        <pt x="96" y="730" on="1"/>
      </contour>
      <contour>
        <pt x="137" y="730" on="1"/>
        <pt x="137" y="865" on="1"/>
        <pt x="269" y="865" on="1"/>
        <pt x="269" y="730" on="1"/>
      </contour>
    </TTGlyph>
    <TTGlyph name="Idotaccent" xMin="48" yMin="0" xMax="185" yMax="865">
      <contour>
        <pt x="48" y="700" on="1"/>
        <pt x="48" y="0" on="1"/>
        <pt x="185" y="0" on="1"/>
        <pt x="185" y="700" on="1"/>
      </contour>
      <contour>
        <pt x="50" y="865" on="1"/>
        <pt x="182" y="865" on="1"/>
        <pt x="182" y="730" on="1"/>
        <pt x="50" y="730" on="1"/>
      </contour>
    </TTGlyph>
    <TTGlyph name="Igrave" xMin="-27" yMin="0" xMax="195" yMax="899">
      <contour>
        <pt x="48" y="700" on="1"/>
        <pt x="48" y="0" on="1"/>
        <pt x="185" y="0" on="1"/>
        <pt x="185" y="700" on="1"/>
      </contour>
      <contour>
        <pt x="12" y="899" on="1"/>
        <pt x="195" y="817" on="1"/>
        <pt x="163" y="730" on="1"/>
        <pt x="-27" y="788" on="1"/>
      </contour>
    </TTGlyph>
    <TTGlyph name="Imacron" xMin="-10" yMin="0" xMax="242" yMax="838">
      <contour>
        <pt x="48" y="700" on="1"/>
        <pt x="48" y="0" on="1"/>
        <pt x="185" y="0" on="1"/>
        <pt x="185" y="700" on="1"/>
      </contour>
      <contour>
        <pt x="-10" y="738" on="1"/>
        <pt x="-10" y="838" on="1"/>
        <pt x="242" y="838" on="1"/>
        <pt x="242" y="738" on="1"/>
      </contour>
    </TTGlyph>
    <TTGlyph name="Iogonek" xMin="1" yMin="-227" xMax="191" yMax="700">
      <contour>
        <pt x="185" y="700" on="1"/>
        <pt x="185" y="0" on="1"/>
        <pt x="121" y="-127" on="1"/>
        <pt x="125" y="-132" on="1"/>
        <pt x="191" y="-132" on="1"/>
        <pt x="191" y="-227" on="1"/>
        <pt x="38" y="-227" on="1"/>
        <pt x="1" y="-204" on="0"/>
        <pt x="1" y="-159" on="1"/>
        <pt x="1" y="-130" on="0"/>
        <pt x="13" y="-106" on="1"/>
        <pt x="28" y="-77" on="1"/>
        <pt x="31" y="-70" on="0"/>
        <pt x="49" y="-40" on="1"/>
        <pt x="72" y="0" on="1"/>
        <pt x="48" y="0" on="1"/>
        <pt x="48" y="700" on="1"/>
      </contour>
    </TTGlyph>
    <TTGlyph name="Itilde" xMin="-15" yMin="0" xMax="247" yMax="868">
      <contour>
        <pt x="48" y="0" on="1"/>
        <pt x="48" y="700" on="1"/>
        <pt x="185" y="700" on="1"/>
        <pt x="185" y="0" on="1"/>
      </contour>
      <contour>
        <pt x="163" y="734" on="1"/>
        <pt x="67" y="759" on="1"/>
        <pt x="46" y="759" on="0"/>
        <pt x="-15" y="736" on="1"/>
        <pt x="-15" y="841" on="1"/>
        <pt x="49" y="868" on="0"/>
        <pt x="71" y="868" on="1"/>
        <pt x="168" y="841" on="1"/>
        <pt x="188" y="841" on="0"/>
        <pt x="247" y="855" on="1"/>
        <pt x="247" y="748" on="1"/>
        <pt x="186" y="733" on="0"/>
      </contour>
    </TTGlyph>
    <TTGlyph name="J" xMin="16" yMin="0" xMax="284" yMax="700">
      <contour>
        <pt x="16" y="116" on="1"/>
        <pt x="119" y="116" on="1"/>
        <pt x="137" y="139" on="0"/>
        <pt x="147" y="200" on="0"/>
        <pt x="147" y="293" on="1"/>
        <pt x="147" y="700" on="1"/>
        <pt x="284" y="700" on="1"/>
        <pt x="284" y="340" on="1"/>
        <pt x="284" y="273" on="0"/>
        <pt x="279" y="199" on="0"/>
        <pt x="269" y="152" on="1"/>
        <pt x="250" y="63" on="0"/>
        <pt x="174" y="0" on="1"/>
        <pt x="16" y="0" on="1"/>
      </contour>
    </TTGlyph>
    <TTGlyph name="Jcircumflex" xMin="16" yMin="0" xMax="360" yMax="878">
      <contour>
        <pt x="16" y="116" on="1"/>
        <pt x="119" y="116" on="1"/>
        <pt x="137" y="139" on="0"/>
        <pt x="147" y="200" on="0"/>
        <pt x="147" y="293" on="1"/>
        <pt x="147" y="700" on="1"/>
        <pt x="284" y="700" on="1"/>
        <pt x="284" y="340" on="1"/>
        <pt x="284" y="273" on="0"/>
        <pt x="279" y="199" on="0"/>
        <pt x="269" y="152" on="1"/>
        <pt x="250" y="63" on="0"/>
        <pt x="174" y="0" on="1"/>
        <pt x="16" y="0" on="1"/>
      </contour>
      <contour>
        <pt x="163" y="878" on="1"/>
        <pt x="269" y="878" on="1"/>
        <pt x="360" y="767" on="1"/>
        <pt x="301" y="728" on="1"/>
        <pt x="215" y="786" on="1"/>
        <pt x="129" y="729" on="1"/>
        <pt x="70" y="769" on="1"/>
      </contour>
    </TTGlyph>
    <TTGlyph name="K" xMin="48" yMin="0" xMax="463" yMax="700">
      <contour>
        <pt x="48" y="0" on="1"/>
        <pt x="48" y="700" on="1"/>
        <pt x="185" y="700" on="1"/>
        <pt x="185" y="405" on="1"/>
        <pt x="190" y="405" on="1"/>
        <pt x="315" y="700" on="1"/>
        <pt x="456" y="700" on="1"/>
        <pt x="310" y="366" on="1"/>
        <pt x="463" y="0" on="1"/>
        <pt x="311" y="0" on="1"/>
        <pt x="192" y="306" on="1"/>
        <pt x="185" y="306" on="1"/>
        <pt x="185" y="0" on="1"/>
      </contour>
    </TTGlyph>
    <TTGlyph name="Kcommaaccent" xMin="48" yMin="-319" xMax="463" yMax="700">
      <contour>
        <pt x="48" y="0" on="1"/>
        <pt x="48" y="700" on="1"/>
        <pt x="185" y="700" on="1"/>
        <pt x="185" y="405" on="1"/>
        <pt x="190" y="405" on="1"/>
        <pt x="315" y="700" on="1"/>
        <pt x="456" y="700" on="1"/>
        <pt x="310" y="366" on="1"/>
        <pt x="463" y="0" on="1"/>
        <pt x="311" y="0" on="1"/>
        <pt x="192" y="306" on="1"/>
        <pt x="185" y="306" on="1"/>
        <pt x="185" y="0" on="1"/>
      </contour>
      <contour>
        <pt x="177" y="-203" on="1"/>
        <pt x="177" y="-66" on="1"/>
        <pt x="297" y="-66" on="1"/>
        <pt x="297" y="-109" on="1"/>
        <pt x="297" y="-185" on="0"/>
        <pt x="273" y="-256" on="0"/>
        <pt x="227" y="-319" on="1"/>
        <pt x="181" y="-293" on="1"/>
        <pt x="210" y="-244" on="0"/>
        <pt x="221" y="-203" on="1"/>
      </contour>
    </TTGlyph>
    <TTGlyph name="L" xMin="48" yMin="0" xMax="393" yMax="700">
      <contour>
        <pt x="48" y="0" on="1"/>
        <pt x="48" y="700" on="1"/>
        <pt x="185" y="700" on="1"/>
        <pt x="185" y="116" on="1"/>
        <pt x="393" y="116" on="1"/>
        <pt x="393" y="0" on="1"/>
      </contour>
    </TTGlyph>
    <TTGlyph name="Lacute" xMin="14" yMin="0" xMax="393" yMax="899">
      <contour>
        <pt x="48" y="700" on="1"/>
        <pt x="48" y="0" on="1"/>
        <pt x="393" y="0" on="1"/>
        <pt x="393" y="116" on="1"/>
        <pt x="185" y="116" on="1"/>
        <pt x="185" y="700" on="1"/>
      </contour>
      <contour>
        <pt x="14" y="817" on="1"/>
        <pt x="197" y="899" on="1"/>
        <pt x="235" y="788" on="1"/>
        <pt x="46" y="730" on="1"/>
      </contour>
    </TTGlyph>
    <TTGlyph name="Lcaron" xMin="48" yMin="0" xMax="393" yMax="700">
      <contour>
        <pt x="48" y="0" on="1"/>
        <pt x="48" y="700" on="1"/>
        <pt x="185" y="700" on="1"/>
        <pt x="185" y="116" on="1"/>
        <pt x="393" y="116" on="1"/>
        <pt x="393" y="0" on="1"/>
      </contour>
      <contour>
        <pt x="249" y="700" on="1"/>
        <pt x="352" y="700" on="1"/>
        <pt x="332" y="501" on="1"/>
        <pt x="249" y="501" on="1"/>
      </contour>
    </TTGlyph>
    <TTGlyph name="Lcommaaccent" xMin="48" yMin="-319" xMax="393" yMax="700">
      <contour>
        <pt x="48" y="0" on="1"/>
        <pt x="48" y="700" on="1"/>
        <pt x="185" y="700" on="1"/>
        <pt x="185" y="116" on="1"/>
        <pt x="393" y="116" on="1"/>
        <pt x="393" y="0" on="1"/>
      </contour>
      <contour>
        <pt x="165" y="-203" on="1"/>
        <pt x="165" y="-66" on="1"/>
        <pt x="285" y="-66" on="1"/>
        <pt x="285" y="-109" on="1"/>
        <pt x="285" y="-185" on="0"/>
        <pt x="261" y="-256" on="0"/>
        <pt x="215" y="-319" on="1"/>
        <pt x="169" y="-293" on="1"/>
        <pt x="198" y="-244" on="0"/>
        <pt x="209" y="-203" on="1"/>
      </contour>
    </TTGlyph>
    <TTGlyph name="Ldot" xMin="48" yMin="0" xMax="393" yMax="700">
      <contour>
        <pt x="48" y="0" on="1"/>
        <pt x="48" y="700" on="1"/>
        <pt x="185" y="700" on="1"/>
        <pt x="185" y="116" on="1"/>
        <pt x="393" y="116" on="1"/>
        <pt x="393" y="0" on="1"/>
      </contour>
      <contour>
        <pt x="250" y="392" on="1"/>
        <pt x="362" y="392" on="1"/>
        <pt x="362" y="268" on="1"/>
        <pt x="250" y="268" on="1"/>
      </contour>
    </TTGlyph>
    <TTGlyph name="Lslash" xMin="-18" yMin="0" xMax="393" yMax="700">
      <contour>
        <pt x="-18" y="272" on="1"/>
        <pt x="-18" y="384" on="1"/>
        <pt x="48" y="402" on="1"/>
        <pt x="48" y="700" on="1"/>
        <pt x="185" y="700" on="1"/>
        <pt x="185" y="441" on="1"/>
        <pt x="348" y="487" on="1"/>
        <pt x="348" y="375" on="1"/>
        <pt x="185" y="329" on="1"/>
        <pt x="185" y="116" on="1"/>
        <pt x="393" y="116" on="1"/>
        <pt x="393" y="0" on="1"/>
        <pt x="48" y="0" on="1"/>
        <pt x="48" y="290" on="1"/>
      </contour>
    </TTGlyph>
    <TTGlyph name="M" xMin="33" yMin="0" xMax="569" yMax="700">
      <contour>
        <pt x="303" y="320" on="1"/>
        <pt x="299" y="320" on="1"/>
        <pt x="303" y="320" on="1"/>
        <pt x="356" y="539" on="1"/>
        <pt x="399" y="700" on="1"/>
        <pt x="524" y="700" on="1"/>
        <pt x="569" y="0" on="1"/>
        <pt x="438" y="0" on="1"/>
        <pt x="419" y="382" on="1"/>
        <pt x="414" y="382" on="1"/>
        <pt x="342" y="100" on="1"/>
        <pt x="260" y="100" on="1"/>
        <pt x="188" y="382" on="1"/>
        <pt x="183" y="382" on="1"/>
        <pt x="164" y="0" on="1"/>
        <pt x="33" y="0" on="1"/>
        <pt x="78" y="700" on="1"/>
        <pt x="203" y="700" on="1"/>
        <pt x="246" y="539" on="1"/>
        <pt x="299" y="320" on="1"/>
      </contour>
    </TTGlyph>
    <TTGlyph name="N" xMin="48" yMin="0" xMax="453" yMax="700">
      <contour>
        <pt x="360" y="0" on="1"/>
        <pt x="173" y="387" on="1"/>
        <pt x="168" y="385" on="1"/>
        <pt x="174" y="267" on="1"/>
        <pt x="174" y="0" on="1"/>
        <pt x="48" y="0" on="1"/>
        <pt x="48" y="700" on="1"/>
        <pt x="149" y="700" on="1"/>
        <pt x="333" y="298" on="1"/>
        <pt x="338" y="300" on="1"/>
        <pt x="327" y="423" on="1"/>
        <pt x="327" y="700" on="1"/>
        <pt x="453" y="700" on="1"/>
        <pt x="453" y="0" on="1"/>
      </contour>
    </TTGlyph>
    <TTGlyph name="Nacute" xMin="48" yMin="0" xMax="453" yMax="899">
      <contour>
        <pt x="360" y="0" on="1"/>
        <pt x="173" y="387" on="1"/>
        <pt x="168" y="385" on="1"/>
        <pt x="174" y="267" on="1"/>
        <pt x="174" y="0" on="1"/>
        <pt x="48" y="0" on="1"/>
        <pt x="48" y="700" on="1"/>
        <pt x="149" y="700" on="1"/>
        <pt x="333" y="298" on="1"/>
        <pt x="338" y="300" on="1"/>
        <pt x="327" y="423" on="1"/>
        <pt x="327" y="700" on="1"/>
        <pt x="453" y="700" on="1"/>
        <pt x="453" y="0" on="1"/>
      </contour>
      <contour>
        <pt x="169" y="817" on="1"/>
        <pt x="352" y="899" on="1"/>
        <pt x="390" y="788" on="1"/>
        <pt x="201" y="730" on="1"/>
      </contour>
    </TTGlyph>
    <TTGlyph name="Ncaron" xMin="48" yMin="0" xMax="453" yMax="878">
      <contour>
        <pt x="360" y="0" on="1"/>
        <pt x="173" y="387" on="1"/>
        <pt x="168" y="385" on="1"/>
        <pt x="174" y="267" on="1"/>
        <pt x="174" y="0" on="1"/>
        <pt x="48" y="0" on="1"/>
        <pt x="48" y="700" on="1"/>
        <pt x="149" y="700" on="1"/>
        <pt x="333" y="298" on="1"/>
        <pt x="338" y="300" on="1"/>
        <pt x="327" y="423" on="1"/>
        <pt x="327" y="700" on="1"/>
        <pt x="453" y="700" on="1"/>
        <pt x="453" y="0" on="1"/>
      </contour>
      <contour>
        <pt x="299" y="728" on="1"/>
        <pt x="193" y="728" on="1"/>
        <pt x="100" y="837" on="1"/>
        <pt x="159" y="877" on="1"/>
        <pt x="245" y="820" on="1"/>
        <pt x="331" y="878" on="1"/>
        <pt x="390" y="839" on="1"/>
      </contour>
    </TTGlyph>
    <TTGlyph name="Ncommaaccent" xMin="48" yMin="-319" xMax="453" yMax="700">
      <contour>
        <pt x="360" y="0" on="1"/>
        <pt x="173" y="387" on="1"/>
        <pt x="168" y="385" on="1"/>
        <pt x="174" y="267" on="1"/>
        <pt x="174" y="0" on="1"/>
        <pt x="48" y="0" on="1"/>
        <pt x="48" y="700" on="1"/>
        <pt x="149" y="700" on="1"/>
        <pt x="333" y="298" on="1"/>
        <pt x="338" y="300" on="1"/>
        <pt x="327" y="423" on="1"/>
        <pt x="327" y="700" on="1"/>
        <pt x="453" y="700" on="1"/>
        <pt x="453" y="0" on="1"/>
      </contour>
      <contour>
        <pt x="187" y="-203" on="1"/>
        <pt x="187" y="-66" on="1"/>
        <pt x="307" y="-66" on="1"/>
        <pt x="307" y="-109" on="1"/>
        <pt x="307" y="-185" on="0"/>
        <pt x="283" y="-256" on="0"/>
        <pt x="237" y="-319" on="1"/>
        <pt x="191" y="-293" on="1"/>
        <pt x="220" y="-244" on="0"/>
        <pt x="231" y="-203" on="1"/>
      </contour>
    </TTGlyph>
    <TTGlyph name="Ntilde" xMin="48" yMin="0" xMax="453" yMax="868">
      <contour>
        <pt x="360" y="0" on="1"/>
        <pt x="173" y="387" on="1"/>
        <pt x="168" y="385" on="1"/>
        <pt x="174" y="267" on="1"/>
        <pt x="174" y="0" on="1"/>
        <pt x="48" y="0" on="1"/>
        <pt x="48" y="700" on="1"/>
        <pt x="149" y="700" on="1"/>
        <pt x="333" y="298" on="1"/>
        <pt x="338" y="300" on="1"/>
        <pt x="327" y="423" on="1"/>
        <pt x="327" y="700" on="1"/>
        <pt x="453" y="700" on="1"/>
        <pt x="453" y="0" on="1"/>
      </contour>
      <contour>
        <pt x="292" y="734" on="1"/>
        <pt x="196" y="759" on="1"/>
        <pt x="175" y="759" on="0"/>
        <pt x="114" y="736" on="1"/>
        <pt x="114" y="841" on="1"/>
        <pt x="178" y="868" on="0"/>
        <pt x="200" y="868" on="1"/>
        <pt x="297" y="841" on="1"/>
        <pt x="317" y="841" on="0"/>
        <pt x="376" y="855" on="1"/>
        <pt x="376" y="748" on="1"/>
        <pt x="315" y="733" on="0"/>
      </contour>
    </TTGlyph>
    <TTGlyph name="O" xMin="30" yMin="0" xMax="512" yMax="700">
      <contour>
        <pt x="374" y="700" on="1"/>
        <pt x="444" y="643" on="0"/>
        <pt x="512" y="451" on="0"/>
        <pt x="512" y="248" on="0"/>
        <pt x="446" y="66" on="0"/>
        <pt x="374" y="0" on="1"/>
        <pt x="168" y="0" on="1"/>
        <pt x="96" y="66" on="0"/>
        <pt x="30" y="248" on="0"/>
        <pt x="30" y="451" on="0"/>
        <pt x="98" y="643" on="0"/>
        <pt x="168" y="700" on="1"/>
      </contour>
      <contour>
        <pt x="235" y="116" on="1"/>
        <pt x="307" y="116" on="1"/>
        <pt x="332" y="145" on="0"/>
        <pt x="367" y="276" on="0"/>
        <pt x="367" y="422" on="0"/>
        <pt x="333" y="551" on="0"/>
        <pt x="308" y="580" on="1"/>
        <pt x="235" y="580" on="1"/>
        <pt x="210" y="551" on="0"/>
        <pt x="175" y="422" on="0"/>
        <pt x="175" y="276" on="0"/>
        <pt x="210" y="145" on="0"/>
      </contour>
    </TTGlyph>
    <TTGlyph name="OE" xMin="30" yMin="0" xMax="726" yMax="700">
      <contour>
        <pt x="722" y="700" on="1"/>
        <pt x="722" y="580" on="1"/>
        <pt x="464" y="580" on="1"/>
        <pt x="497" y="507" on="0"/>
        <pt x="508" y="413" on="1"/>
        <pt x="698" y="413" on="1"/>
        <pt x="698" y="297" on="1"/>
        <pt x="510" y="297" on="1"/>
        <pt x="502" y="198" on="0"/>
        <pt x="460" y="116" on="1"/>
        <pt x="726" y="116" on="1"/>
        <pt x="726" y="0" on="1"/>
        <pt x="168" y="0" on="1"/>
        <pt x="96" y="66" on="0"/>
        <pt x="30" y="248" on="0"/>
        <pt x="30" y="451" on="0"/>
        <pt x="98" y="643" on="0"/>
        <pt x="168" y="700" on="1"/>
      </contour>
      <contour>
        <pt x="235" y="116" on="1"/>
        <pt x="307" y="116" on="1"/>
        <pt x="332" y="145" on="0"/>
        <pt x="367" y="276" on="0"/>
        <pt x="367" y="422" on="0"/>
        <pt x="333" y="551" on="0"/>
        <pt x="308" y="580" on="1"/>
        <pt x="235" y="580" on="1"/>
        <pt x="210" y="551" on="0"/>
        <pt x="175" y="422" on="0"/>
        <pt x="175" y="276" on="0"/>
        <pt x="210" y="145" on="0"/>
      </contour>
    </TTGlyph>
    <TTGlyph name="Oacute" xMin="30" yMin="0" xMax="512" yMax="899">
      <contour>
        <pt x="175" y="817" on="1"/>
        <pt x="358" y="899" on="1"/>
        <pt x="396" y="788" on="1"/>
        <pt x="207" y="730" on="1"/>
      </contour>
      <contour>
        <pt x="374" y="700" on="1"/>
        <pt x="444" y="643" on="0"/>
        <pt x="512" y="451" on="0"/>
        <pt x="512" y="248" on="0"/>
        <pt x="446" y="66" on="0"/>
        <pt x="374" y="0" on="1"/>
        <pt x="168" y="0" on="1"/>
        <pt x="96" y="66" on="0"/>
        <pt x="30" y="248" on="0"/>
        <pt x="30" y="451" on="0"/>
        <pt x="98" y="643" on="0"/>
        <pt x="168" y="700" on="1"/>
      </contour>
      <contour>
        <pt x="235" y="116" on="1"/>
        <pt x="307" y="116" on="1"/>
        <pt x="332" y="145" on="0"/>
        <pt x="367" y="276" on="0"/>
        <pt x="367" y="422" on="0"/>
        <pt x="333" y="551" on="0"/>
        <pt x="308" y="580" on="1"/>
        <pt x="235" y="580" on="1"/>
        <pt x="210" y="551" on="0"/>
        <pt x="175" y="422" on="0"/>
        <pt x="175" y="276" on="0"/>
        <pt x="210" y="145" on="0"/>
      </contour>
    </TTGlyph>
    <TTGlyph name="Obreve" xMin="30" yMin="0" xMax="512" yMax="879">
      <contour>
        <pt x="124" y="879" on="1"/>
        <pt x="216" y="879" on="1"/>
        <pt x="226" y="840" on="0"/>
        <pt x="252" y="827" on="1"/>
        <pt x="291" y="827" on="1"/>
        <pt x="317" y="840" on="0"/>
        <pt x="327" y="879" on="1"/>
        <pt x="420" y="879" on="1"/>
        <pt x="416" y="771" on="0"/>
        <pt x="315" y="730" on="1"/>
        <pt x="229" y="730" on="1"/>
        <pt x="130" y="770" on="0"/>
      </contour>
      <contour>
        <pt x="374" y="700" on="1"/>
        <pt x="444" y="643" on="0"/>
        <pt x="512" y="451" on="0"/>
        <pt x="512" y="248" on="0"/>
        <pt x="446" y="66" on="0"/>
        <pt x="374" y="0" on="1"/>
        <pt x="168" y="0" on="1"/>
        <pt x="96" y="66" on="0"/>
        <pt x="30" y="248" on="0"/>
        <pt x="30" y="451" on="0"/>
        <pt x="98" y="643" on="0"/>
        <pt x="168" y="700" on="1"/>
      </contour>
      <contour>
        <pt x="235" y="116" on="1"/>
        <pt x="307" y="116" on="1"/>
        <pt x="332" y="145" on="0"/>
        <pt x="367" y="276" on="0"/>
        <pt x="367" y="422" on="0"/>
        <pt x="333" y="551" on="0"/>
        <pt x="308" y="580" on="1"/>
        <pt x="235" y="580" on="1"/>
        <pt x="210" y="551" on="0"/>
        <pt x="175" y="422" on="0"/>
        <pt x="175" y="276" on="0"/>
        <pt x="210" y="145" on="0"/>
      </contour>
    </TTGlyph>
    <TTGlyph name="Ocircumflex" xMin="30" yMin="0" xMax="512" yMax="878">
      <contour>
        <pt x="219" y="878" on="1"/>
        <pt x="325" y="878" on="1"/>
        <pt x="416" y="767" on="1"/>
        <pt x="357" y="728" on="1"/>
        <pt x="271" y="786" on="1"/>
        <pt x="185" y="729" on="1"/>
        <pt x="126" y="769" on="1"/>
      </contour>
      <contour>
        <pt x="374" y="700" on="1"/>
        <pt x="444" y="643" on="0"/>
        <pt x="512" y="451" on="0"/>
        <pt x="512" y="248" on="0"/>
        <pt x="446" y="66" on="0"/>
        <pt x="374" y="0" on="1"/>
        <pt x="168" y="0" on="1"/>
        <pt x="96" y="66" on="0"/>
        <pt x="30" y="248" on="0"/>
        <pt x="30" y="451" on="0"/>
        <pt x="98" y="643" on="0"/>
        <pt x="168" y="700" on="1"/>
      </contour>
      <contour>
        <pt x="235" y="116" on="1"/>
        <pt x="307" y="116" on="1"/>
        <pt x="332" y="145" on="0"/>
        <pt x="367" y="276" on="0"/>
        <pt x="367" y="422" on="0"/>
        <pt x="333" y="551" on="0"/>
        <pt x="308" y="580" on="1"/>
        <pt x="235" y="580" on="1"/>
        <pt x="210" y="551" on="0"/>
        <pt x="175" y="422" on="0"/>
        <pt x="175" y="276" on="0"/>
        <pt x="210" y="145" on="0"/>
      </contour>
    </TTGlyph>
    <TTGlyph name="Odieresis" xMin="30" yMin="0" xMax="512" yMax="865">
      <contour>
        <pt x="119" y="730" on="1"/>
        <pt x="119" y="865" on="1"/>
        <pt x="251" y="865" on="1"/>
        <pt x="251" y="730" on="1"/>
      </contour>
      <contour>
        <pt x="292" y="730" on="1"/>
        <pt x="292" y="865" on="1"/>
        <pt x="424" y="865" on="1"/>
        <pt x="424" y="730" on="1"/>
      </contour>
      <contour>
        <pt x="374" y="700" on="1"/>
        <pt x="444" y="643" on="0"/>
        <pt x="512" y="451" on="0"/>
        <pt x="512" y="248" on="0"/>
        <pt x="446" y="66" on="0"/>
        <pt x="374" y="0" on="1"/>
        <pt x="168" y="0" on="1"/>
        <pt x="96" y="66" on="0"/>
        <pt x="30" y="248" on="0"/>
        <pt x="30" y="451" on="0"/>
        <pt x="98" y="643" on="0"/>
        <pt x="168" y="700" on="1"/>
      </contour>
      <contour>
        <pt x="235" y="116" on="1"/>
        <pt x="307" y="116" on="1"/>
        <pt x="332" y="145" on="0"/>
        <pt x="367" y="276" on="0"/>
        <pt x="367" y="422" on="0"/>
        <pt x="333" y="551" on="0"/>
        <pt x="308" y="580" on="1"/>
        <pt x="235" y="580" on="1"/>
        <pt x="210" y="551" on="0"/>
        <pt x="175" y="422" on="0"/>
        <pt x="175" y="276" on="0"/>
        <pt x="210" y="145" on="0"/>
      </contour>
    </TTGlyph>
    <TTGlyph name="Ograve" xMin="30" yMin="0" xMax="512" yMax="899">
      <contour>
        <pt x="176" y="899" on="1"/>
        <pt x="359" y="817" on="1"/>
        <pt x="327" y="730" on="1"/>
        <pt x="137" y="788" on="1"/>
      </contour>
      <contour>
        <pt x="374" y="700" on="1"/>
        <pt x="444" y="643" on="0"/>
        <pt x="512" y="451" on="0"/>
        <pt x="512" y="248" on="0"/>
        <pt x="446" y="66" on="0"/>
        <pt x="374" y="0" on="1"/>
        <pt x="168" y="0" on="1"/>
        <pt x="96" y="66" on="0"/>
        <pt x="30" y="248" on="0"/>
        <pt x="30" y="451" on="0"/>
        <pt x="98" y="643" on="0"/>
        <pt x="168" y="700" on="1"/>
      </contour>
      <contour>
        <pt x="235" y="116" on="1"/>
        <pt x="307" y="116" on="1"/>
        <pt x="332" y="145" on="0"/>
        <pt x="367" y="276" on="0"/>
        <pt x="367" y="422" on="0"/>
        <pt x="333" y="551" on="0"/>
        <pt x="308" y="580" on="1"/>
        <pt x="235" y="580" on="1"/>
        <pt x="210" y="551" on="0"/>
        <pt x="175" y="422" on="0"/>
        <pt x="175" y="276" on="0"/>
        <pt x="210" y="145" on="0"/>
      </contour>
    </TTGlyph>
    <TTGlyph name="Ohungarumlaut" xMin="30" yMin="0" xMax="512" yMax="959">
      <contour>
        <pt x="290" y="779" on="1"/>
        <pt x="406" y="939" on="1"/>
        <pt x="493" y="872" on="1"/>
        <pt x="361" y="729" on="1"/>
      </contour>
      <contour>
        <pt x="145" y="789" on="1"/>
        <pt x="246" y="959" on="1"/>
        <pt x="340" y="900" on="1"/>
        <pt x="221" y="745" on="1"/>
      </contour>
      <contour>
        <pt x="374" y="700" on="1"/>
        <pt x="444" y="643" on="0"/>
        <pt x="512" y="451" on="0"/>
        <pt x="512" y="248" on="0"/>
        <pt x="446" y="66" on="0"/>
        <pt x="374" y="0" on="1"/>
        <pt x="168" y="0" on="1"/>
        <pt x="96" y="66" on="0"/>
        <pt x="30" y="248" on="0"/>
        <pt x="30" y="451" on="0"/>
        <pt x="98" y="643" on="0"/>
        <pt x="168" y="700" on="1"/>
      </contour>
      <contour>
        <pt x="235" y="116" on="1"/>
        <pt x="307" y="116" on="1"/>
        <pt x="332" y="145" on="0"/>
        <pt x="367" y="276" on="0"/>
        <pt x="367" y="422" on="0"/>
        <pt x="333" y="551" on="0"/>
        <pt x="308" y="580" on="1"/>
        <pt x="235" y="580" on="1"/>
        <pt x="210" y="551" on="0"/>
        <pt x="175" y="422" on="0"/>
        <pt x="175" y="276" on="0"/>
        <pt x="210" y="145" on="0"/>
      </contour>
    </TTGlyph>
    <TTGlyph name="Omacron" xMin="30" yMin="0" xMax="512" yMax="838">
      <contour>
        <pt x="145" y="738" on="1"/>
        <pt x="145" y="838" on="1"/>
        <pt x="397" y="838" on="1"/>
        <pt x="397" y="738" on="1"/>
      </contour>
      <contour>
        <pt x="374" y="700" on="1"/>
        <pt x="444" y="643" on="0"/>
        <pt x="512" y="451" on="0"/>
        <pt x="512" y="248" on="0"/>
        <pt x="446" y="66" on="0"/>
        <pt x="374" y="0" on="1"/>
        <pt x="168" y="0" on="1"/>
        <pt x="96" y="66" on="0"/>
        <pt x="30" y="248" on="0"/>
        <pt x="30" y="451" on="0"/>
        <pt x="98" y="643" on="0"/>
        <pt x="168" y="700" on="1"/>
      </contour>
      <contour>
        <pt x="235" y="116" on="1"/>
        <pt x="307" y="116" on="1"/>
        <pt x="332" y="145" on="0"/>
        <pt x="367" y="276" on="0"/>
        <pt x="367" y="422" on="0"/>
        <pt x="333" y="551" on="0"/>
        <pt x="308" y="580" on="1"/>
        <pt x="235" y="580" on="1"/>
        <pt x="210" y="551" on="0"/>
        <pt x="175" y="422" on="0"/>
        <pt x="175" y="276" on="0"/>
        <pt x="210" y="145" on="0"/>
      </contour>
    </TTGlyph>
    <TTGlyph name="Oslash" xMin="30" yMin="-50" xMax="512" yMax="750">
      <contour>
        <pt x="99" y="-50" on="1"/>
        <pt x="129" y="41" on="1"/>
        <pt x="30" y="164" on="0"/>
        <pt x="30" y="340" on="1"/>
        <pt x="30" y="451" on="0"/>
        <pt x="98" y="643" on="0"/>
        <pt x="168" y="700" on="1"/>
        <pt x="312" y="700" on="1"/>
        <pt x="329" y="750" on="1"/>
        <pt x="452" y="750" on="1"/>
        <pt x="420" y="653" on="1"/>
        <pt x="512" y="535" on="0"/>
        <pt x="512" y="340" on="1"/>
        <pt x="512" y="248" on="0"/>
        <pt x="446" y="66" on="0"/>
        <pt x="374" y="0" on="1"/>
        <pt x="238" y="0" on="1"/>
        <pt x="222" y="-50" on="1"/>
      </contour>
      <contour>
        <pt x="235" y="116" on="1"/>
        <pt x="307" y="116" on="1"/>
        <pt x="332" y="145" on="0"/>
        <pt x="367" y="276" on="0"/>
        <pt x="367" y="422" on="0"/>
        <pt x="333" y="551" on="0"/>
        <pt x="308" y="580" on="1"/>
        <pt x="235" y="580" on="1"/>
        <pt x="210" y="551" on="0"/>
        <pt x="175" y="422" on="0"/>
        <pt x="175" y="276" on="0"/>
        <pt x="210" y="145" on="0"/>
      </contour>
    </TTGlyph>
    <TTGlyph name="Oslashacute" xMin="30" yMin="-50" xMax="512" yMax="899">
      <contour>
        <pt x="99" y="-50" on="1"/>
        <pt x="129" y="41" on="1"/>
        <pt x="30" y="164" on="0"/>
        <pt x="30" y="340" on="1"/>
        <pt x="30" y="451" on="0"/>
        <pt x="98" y="643" on="0"/>
        <pt x="168" y="700" on="1"/>
        <pt x="312" y="700" on="1"/>
        <pt x="329" y="750" on="1"/>
        <pt x="452" y="750" on="1"/>
        <pt x="420" y="653" on="1"/>
        <pt x="512" y="535" on="0"/>
        <pt x="512" y="340" on="1"/>
        <pt x="512" y="248" on="0"/>
        <pt x="446" y="66" on="0"/>
        <pt x="374" y="0" on="1"/>
        <pt x="238" y="0" on="1"/>
        <pt x="222" y="-50" on="1"/>
      </contour>
      <contour>
        <pt x="235" y="116" on="1"/>
        <pt x="307" y="116" on="1"/>
        <pt x="332" y="145" on="0"/>
        <pt x="367" y="276" on="0"/>
        <pt x="367" y="422" on="0"/>
        <pt x="333" y="551" on="0"/>
        <pt x="308" y="580" on="1"/>
        <pt x="235" y="580" on="1"/>
        <pt x="210" y="551" on="0"/>
        <pt x="175" y="422" on="0"/>
        <pt x="175" y="276" on="0"/>
        <pt x="210" y="145" on="0"/>
      </contour>
      <contour>
        <pt x="178" y="817" on="1"/>
        <pt x="361" y="899" on="1"/>
        <pt x="399" y="788" on="1"/>
        <pt x="210" y="730" on="1"/>
      </contour>
    </TTGlyph>
    <TTGlyph name="Otilde" xMin="30" yMin="0" xMax="512" yMax="868">
      <contour>
        <pt x="318" y="734" on="1"/>
        <pt x="222" y="759" on="1"/>
        <pt x="201" y="759" on="0"/>
        <pt x="140" y="736" on="1"/>
        <pt x="140" y="841" on="1"/>
        <pt x="204" y="868" on="0"/>
        <pt x="226" y="868" on="1"/>
        <pt x="323" y="841" on="1"/>
        <pt x="343" y="841" on="0"/>
        <pt x="402" y="855" on="1"/>
        <pt x="402" y="748" on="1"/>
        <pt x="341" y="733" on="0"/>
      </contour>
      <contour>
        <pt x="374" y="700" on="1"/>
        <pt x="444" y="643" on="0"/>
        <pt x="512" y="451" on="0"/>
        <pt x="512" y="248" on="0"/>
        <pt x="446" y="66" on="0"/>
        <pt x="374" y="0" on="1"/>
        <pt x="168" y="0" on="1"/>
        <pt x="96" y="66" on="0"/>
        <pt x="30" y="248" on="0"/>
        <pt x="30" y="451" on="0"/>
        <pt x="98" y="643" on="0"/>
        <pt x="168" y="700" on="1"/>
      </contour>
      <contour>
        <pt x="235" y="116" on="1"/>
        <pt x="307" y="116" on="1"/>
        <pt x="332" y="145" on="0"/>
        <pt x="367" y="276" on="0"/>
        <pt x="367" y="422" on="0"/>
        <pt x="333" y="551" on="0"/>
        <pt x="308" y="580" on="1"/>
        <pt x="235" y="580" on="1"/>
        <pt x="210" y="551" on="0"/>
        <pt x="175" y="422" on="0"/>
        <pt x="175" y="276" on="0"/>
        <pt x="210" y="145" on="0"/>
      </contour>
    </TTGlyph>
    <TTGlyph name="P" xMin="48" yMin="0" xMax="466" yMax="700">
      <contour>
        <pt x="183" y="580" on="1"/>
        <pt x="183" y="330" on="1"/>
        <pt x="272" y="330" on="1"/>
        <pt x="327" y="375" on="0"/>
        <pt x="327" y="462" on="1"/>
        <pt x="327" y="499" on="0"/>
        <pt x="298" y="565" on="0"/>
        <pt x="278" y="580" on="1"/>
      </contour>
      <contour>
        <pt x="48" y="0" on="1"/>
        <pt x="48" y="700" on="1"/>
        <pt x="319" y="700" on="1"/>
        <pt x="387" y="670" on="0"/>
        <pt x="466" y="546" on="0"/>
        <pt x="466" y="381" on="0"/>
        <pt x="384" y="241" on="0"/>
        <pt x="304" y="212" on="1"/>
        <pt x="183" y="212" on="1"/>
        <pt x="183" y="0" on="1"/>
      </contour>
    </TTGlyph>
    <TTGlyph name="Q" xMin="30" yMin="-113" xMax="512" yMax="700">
      <contour>
        <pt x="374" y="700" on="1"/>
        <pt x="444" y="643" on="0"/>
        <pt x="512" y="451" on="0"/>
        <pt x="512" y="248" on="0"/>
        <pt x="446" y="66" on="0"/>
        <pt x="374" y="0" on="1"/>
        <pt x="341" y="0" on="1"/>
        <pt x="372" y="-113" on="1"/>
        <pt x="244" y="-113" on="1"/>
        <pt x="213" y="0" on="1"/>
        <pt x="168" y="0" on="1"/>
        <pt x="96" y="66" on="0"/>
        <pt x="30" y="248" on="0"/>
        <pt x="30" y="451" on="0"/>
        <pt x="98" y="643" on="0"/>
        <pt x="168" y="700" on="1"/>
      </contour>
      <contour>
        <pt x="235" y="116" on="1"/>
        <pt x="307" y="116" on="1"/>
        <pt x="332" y="145" on="0"/>
        <pt x="367" y="276" on="0"/>
        <pt x="367" y="422" on="0"/>
        <pt x="333" y="551" on="0"/>
        <pt x="308" y="580" on="1"/>
        <pt x="235" y="580" on="1"/>
        <pt x="210" y="551" on="0"/>
        <pt x="175" y="422" on="0"/>
        <pt x="175" y="276" on="0"/>
        <pt x="210" y="145" on="0"/>
      </contour>
    </TTGlyph>
    <TTGlyph name="R" xMin="48" yMin="0" xMax="466" yMax="700">
      <contour>
        <pt x="48" y="700" on="1"/>
        <pt x="314" y="700" on="1"/>
        <pt x="377" y="679" on="0"/>
        <pt x="466" y="566" on="0"/>
        <pt x="466" y="484" on="1"/>
        <pt x="466" y="350" on="0"/>
        <pt x="360" y="287" on="1"/>
        <pt x="461" y="0" on="1"/>
        <pt x="321" y="0" on="1"/>
        <pt x="236" y="255" on="1"/>
        <pt x="183" y="255" on="1"/>
        <pt x="183" y="0" on="1"/>
        <pt x="48" y="0" on="1"/>
      </contour>
      <contour>
        <pt x="183" y="580" on="1"/>
        <pt x="183" y="367" on="1"/>
        <pt x="269" y="367" on="1"/>
        <pt x="286" y="371" on="0"/>
        <pt x="327" y="432" on="0"/>
        <pt x="327" y="514" on="0"/>
        <pt x="292" y="576" on="0"/>
        <pt x="275" y="580" on="1"/>
      </contour>
    </TTGlyph>
    <TTGlyph name="Racute" xMin="48" yMin="0" xMax="466" yMax="899">
      <contour>
        <pt x="314" y="700" on="1"/>
        <pt x="48" y="700" on="1"/>
        <pt x="48" y="0" on="1"/>
        <pt x="183" y="0" on="1"/>
        <pt x="183" y="255" on="1"/>
        <pt x="236" y="255" on="1"/>
        <pt x="321" y="0" on="1"/>
        <pt x="461" y="0" on="1"/>
        <pt x="360" y="287" on="1"/>
        <pt x="466" y="350" on="0"/>
        <pt x="466" y="484" on="1"/>
        <pt x="466" y="566" on="0"/>
        <pt x="377" y="679" on="0"/>
      </contour>
      <contour>
        <pt x="183" y="367" on="1"/>
        <pt x="183" y="580" on="1"/>
        <pt x="275" y="580" on="1"/>
        <pt x="292" y="576" on="0"/>
        <pt x="327" y="514" on="0"/>
        <pt x="327" y="432" on="0"/>
        <pt x="286" y="371" on="0"/>
        <pt x="269" y="367" on="1"/>
      </contour>
      <contour>
        <pt x="156" y="817" on="1"/>
        <pt x="339" y="899" on="1"/>
        <pt x="377" y="788" on="1"/>
        <pt x="188" y="730" on="1"/>
      </contour>
    </TTGlyph>
    <TTGlyph name="Rcaron" xMin="48" yMin="0" xMax="466" yMax="878">
      <contour>
        <pt x="314" y="700" on="1"/>
        <pt x="48" y="700" on="1"/>
        <pt x="48" y="0" on="1"/>
        <pt x="183" y="0" on="1"/>
        <pt x="183" y="255" on="1"/>
        <pt x="236" y="255" on="1"/>
        <pt x="321" y="0" on="1"/>
        <pt x="461" y="0" on="1"/>
        <pt x="360" y="287" on="1"/>
        <pt x="466" y="350" on="0"/>
        <pt x="466" y="484" on="1"/>
        <pt x="466" y="566" on="0"/>
        <pt x="377" y="679" on="0"/>
      </contour>
      <contour>
        <pt x="183" y="367" on="1"/>
        <pt x="183" y="580" on="1"/>
        <pt x="275" y="580" on="1"/>
        <pt x="292" y="576" on="0"/>
        <pt x="327" y="514" on="0"/>
        <pt x="327" y="432" on="0"/>
        <pt x="286" y="371" on="0"/>
        <pt x="269" y="367" on="1"/>
      </contour>
      <contour>
        <pt x="276" y="728" on="1"/>
        <pt x="170" y="728" on="1"/>
        <pt x="77" y="837" on="1"/>
        <pt x="136" y="877" on="1"/>
        <pt x="222" y="820" on="1"/>
        <pt x="308" y="878" on="1"/>
        <pt x="367" y="839" on="1"/>
      </contour>
    </TTGlyph>
    <TTGlyph name="Rcommaaccent" xMin="48" yMin="-319" xMax="466" yMax="700">
      <contour>
        <pt x="48" y="700" on="1"/>
        <pt x="314" y="700" on="1"/>
        <pt x="377" y="679" on="0"/>
        <pt x="466" y="566" on="0"/>
        <pt x="466" y="484" on="1"/>
        <pt x="466" y="350" on="0"/>
        <pt x="360" y="287" on="1"/>
        <pt x="461" y="0" on="1"/>
        <pt x="321" y="0" on="1"/>
        <pt x="236" y="255" on="1"/>
        <pt x="183" y="255" on="1"/>
        <pt x="183" y="0" on="1"/>
        <pt x="48" y="0" on="1"/>
      </contour>
      <contour>
        <pt x="183" y="580" on="1"/>
        <pt x="183" y="367" on="1"/>
        <pt x="269" y="367" on="1"/>
        <pt x="286" y="371" on="0"/>
        <pt x="327" y="432" on="0"/>
        <pt x="327" y="514" on="0"/>
        <pt x="292" y="576" on="0"/>
        <pt x="275" y="580" on="1"/>
      </contour>
      <contour>
        <pt x="193" y="-203" on="1"/>
        <pt x="193" y="-66" on="1"/>
        <pt x="313" y="-66" on="1"/>
        <pt x="313" y="-109" on="1"/>
        <pt x="313" y="-185" on="0"/>
        <pt x="289" y="-256" on="0"/>
        <pt x="243" y="-319" on="1"/>
        <pt x="197" y="-293" on="1"/>
        <pt x="226" y="-244" on="0"/>
        <pt x="237" y="-203" on="1"/>
      </contour>
    </TTGlyph>
    <TTGlyph name="S" xMin="25" yMin="0" xMax="366" yMax="700">
      <contour>
        <pt x="112" y="700" on="1"/>
        <pt x="352" y="700" on="1"/>
        <pt x="352" y="580" on="1"/>
        <pt x="160" y="580" on="1"/>
        <pt x="157" y="574" on="1"/>
        <pt x="317" y="282" on="1"/>
        <pt x="366" y="194" on="0"/>
        <pt x="366" y="148" on="1"/>
        <pt x="366" y="47" on="0"/>
        <pt x="299" y="0" on="1"/>
        <pt x="34" y="0" on="1"/>
        <pt x="34" y="116" on="1"/>
        <pt x="241" y="116" on="1"/>
        <pt x="244" y="122" on="1"/>
        <pt x="64" y="445" on="1"/>
        <pt x="25" y="515" on="0"/>
        <pt x="25" y="559" on="1"/>
        <pt x="25" y="663" on="0"/>
      </contour>
    </TTGlyph>
    <TTGlyph name="Sacute" xMin="25" yMin="0" xMax="366" yMax="899">
      <contour>
        <pt x="110" y="817" on="1"/>
        <pt x="293" y="899" on="1"/>
        <pt x="331" y="788" on="1"/>
        <pt x="142" y="730" on="1"/>
      </contour>
      <contour>
        <pt x="112" y="700" on="1"/>
        <pt x="352" y="700" on="1"/>
        <pt x="352" y="580" on="1"/>
        <pt x="160" y="580" on="1"/>
        <pt x="157" y="574" on="1"/>
        <pt x="317" y="282" on="1"/>
        <pt x="366" y="194" on="0"/>
        <pt x="366" y="148" on="1"/>
        <pt x="366" y="47" on="0"/>
        <pt x="299" y="0" on="1"/>
        <pt x="34" y="0" on="1"/>
        <pt x="34" y="116" on="1"/>
        <pt x="241" y="116" on="1"/>
        <pt x="244" y="122" on="1"/>
        <pt x="64" y="445" on="1"/>
        <pt x="25" y="515" on="0"/>
        <pt x="25" y="559" on="1"/>
        <pt x="25" y="663" on="0"/>
      </contour>
    </TTGlyph>
    <TTGlyph name="Scaron" xMin="25" yMin="0" xMax="366" yMax="878">
      <contour>
        <pt x="258" y="728" on="1"/>
        <pt x="152" y="728" on="1"/>
        <pt x="59" y="837" on="1"/>
        <pt x="118" y="877" on="1"/>
        <pt x="204" y="820" on="1"/>
        <pt x="290" y="878" on="1"/>
        <pt x="349" y="839" on="1"/>
      </contour>
      <contour>
        <pt x="112" y="700" on="1"/>
        <pt x="352" y="700" on="1"/>
        <pt x="352" y="580" on="1"/>
        <pt x="160" y="580" on="1"/>
        <pt x="157" y="574" on="1"/>
        <pt x="317" y="282" on="1"/>
        <pt x="366" y="194" on="0"/>
        <pt x="366" y="148" on="1"/>
        <pt x="366" y="47" on="0"/>
        <pt x="299" y="0" on="1"/>
        <pt x="34" y="0" on="1"/>
        <pt x="34" y="116" on="1"/>
        <pt x="241" y="116" on="1"/>
        <pt x="244" y="122" on="1"/>
        <pt x="64" y="445" on="1"/>
        <pt x="25" y="515" on="0"/>
        <pt x="25" y="559" on="1"/>
        <pt x="25" y="663" on="0"/>
      </contour>
    </TTGlyph>
    <TTGlyph name="Scedilla" xMin="25" yMin="-260" xMax="366" yMax="700">
      <contour>
        <pt x="112" y="700" on="1"/>
        <pt x="352" y="700" on="1"/>
        <pt x="352" y="580" on="1"/>
        <pt x="160" y="580" on="1"/>
        <pt x="157" y="574" on="1"/>
        <pt x="317" y="282" on="1"/>
        <pt x="366" y="194" on="0"/>
        <pt x="366" y="148" on="1"/>
        <pt x="366" y="47" on="0"/>
        <pt x="299" y="0" on="1"/>
        <pt x="235" y="0" on="1"/>
        <pt x="212" y="-60" on="1"/>
        <pt x="227" y="-73" on="0"/>
        <pt x="234" y="-82" on="1"/>
        <pt x="256" y="-108" on="0"/>
        <pt x="256" y="-184" on="0"/>
        <pt x="220" y="-242" on="0"/>
        <pt x="192" y="-260" on="1"/>
        <pt x="104" y="-260" on="1"/>
        <pt x="104" y="-179" on="1"/>
        <pt x="149" y="-179" on="1"/>
        <pt x="158" y="-173" on="0"/>
        <pt x="159" y="-139" on="0"/>
        <pt x="149" y="-132" on="1"/>
        <pt x="124" y="-132" on="1"/>
        <pt x="124" y="-60" on="1"/>
        <pt x="150" y="0" on="1"/>
        <pt x="34" y="0" on="1"/>
        <pt x="34" y="116" on="1"/>
        <pt x="241" y="116" on="1"/>
        <pt x="244" y="122" on="1"/>
        <pt x="64" y="445" on="1"/>
        <pt x="25" y="515" on="0"/>
        <pt x="25" y="559" on="1"/>
        <pt x="25" y="663" on="0"/>
      </contour>
    </TTGlyph>
    <TTGlyph name="Scircumflex" xMin="25" yMin="0" xMax="366" yMax="878">
      <contour>
        <pt x="154" y="878" on="1"/>
        <pt x="260" y="878" on="1"/>
        <pt x="351" y="767" on="1"/>
        <pt x="292" y="728" on="1"/>
        <pt x="206" y="786" on="1"/>
        <pt x="120" y="729" on="1"/>
        <pt x="61" y="769" on="1"/>
      </contour>
      <contour>
        <pt x="112" y="700" on="1"/>
        <pt x="352" y="700" on="1"/>
        <pt x="352" y="580" on="1"/>
        <pt x="160" y="580" on="1"/>
        <pt x="157" y="574" on="1"/>
        <pt x="317" y="282" on="1"/>
        <pt x="366" y="194" on="0"/>
        <pt x="366" y="148" on="1"/>
        <pt x="366" y="47" on="0"/>
        <pt x="299" y="0" on="1"/>
        <pt x="34" y="0" on="1"/>
        <pt x="34" y="116" on="1"/>
        <pt x="241" y="116" on="1"/>
        <pt x="244" y="122" on="1"/>
        <pt x="64" y="445" on="1"/>
        <pt x="25" y="515" on="0"/>
        <pt x="25" y="559" on="1"/>
        <pt x="25" y="663" on="0"/>
      </contour>
    </TTGlyph>
    <TTGlyph name="Scommaaccent" xMin="25" yMin="-319" xMax="366" yMax="700">
      <contour>
        <pt x="128" y="-203" on="1"/>
        <pt x="128" y="-66" on="1"/>
        <pt x="248" y="-66" on="1"/>
        <pt x="248" y="-109" on="1"/>
        <pt x="248" y="-185" on="0"/>
        <pt x="224" y="-256" on="0"/>
        <pt x="178" y="-319" on="1"/>
        <pt x="132" y="-293" on="1"/>
        <pt x="161" y="-244" on="0"/>
        <pt x="172" y="-203" on="1"/>
      </contour>
      <contour>
        <pt x="112" y="700" on="1"/>
        <pt x="352" y="700" on="1"/>
        <pt x="352" y="580" on="1"/>
        <pt x="160" y="580" on="1"/>
        <pt x="157" y="574" on="1"/>
        <pt x="317" y="282" on="1"/>
        <pt x="366" y="194" on="0"/>
        <pt x="366" y="148" on="1"/>
        <pt x="366" y="47" on="0"/>
        <pt x="299" y="0" on="1"/>
        <pt x="34" y="0" on="1"/>
        <pt x="34" y="116" on="1"/>
        <pt x="241" y="116" on="1"/>
        <pt x="244" y="122" on="1"/>
        <pt x="64" y="445" on="1"/>
        <pt x="25" y="515" on="0"/>
        <pt x="25" y="559" on="1"/>
        <pt x="25" y="663" on="0"/>
      </contour>
    </TTGlyph>
    <TTGlyph name="T" xMin="10" yMin="0" xMax="448" yMax="700">
      <contour>
        <pt x="161" y="580" on="1"/>
        <pt x="10" y="580" on="1"/>
        <pt x="10" y="700" on="1"/>
        <pt x="448" y="700" on="1"/>
        <pt x="448" y="580" on="1"/>
        <pt x="297" y="580" on="1"/>
        <pt x="297" y="0" on="1"/>
        <pt x="161" y="0" on="1"/>
      </contour>
    </TTGlyph>
    <TTGlyph name="Tbar" xMin="10" yMin="0" xMax="448" yMax="700">
      <contour>
        <pt x="161" y="580" on="1"/>
        <pt x="10" y="580" on="1"/>
        <pt x="10" y="700" on="1"/>
        <pt x="448" y="700" on="1"/>
        <pt x="448" y="580" on="1"/>
        <pt x="297" y="580" on="1"/>
        <pt x="297" y="363" on="1"/>
        <pt x="407" y="363" on="1"/>
        <pt x="407" y="249" on="1"/>
        <pt x="297" y="249" on="1"/>
        <pt x="297" y="0" on="1"/>
        <pt x="161" y="0" on="1"/>
        <pt x="161" y="249" on="1"/>
        <pt x="53" y="249" on="1"/>
        <pt x="53" y="363" on="1"/>
        <pt x="161" y="363" on="1"/>
      </contour>
    </TTGlyph>
    <TTGlyph name="Tcaron" xMin="10" yMin="0" xMax="448" yMax="878">
      <contour>
        <pt x="161" y="580" on="1"/>
        <pt x="10" y="580" on="1"/>
        <pt x="10" y="700" on="1"/>
        <pt x="448" y="700" on="1"/>
        <pt x="448" y="580" on="1"/>
        <pt x="297" y="580" on="1"/>
        <pt x="297" y="0" on="1"/>
        <pt x="161" y="0" on="1"/>
      </contour>
      <contour>
        <pt x="283" y="728" on="1"/>
        <pt x="177" y="728" on="1"/>
        <pt x="84" y="837" on="1"/>
        <pt x="143" y="877" on="1"/>
        <pt x="229" y="820" on="1"/>
        <pt x="315" y="878" on="1"/>
        <pt x="374" y="839" on="1"/>
      </contour>
    </TTGlyph>
    <TTGlyph name="Thorn" xMin="48" yMin="0" xMax="466" yMax="700">
      <contour>
        <pt x="48" y="0" on="1"/>
        <pt x="48" y="700" on="1"/>
        <pt x="183" y="700" on="1"/>
        <pt x="183" y="610" on="1"/>
        <pt x="319" y="610" on="1"/>
        <pt x="387" y="580" on="0"/>
        <pt x="466" y="456" on="0"/>
        <pt x="466" y="291" on="0"/>
        <pt x="384" y="151" on="0"/>
        <pt x="304" y="122" on="1"/>
        <pt x="183" y="122" on="1"/>
        <pt x="183" y="0" on="1"/>
      </contour>
      <contour>
        <pt x="183" y="488" on="1"/>
        <pt x="183" y="239" on="1"/>
        <pt x="272" y="239" on="1"/>
        <pt x="327" y="284" on="0"/>
        <pt x="327" y="368" on="1"/>
        <pt x="327" y="405" on="0"/>
        <pt x="297" y="473" on="0"/>
        <pt x="278" y="488" on="1"/>
      </contour>
    </TTGlyph>
    <TTGlyph name="U" xMin="43" yMin="0" xMax="483" yMax="700">
      <contour>
        <pt x="221" y="116" on="1"/>
        <pt x="305" y="116" on="1"/>
        <pt x="327" y="140" on="0"/>
        <pt x="346" y="189" on="0"/>
        <pt x="346" y="237" on="1"/>
        <pt x="346" y="700" on="1"/>
        <pt x="483" y="700" on="1"/>
        <pt x="483" y="287" on="1"/>
        <pt x="483" y="236" on="0"/>
        <pt x="478" y="179" on="0"/>
        <pt x="468" y="138" on="1"/>
        <pt x="451" y="65" on="0"/>
        <pt x="374" y="0" on="1"/>
        <pt x="152" y="0" on="1"/>
        <pt x="75" y="63" on="0"/>
        <pt x="58" y="138" on="1"/>
        <pt x="43" y="199" on="0"/>
        <pt x="43" y="287" on="1"/>
        <pt x="43" y="700" on="1"/>
        <pt x="180" y="700" on="1"/>
        <pt x="180" y="237" on="1"/>
        <pt x="180" y="189" on="0"/>
        <pt x="199" y="140" on="0"/>
      </contour>
    </TTGlyph>
    <TTGlyph name="Uacute" xMin="43" yMin="0" xMax="483" yMax="899">
      <contour>
        <pt x="221" y="116" on="1"/>
        <pt x="305" y="116" on="1"/>
        <pt x="327" y="140" on="0"/>
        <pt x="346" y="189" on="0"/>
        <pt x="346" y="237" on="1"/>
        <pt x="346" y="700" on="1"/>
        <pt x="483" y="700" on="1"/>
        <pt x="483" y="287" on="1"/>
        <pt x="483" y="236" on="0"/>
        <pt x="478" y="179" on="0"/>
        <pt x="468" y="138" on="1"/>
        <pt x="451" y="65" on="0"/>
        <pt x="374" y="0" on="1"/>
        <pt x="152" y="0" on="1"/>
        <pt x="75" y="63" on="0"/>
        <pt x="58" y="138" on="1"/>
        <pt x="43" y="199" on="0"/>
        <pt x="43" y="287" on="1"/>
        <pt x="43" y="700" on="1"/>
        <pt x="180" y="700" on="1"/>
        <pt x="180" y="237" on="1"/>
        <pt x="180" y="189" on="0"/>
        <pt x="199" y="140" on="0"/>
      </contour>
      <contour>
        <pt x="177" y="817" on="1"/>
        <pt x="360" y="899" on="1"/>
        <pt x="398" y="788" on="1"/>
        <pt x="209" y="730" on="1"/>
      </contour>
    </TTGlyph>
    <TTGlyph name="Ubreve" xMin="43" yMin="0" xMax="483" yMax="879">
      <contour>
        <pt x="221" y="116" on="1"/>
        <pt x="305" y="116" on="1"/>
        <pt x="327" y="140" on="0"/>
        <pt x="346" y="189" on="0"/>
        <pt x="346" y="237" on="1"/>
        <pt x="346" y="700" on="1"/>
        <pt x="483" y="700" on="1"/>
        <pt x="483" y="287" on="1"/>
        <pt x="483" y="236" on="0"/>
        <pt x="478" y="179" on="0"/>
        <pt x="468" y="138" on="1"/>
        <pt x="451" y="65" on="0"/>
        <pt x="374" y="0" on="1"/>
        <pt x="152" y="0" on="1"/>
        <pt x="75" y="63" on="0"/>
        <pt x="58" y="138" on="1"/>
        <pt x="43" y="199" on="0"/>
        <pt x="43" y="287" on="1"/>
        <pt x="43" y="700" on="1"/>
        <pt x="180" y="700" on="1"/>
        <pt x="180" y="237" on="1"/>
        <pt x="180" y="189" on="0"/>
        <pt x="199" y="140" on="0"/>
      </contour>
      <contour>
        <pt x="116" y="879" on="1"/>
        <pt x="208" y="879" on="1"/>
        <pt x="218" y="840" on="0"/>
        <pt x="244" y="827" on="1"/>
        <pt x="283" y="827" on="1"/>
        <pt x="309" y="840" on="0"/>
        <pt x="319" y="879" on="1"/>
        <pt x="412" y="879" on="1"/>
        <pt x="408" y="771" on="0"/>
        <pt x="307" y="730" on="1"/>
        <pt x="221" y="730" on="1"/>
        <pt x="122" y="770" on="0"/>
      </contour>
    </TTGlyph>
    <TTGlyph name="Ucircumflex" xMin="43" yMin="0" xMax="483" yMax="878">
      <contour>
        <pt x="221" y="116" on="1"/>
        <pt x="305" y="116" on="1"/>
        <pt x="327" y="140" on="0"/>
        <pt x="346" y="189" on="0"/>
        <pt x="346" y="237" on="1"/>
        <pt x="346" y="700" on="1"/>
        <pt x="483" y="700" on="1"/>
        <pt x="483" y="287" on="1"/>
        <pt x="483" y="236" on="0"/>
        <pt x="478" y="179" on="0"/>
        <pt x="468" y="138" on="1"/>
        <pt x="451" y="65" on="0"/>
        <pt x="374" y="0" on="1"/>
        <pt x="152" y="0" on="1"/>
        <pt x="75" y="63" on="0"/>
        <pt x="58" y="138" on="1"/>
        <pt x="43" y="199" on="0"/>
        <pt x="43" y="287" on="1"/>
        <pt x="43" y="700" on="1"/>
        <pt x="180" y="700" on="1"/>
        <pt x="180" y="237" on="1"/>
        <pt x="180" y="189" on="0"/>
        <pt x="199" y="140" on="0"/>
      </contour>
      <contour>
        <pt x="211" y="878" on="1"/>
        <pt x="317" y="878" on="1"/>
        <pt x="408" y="767" on="1"/>
        <pt x="349" y="728" on="1"/>
        <pt x="263" y="786" on="1"/>
        <pt x="177" y="729" on="1"/>
        <pt x="118" y="769" on="1"/>
      </contour>
    </TTGlyph>
    <TTGlyph name="Udieresis" xMin="43" yMin="0" xMax="483" yMax="865">
      <contour>
        <pt x="221" y="116" on="1"/>
        <pt x="305" y="116" on="1"/>
        <pt x="327" y="140" on="0"/>
        <pt x="346" y="189" on="0"/>
        <pt x="346" y="237" on="1"/>
        <pt x="346" y="700" on="1"/>
        <pt x="483" y="700" on="1"/>
        <pt x="483" y="287" on="1"/>
        <pt x="483" y="236" on="0"/>
        <pt x="478" y="179" on="0"/>
        <pt x="468" y="138" on="1"/>
        <pt x="451" y="65" on="0"/>
        <pt x="374" y="0" on="1"/>
        <pt x="152" y="0" on="1"/>
        <pt x="75" y="63" on="0"/>
        <pt x="58" y="138" on="1"/>
        <pt x="43" y="199" on="0"/>
        <pt x="43" y="287" on="1"/>
        <pt x="43" y="700" on="1"/>
        <pt x="180" y="700" on="1"/>
        <pt x="180" y="237" on="1"/>
        <pt x="180" y="189" on="0"/>
        <pt x="199" y="140" on="0"/>
      </contour>
      <contour>
        <pt x="111" y="730" on="1"/>
        <pt x="111" y="865" on="1"/>
        <pt x="243" y="865" on="1"/>
        <pt x="243" y="730" on="1"/>
      </contour>
      <contour>
        <pt x="284" y="730" on="1"/>
        <pt x="284" y="865" on="1"/>
        <pt x="416" y="865" on="1"/>
        <pt x="416" y="730" on="1"/>
      </contour>
    </TTGlyph>
    <TTGlyph name="Ugrave" xMin="43" yMin="0" xMax="483" yMax="899">
      <contour>
        <pt x="221" y="116" on="1"/>
        <pt x="305" y="116" on="1"/>
        <pt x="327" y="140" on="0"/>
        <pt x="346" y="189" on="0"/>
        <pt x="346" y="237" on="1"/>
        <pt x="346" y="700" on="1"/>
        <pt x="483" y="700" on="1"/>
        <pt x="483" y="287" on="1"/>
        <pt x="483" y="236" on="0"/>
        <pt x="478" y="179" on="0"/>
        <pt x="468" y="138" on="1"/>
        <pt x="451" y="65" on="0"/>
        <pt x="374" y="0" on="1"/>
        <pt x="152" y="0" on="1"/>
        <pt x="75" y="63" on="0"/>
        <pt x="58" y="138" on="1"/>
        <pt x="43" y="199" on="0"/>
        <pt x="43" y="287" on="1"/>
        <pt x="43" y="700" on="1"/>
        <pt x="180" y="700" on="1"/>
        <pt x="180" y="237" on="1"/>
        <pt x="180" y="189" on="0"/>
        <pt x="199" y="140" on="0"/>
      </contour>
      <contour>
        <pt x="188" y="899" on="1"/>
        <pt x="371" y="817" on="1"/>
        <pt x="339" y="730" on="1"/>
        <pt x="149" y="788" on="1"/>
      </contour>
    </TTGlyph>
    <TTGlyph name="Uhungarumlaut" xMin="43" yMin="0" xMax="483" yMax="959">
      <contour>
        <pt x="221" y="116" on="1"/>
        <pt x="305" y="116" on="1"/>
        <pt x="327" y="140" on="0"/>
        <pt x="346" y="189" on="0"/>
        <pt x="346" y="237" on="1"/>
        <pt x="346" y="700" on="1"/>
        <pt x="483" y="700" on="1"/>
        <pt x="483" y="287" on="1"/>
        <pt x="483" y="236" on="0"/>
        <pt x="478" y="179" on="0"/>
        <pt x="468" y="138" on="1"/>
        <pt x="451" y="65" on="0"/>
        <pt x="374" y="0" on="1"/>
        <pt x="152" y="0" on="1"/>
        <pt x="75" y="63" on="0"/>
        <pt x="58" y="138" on="1"/>
        <pt x="43" y="199" on="0"/>
        <pt x="43" y="287" on="1"/>
        <pt x="43" y="700" on="1"/>
        <pt x="180" y="700" on="1"/>
        <pt x="180" y="237" on="1"/>
        <pt x="180" y="189" on="0"/>
        <pt x="199" y="140" on="0"/>
      </contour>
      <contour>
        <pt x="261" y="779" on="1"/>
        <pt x="377" y="939" on="1"/>
        <pt x="464" y="872" on="1"/>
        <pt x="332" y="729" on="1"/>
      </contour>
      <contour>
        <pt x="116" y="789" on="1"/>
        <pt x="217" y="959" on="1"/>
        <pt x="311" y="900" on="1"/>
        <pt x="192" y="745" on="1"/>
      </contour>
    </TTGlyph>
    <TTGlyph name="Umacron" xMin="43" yMin="0" xMax="483" yMax="838">
      <contour>
        <pt x="221" y="116" on="1"/>
        <pt x="305" y="116" on="1"/>
        <pt x="327" y="140" on="0"/>
        <pt x="346" y="189" on="0"/>
        <pt x="346" y="237" on="1"/>
        <pt x="346" y="700" on="1"/>
        <pt x="483" y="700" on="1"/>
        <pt x="483" y="287" on="1"/>
        <pt x="483" y="236" on="0"/>
        <pt x="478" y="179" on="0"/>
        <pt x="468" y="138" on="1"/>
        <pt x="451" y="65" on="0"/>
        <pt x="374" y="0" on="1"/>
        <pt x="152" y="0" on="1"/>
        <pt x="75" y="63" on="0"/>
        <pt x="58" y="138" on="1"/>
        <pt x="43" y="199" on="0"/>
        <pt x="43" y="287" on="1"/>
        <pt x="43" y="700" on="1"/>
        <pt x="180" y="700" on="1"/>
        <pt x="180" y="237" on="1"/>
        <pt x="180" y="189" on="0"/>
        <pt x="199" y="140" on="0"/>
      </contour>
      <contour>
        <pt x="137" y="738" on="1"/>
        <pt x="137" y="838" on="1"/>
        <pt x="389" y="838" on="1"/>
        <pt x="389" y="738" on="1"/>
      </contour>
    </TTGlyph>
    <TTGlyph name="Uogonek" xMin="43" yMin="-227" xMax="483" yMax="700">
      <contour>
        <pt x="221" y="116" on="1"/>
        <pt x="305" y="116" on="1"/>
        <pt x="327" y="140" on="0"/>
        <pt x="346" y="189" on="0"/>
        <pt x="346" y="237" on="1"/>
        <pt x="346" y="700" on="1"/>
        <pt x="483" y="700" on="1"/>
        <pt x="483" y="287" on="1"/>
        <pt x="483" y="182" on="0"/>
        <pt x="449" y="85" on="0"/>
        <pt x="361" y="-46" on="0"/>
        <pt x="318" y="-127" on="1"/>
        <pt x="322" y="-132" on="1"/>
        <pt x="388" y="-132" on="1"/>
        <pt x="388" y="-227" on="1"/>
        <pt x="235" y="-227" on="1"/>
        <pt x="198" y="-204" on="0"/>
        <pt x="198" y="-159" on="1"/>
        <pt x="198" y="-130" on="0"/>
        <pt x="210" y="-106" on="1"/>
        <pt x="224" y="-77" on="1"/>
        <pt x="228" y="-70" on="0"/>
        <pt x="246" y="-40" on="1"/>
        <pt x="269" y="0" on="1"/>
        <pt x="152" y="0" on="1"/>
        <pt x="75" y="63" on="0"/>
        <pt x="58" y="138" on="1"/>
        <pt x="43" y="199" on="0"/>
        <pt x="43" y="287" on="1"/>
        <pt x="43" y="700" on="1"/>
        <pt x="180" y="700" on="1"/>
        <pt x="180" y="237" on="1"/>
        <pt x="180" y="189" on="0"/>
        <pt x="199" y="140" on="0"/>
      </contour>
    </TTGlyph>
    <TTGlyph name="Uring" xMin="43" yMin="0" xMax="483" yMax="974">
      <contour>
        <pt x="221" y="116" on="1"/>
        <pt x="305" y="116" on="1"/>
        <pt x="327" y="140" on="0"/>
        <pt x="346" y="189" on="0"/>
        <pt x="346" y="237" on="1"/>
        <pt x="346" y="700" on="1"/>
        <pt x="483" y="700" on="1"/>
        <pt x="483" y="287" on="1"/>
        <pt x="483" y="236" on="0"/>
        <pt x="478" y="179" on="0"/>
        <pt x="468" y="138" on="1"/>
        <pt x="451" y="65" on="0"/>
        <pt x="374" y="0" on="1"/>
        <pt x="152" y="0" on="1"/>
        <pt x="75" y="63" on="0"/>
        <pt x="58" y="138" on="1"/>
        <pt x="43" y="199" on="0"/>
        <pt x="43" y="287" on="1"/>
        <pt x="43" y="700" on="1"/>
        <pt x="180" y="700" on="1"/>
        <pt x="180" y="237" on="1"/>
        <pt x="180" y="189" on="0"/>
        <pt x="199" y="140" on="0"/>
      </contour>
      <contour>
        <pt x="218" y="974" on="1"/>
        <pt x="308" y="974" on="1"/>
        <pt x="388" y="935" on="0"/>
        <pt x="388" y="849" on="1"/>
        <pt x="388" y="811" on="0"/>
        <pt x="346" y="746" on="0"/>
        <pt x="308" y="728" on="1"/>
        <pt x="218" y="728" on="1"/>
        <pt x="180" y="746" on="0"/>
        <pt x="138" y="811" on="0"/>
        <pt x="138" y="849" on="1"/>
        <pt x="138" y="935" on="0"/>
      </contour>
      <contour>
        <pt x="244" y="801" on="1"/>
        <pt x="281" y="801" on="1"/>
        <pt x="302" y="822" on="0"/>
        <pt x="302" y="880" on="0"/>
        <pt x="281" y="899" on="1"/>
        <pt x="244" y="899" on="1"/>
        <pt x="224" y="879" on="0"/>
        <pt x="224" y="821" on="0"/>
      </contour>
    </TTGlyph>
    <TTGlyph name="Utilde" xMin="43" yMin="0" xMax="483" yMax="868">
      <contour>
        <pt x="221" y="116" on="1"/>
        <pt x="305" y="116" on="1"/>
        <pt x="327" y="140" on="0"/>
        <pt x="346" y="189" on="0"/>
        <pt x="346" y="237" on="1"/>
        <pt x="346" y="700" on="1"/>
        <pt x="483" y="700" on="1"/>
        <pt x="483" y="287" on="1"/>
        <pt x="483" y="236" on="0"/>
        <pt x="478" y="179" on="0"/>
        <pt x="468" y="138" on="1"/>
        <pt x="451" y="65" on="0"/>
        <pt x="374" y="0" on="1"/>
        <pt x="152" y="0" on="1"/>
        <pt x="75" y="63" on="0"/>
        <pt x="58" y="138" on="1"/>
        <pt x="43" y="199" on="0"/>
        <pt x="43" y="287" on="1"/>
        <pt x="43" y="700" on="1"/>
        <pt x="180" y="700" on="1"/>
        <pt x="180" y="237" on="1"/>
        <pt x="180" y="189" on="0"/>
        <pt x="199" y="140" on="0"/>
      </contour>
      <contour>
        <pt x="310" y="734" on="1"/>
        <pt x="214" y="759" on="1"/>
        <pt x="193" y="759" on="0"/>
        <pt x="132" y="736" on="1"/>
        <pt x="132" y="841" on="1"/>
        <pt x="196" y="868" on="0"/>
        <pt x="218" y="868" on="1"/>
        <pt x="315" y="841" on="1"/>
        <pt x="335" y="841" on="0"/>
        <pt x="394" y="855" on="1"/>
        <pt x="394" y="748" on="1"/>
        <pt x="333" y="733" on="0"/>
      </contour>
    </TTGlyph>
    <TTGlyph name="V" xMin="5" yMin="0" xMax="477" yMax="700">
      <contour>
        <pt x="477" y="700" on="1"/>
        <pt x="335" y="0" on="1"/>
        <pt x="147" y="0" on="1"/>
        <pt x="5" y="700" on="1"/>
        <pt x="149" y="700" on="1"/>
        <pt x="204" y="376" on="1"/>
        <pt x="238" y="166" on="1"/>
        <pt x="244" y="166" on="1"/>
        <pt x="278" y="376" on="1"/>
        <pt x="333" y="700" on="1"/>
      </contour>
    </TTGlyph>
    <TTGlyph name="W" xMin="10" yMin="0" xMax="634" yMax="700">
      <contour>
        <pt x="393" y="0" on="1"/>
        <pt x="323" y="413" on="1"/>
        <pt x="319" y="413" on="1"/>
        <pt x="247" y="0" on="1"/>
        <pt x="107" y="0" on="1"/>
        <pt x="10" y="700" on="1"/>
        <pt x="144" y="700" on="1"/>
        <pt x="172" y="494" on="1"/>
        <pt x="193" y="262" on="1"/>
        <pt x="198" y="262" on="1"/>
        <pt x="235" y="493" on="1"/>
        <pt x="266" y="700" on="1"/>
        <pt x="379" y="700" on="1"/>
        <pt x="409" y="493" on="1"/>
        <pt x="447" y="262" on="1"/>
        <pt x="452" y="262" on="1"/>
        <pt x="472" y="494" on="1"/>
        <pt x="500" y="700" on="1"/>
        <pt x="634" y="700" on="1"/>
        <pt x="537" y="0" on="1"/>
      </contour>
    </TTGlyph>
    <TTGlyph name="Wacute" xMin="10" yMin="0" xMax="634" yMax="899">
      <contour>
        <pt x="393" y="0" on="1"/>
        <pt x="323" y="413" on="1"/>
        <pt x="319" y="413" on="1"/>
        <pt x="247" y="0" on="1"/>
        <pt x="107" y="0" on="1"/>
        <pt x="10" y="700" on="1"/>
        <pt x="144" y="700" on="1"/>
        <pt x="172" y="494" on="1"/>
        <pt x="193" y="262" on="1"/>
        <pt x="198" y="262" on="1"/>
        <pt x="235" y="493" on="1"/>
        <pt x="266" y="700" on="1"/>
        <pt x="379" y="700" on="1"/>
        <pt x="409" y="493" on="1"/>
        <pt x="447" y="262" on="1"/>
        <pt x="452" y="262" on="1"/>
        <pt x="472" y="494" on="1"/>
        <pt x="500" y="700" on="1"/>
        <pt x="634" y="700" on="1"/>
        <pt x="537" y="0" on="1"/>
      </contour>
      <contour>
        <pt x="226" y="817" on="1"/>
        <pt x="409" y="899" on="1"/>
        <pt x="447" y="788" on="1"/>
        <pt x="258" y="730" on="1"/>
      </contour>
    </TTGlyph>
    <TTGlyph name="Wcircumflex" xMin="10" yMin="0" xMax="634" yMax="878">
      <contour>
        <pt x="393" y="0" on="1"/>
        <pt x="323" y="413" on="1"/>
        <pt x="319" y="413" on="1"/>
        <pt x="247" y="0" on="1"/>
        <pt x="107" y="0" on="1"/>
        <pt x="10" y="700" on="1"/>
        <pt x="144" y="700" on="1"/>
        <pt x="172" y="494" on="1"/>
        <pt x="193" y="262" on="1"/>
        <pt x="198" y="262" on="1"/>
        <pt x="235" y="493" on="1"/>
        <pt x="266" y="700" on="1"/>
        <pt x="379" y="700" on="1"/>
        <pt x="409" y="493" on="1"/>
        <pt x="447" y="262" on="1"/>
        <pt x="452" y="262" on="1"/>
        <pt x="472" y="494" on="1"/>
        <pt x="500" y="700" on="1"/>
        <pt x="634" y="700" on="1"/>
        <pt x="537" y="0" on="1"/>
      </contour>
      <contour>
        <pt x="270" y="878" on="1"/>
        <pt x="376" y="878" on="1"/>
        <pt x="467" y="767" on="1"/>
        <pt x="408" y="728" on="1"/>
        <pt x="322" y="786" on="1"/>
        <pt x="236" y="729" on="1"/>
        <pt x="177" y="769" on="1"/>
      </contour>
    </TTGlyph>
    <TTGlyph name="Wdieresis" xMin="10" yMin="0" xMax="634" yMax="865">
      <contour>
        <pt x="393" y="0" on="1"/>
        <pt x="323" y="413" on="1"/>
        <pt x="319" y="413" on="1"/>
        <pt x="247" y="0" on="1"/>
        <pt x="107" y="0" on="1"/>
        <pt x="10" y="700" on="1"/>
        <pt x="144" y="700" on="1"/>
        <pt x="172" y="494" on="1"/>
        <pt x="193" y="262" on="1"/>
        <pt x="198" y="262" on="1"/>
        <pt x="235" y="493" on="1"/>
        <pt x="266" y="700" on="1"/>
        <pt x="379" y="700" on="1"/>
        <pt x="409" y="493" on="1"/>
        <pt x="447" y="262" on="1"/>
        <pt x="452" y="262" on="1"/>
        <pt x="472" y="494" on="1"/>
        <pt x="500" y="700" on="1"/>
        <pt x="634" y="700" on="1"/>
        <pt x="537" y="0" on="1"/>
      </contour>
      <contour>
        <pt x="170" y="730" on="1"/>
        <pt x="170" y="865" on="1"/>
        <pt x="302" y="865" on="1"/>
        <pt x="302" y="730" on="1"/>
      </contour>
      <contour>
        <pt x="343" y="730" on="1"/>
        <pt x="343" y="865" on="1"/>
        <pt x="475" y="865" on="1"/>
        <pt x="475" y="730" on="1"/>
      </contour>
    </TTGlyph>
    <TTGlyph name="Wgrave" xMin="10" yMin="0" xMax="634" yMax="899">
      <contour>
        <pt x="393" y="0" on="1"/>
        <pt x="323" y="413" on="1"/>
        <pt x="319" y="413" on="1"/>
        <pt x="247" y="0" on="1"/>
        <pt x="107" y="0" on="1"/>
        <pt x="10" y="700" on="1"/>
        <pt x="144" y="700" on="1"/>
        <pt x="172" y="494" on="1"/>
        <pt x="193" y="262" on="1"/>
        <pt x="198" y="262" on="1"/>
        <pt x="235" y="493" on="1"/>
        <pt x="266" y="700" on="1"/>
        <pt x="379" y="700" on="1"/>
        <pt x="409" y="493" on="1"/>
        <pt x="447" y="262" on="1"/>
        <pt x="452" y="262" on="1"/>
        <pt x="472" y="494" on="1"/>
        <pt x="500" y="700" on="1"/>
        <pt x="634" y="700" on="1"/>
        <pt x="537" y="0" on="1"/>
      </contour>
      <contour>
        <pt x="247" y="899" on="1"/>
        <pt x="430" y="817" on="1"/>
        <pt x="398" y="730" on="1"/>
        <pt x="208" y="788" on="1"/>
      </contour>
    </TTGlyph>
    <TTGlyph name="X" xMin="13" yMin="0" xMax="449" yMax="700">
      <contour>
        <pt x="158" y="700" on="1"/>
        <pt x="229" y="415" on="1"/>
        <pt x="233" y="415" on="1"/>
        <pt x="304" y="700" on="1"/>
        <pt x="442" y="700" on="1"/>
        <pt x="346" y="366" on="1"/>
        <pt x="449" y="0" on="1"/>
        <pt x="307" y="0" on="1"/>
        <pt x="233" y="300" on="1"/>
        <pt x="229" y="300" on="1"/>
        <pt x="155" y="0" on="1"/>
        <pt x="13" y="0" on="1"/>
        <pt x="116" y="366" on="1"/>
        <pt x="20" y="700" on="1"/>
      </contour>
    </TTGlyph>
    <TTGlyph name="Y" xMin="0" yMin="0" xMax="442" yMax="700">
      <contour>
        <pt x="294" y="0" on="1"/>
        <pt x="148" y="0" on="1"/>
        <pt x="148" y="233" on="1"/>
        <pt x="0" y="700" on="1"/>
        <pt x="136" y="700" on="1"/>
        <pt x="198" y="487" on="1"/>
        <pt x="219" y="364" on="1"/>
        <pt x="223" y="364" on="1"/>
        <pt x="244" y="487" on="1"/>
        <pt x="306" y="700" on="1"/>
        <pt x="442" y="700" on="1"/>
        <pt x="294" y="233" on="1"/>
      </contour>
    </TTGlyph>
    <TTGlyph name="Yacute" xMin="0" yMin="0" xMax="442" yMax="899">
      <contour>
        <pt x="294" y="0" on="1"/>
        <pt x="148" y="0" on="1"/>
        <pt x="148" y="233" on="1"/>
        <pt x="0" y="700" on="1"/>
        <pt x="136" y="700" on="1"/>
        <pt x="198" y="487" on="1"/>
        <pt x="219" y="364" on="1"/>
        <pt x="223" y="364" on="1"/>
        <pt x="244" y="487" on="1"/>
        <pt x="306" y="700" on="1"/>
        <pt x="442" y="700" on="1"/>
        <pt x="294" y="233" on="1"/>
      </contour>
      <contour>
        <pt x="146" y="817" on="1"/>
        <pt x="329" y="899" on="1"/>
        <pt x="367" y="788" on="1"/>
        <pt x="178" y="730" on="1"/>
      </contour>
    </TTGlyph>
    <TTGlyph name="Ycircumflex" xMin="0" yMin="0" xMax="442" yMax="878">
      <contour>
        <pt x="294" y="0" on="1"/>
        <pt x="148" y="0" on="1"/>
        <pt x="148" y="233" on="1"/>
        <pt x="0" y="700" on="1"/>
        <pt x="136" y="700" on="1"/>
        <pt x="198" y="487" on="1"/>
        <pt x="219" y="364" on="1"/>
        <pt x="223" y="364" on="1"/>
        <pt x="244" y="487" on="1"/>
        <pt x="306" y="700" on="1"/>
        <pt x="442" y="700" on="1"/>
        <pt x="294" y="233" on="1"/>
      </contour>
      <contour>
        <pt x="170" y="878" on="1"/>
        <pt x="276" y="878" on="1"/>
        <pt x="367" y="767" on="1"/>
        <pt x="308" y="728" on="1"/>
        <pt x="222" y="786" on="1"/>
        <pt x="136" y="729" on="1"/>
        <pt x="77" y="769" on="1"/>
      </contour>
    </TTGlyph>
    <TTGlyph name="Ydieresis" xMin="0" yMin="0" xMax="442" yMax="865">
      <contour>
        <pt x="294" y="0" on="1"/>
        <pt x="148" y="0" on="1"/>
        <pt x="148" y="233" on="1"/>
        <pt x="0" y="700" on="1"/>
        <pt x="136" y="700" on="1"/>
        <pt x="198" y="487" on="1"/>
        <pt x="219" y="364" on="1"/>
        <pt x="223" y="364" on="1"/>
        <pt x="244" y="487" on="1"/>
        <pt x="306" y="700" on="1"/>
        <pt x="442" y="700" on="1"/>
        <pt x="294" y="233" on="1"/>
      </contour>
      <contour>
        <pt x="70" y="730" on="1"/>
        <pt x="70" y="865" on="1"/>
        <pt x="202" y="865" on="1"/>
        <pt x="202" y="730" on="1"/>
      </contour>
      <contour>
        <pt x="243" y="730" on="1"/>
        <pt x="243" y="865" on="1"/>
        <pt x="375" y="865" on="1"/>
        <pt x="375" y="730" on="1"/>
      </contour>
    </TTGlyph>
    <TTGlyph name="Ygrave" xMin="0" yMin="0" xMax="442" yMax="899">
      <contour>
        <pt x="294" y="0" on="1"/>
        <pt x="148" y="0" on="1"/>
        <pt x="148" y="233" on="1"/>
        <pt x="0" y="700" on="1"/>
        <pt x="136" y="700" on="1"/>
        <pt x="198" y="487" on="1"/>
        <pt x="219" y="364" on="1"/>
        <pt x="223" y="364" on="1"/>
        <pt x="244" y="487" on="1"/>
        <pt x="306" y="700" on="1"/>
        <pt x="442" y="700" on="1"/>
        <pt x="294" y="233" on="1"/>
      </contour>
      <contour>
        <pt x="117" y="899" on="1"/>
        <pt x="300" y="817" on="1"/>
        <pt x="268" y="730" on="1"/>
        <pt x="78" y="788" on="1"/>
      </contour>
    </TTGlyph>
    <TTGlyph name="Z" xMin="24" yMin="0" xMax="407" yMax="700">
      <contour>
        <pt x="406" y="583" on="1"/>
        <pt x="169" y="116" on="1"/>
        <pt x="407" y="116" on="1"/>
        <pt x="407" y="0" on="1"/>
        <pt x="24" y="0" on="1"/>
        <pt x="24" y="114" on="1"/>
        <pt x="260" y="580" on="1"/>
        <pt x="24" y="580" on="1"/>
        <pt x="24" y="700" on="1"/>
        <pt x="406" y="700" on="1"/>
      </contour>
    </TTGlyph>
    <TTGlyph name="Zacute" xMin="24" yMin="0" xMax="407" yMax="899">
      <contour>
        <pt x="169" y="116" on="1"/>
        <pt x="406" y="583" on="1"/>
        <pt x="406" y="700" on="1"/>
        <pt x="24" y="700" on="1"/>
        <pt x="24" y="580" on="1"/>
        <pt x="260" y="580" on="1"/>
        <pt x="24" y="114" on="1"/>
        <pt x="24" y="0" on="1"/>
        <pt x="407" y="0" on="1"/>
        <pt x="407" y="116" on="1"/>
      </contour>
      <contour>
        <pt x="116" y="817" on="1"/>
        <pt x="299" y="899" on="1"/>
        <pt x="337" y="788" on="1"/>
        <pt x="148" y="730" on="1"/>
      </contour>
    </TTGlyph>
    <TTGlyph name="Zcaron" xMin="24" yMin="0" xMax="407" yMax="878">
      <contour>
        <pt x="169" y="116" on="1"/>
        <pt x="406" y="583" on="1"/>
        <pt x="406" y="700" on="1"/>
        <pt x="24" y="700" on="1"/>
        <pt x="24" y="580" on="1"/>
        <pt x="260" y="580" on="1"/>
        <pt x="24" y="114" on="1"/>
        <pt x="24" y="0" on="1"/>
        <pt x="407" y="0" on="1"/>
        <pt x="407" y="116" on="1"/>
      </contour>
      <contour>
        <pt x="276" y="728" on="1"/>
        <pt x="170" y="728" on="1"/>
        <pt x="77" y="837" on="1"/>
        <pt x="136" y="877" on="1"/>
        <pt x="222" y="820" on="1"/>
        <pt x="308" y="878" on="1"/>
        <pt x="367" y="839" on="1"/>
      </contour>
    </TTGlyph>
    <TTGlyph name="Zdotaccent" xMin="24" yMin="0" xMax="407" yMax="865">
      <contour>
        <pt x="169" y="116" on="1"/>
        <pt x="406" y="583" on="1"/>
        <pt x="406" y="700" on="1"/>
        <pt x="24" y="700" on="1"/>
        <pt x="24" y="580" on="1"/>
        <pt x="260" y="580" on="1"/>
        <pt x="24" y="114" on="1"/>
        <pt x="24" y="0" on="1"/>
        <pt x="407" y="0" on="1"/>
        <pt x="407" y="116" on="1"/>
      </contour>
      <contour>
        <pt x="157" y="865" on="1"/>
        <pt x="289" y="865" on="1"/>
        <pt x="289" y="730" on="1"/>
        <pt x="157" y="730" on="1"/>
      </contour>
    </TTGlyph>
    <TTGlyph name="a" xMin="29" yMin="0" xMax="419" yMax="511">
      <contour>
        <pt x="284" y="231" on="1"/>
        <pt x="177" y="231" on="1"/>
        <pt x="156" y="205" on="0"/>
        <pt x="156" y="127" on="0"/>
        <pt x="178" y="105" on="1"/>
        <pt x="284" y="105" on="1"/>
      </contour>
      <contour>
        <pt x="69" y="511" on="1"/>
        <pt x="317" y="511" on="1"/>
        <pt x="377" y="475" on="0"/>
        <pt x="415" y="382" on="0"/>
        <pt x="415" y="302" on="1"/>
        <pt x="415" y="152" on="1"/>
        <pt x="415" y="69" on="0"/>
        <pt x="419" y="0" on="1"/>
        <pt x="305" y="0" on="1"/>
        <pt x="287" y="36" on="1"/>
        <pt x="248" y="0" on="0"/>
        <pt x="177" y="0" on="1"/>
        <pt x="114" y="0" on="1"/>
        <pt x="29" y="56" on="0"/>
        <pt x="29" y="267" on="0"/>
        <pt x="116" y="328" on="1"/>
        <pt x="210" y="328" on="1"/>
        <pt x="249" y="328" on="0"/>
        <pt x="283" y="304" on="1"/>
        <pt x="283" y="354" on="1"/>
        <pt x="283" y="393" on="0"/>
        <pt x="249" y="406" on="1"/>
        <pt x="69" y="406" on="1"/>
      </contour>
    </TTGlyph>
    <TTGlyph name="aacute" xMin="29" yMin="0" xMax="419" yMax="727">
      <component glyphName="a" x="0" y="0" flags="0x1004"/>
      <component glyphName="acute" x="-20" y="0" flags="0x1004"/>
    </TTGlyph>
    <TTGlyph name="abreve" xMin="29" yMin="0" xMax="419" yMax="707">
      <contour>
        <pt x="284" y="231" on="1"/>
        <pt x="177" y="231" on="1"/>
        <pt x="156" y="205" on="0"/>
        <pt x="156" y="127" on="0"/>
        <pt x="178" y="105" on="1"/>
        <pt x="284" y="105" on="1"/>
      </contour>
      <contour>
        <pt x="69" y="511" on="1"/>
        <pt x="317" y="511" on="1"/>
        <pt x="377" y="475" on="0"/>
        <pt x="415" y="382" on="0"/>
        <pt x="415" y="302" on="1"/>
        <pt x="415" y="152" on="1"/>
        <pt x="415" y="69" on="0"/>
        <pt x="419" y="0" on="1"/>
        <pt x="305" y="0" on="1"/>
        <pt x="287" y="36" on="1"/>
        <pt x="248" y="0" on="0"/>
        <pt x="177" y="0" on="1"/>
        <pt x="114" y="0" on="1"/>
        <pt x="29" y="56" on="0"/>
        <pt x="29" y="267" on="0"/>
        <pt x="116" y="328" on="1"/>
        <pt x="210" y="328" on="1"/>
        <pt x="249" y="328" on="0"/>
        <pt x="283" y="304" on="1"/>
        <pt x="283" y="354" on="1"/>
        <pt x="283" y="393" on="0"/>
        <pt x="249" y="406" on="1"/>
        <pt x="69" y="406" on="1"/>
      </contour>
      <contour>
        <pt x="61" y="707" on="1"/>
        <pt x="155" y="707" on="1"/>
        <pt x="162" y="665" on="0"/>
        <pt x="178" y="647" on="0"/>
        <pt x="186" y="643" on="1"/>
        <pt x="234" y="643" on="1"/>
        <pt x="251" y="652" on="0"/>
        <pt x="256" y="667" on="1"/>
        <pt x="262" y="688" on="0"/>
        <pt x="265" y="707" on="1"/>
        <pt x="359" y="707" on="1"/>
        <pt x="352" y="588" on="0"/>
        <pt x="254" y="548" on="1"/>
        <pt x="166" y="548" on="1"/>
        <pt x="68" y="588" on="0"/>
      </contour>
    </TTGlyph>
    <TTGlyph name="acircumflex" xMin="29" yMin="0" xMax="419" yMax="718">
      <component glyphName="a" x="0" y="0" flags="0x1004"/>
      <component glyphName="circumflex" x="-30" y="0" flags="0x1004"/>
    </TTGlyph>
    <TTGlyph name="acute" xMin="146" yMin="546" xMax="364" yMax="727">
      <contour>
        <pt x="146" y="627" on="1"/>
        <pt x="317" y="727" on="1"/>
        <pt x="364" y="624" on="1"/>
        <pt x="186" y="546" on="1"/>
      </contour>
    </TTGlyph>
    <TTGlyph name="acute.cap" xMin="143" yMin="730" xMax="364" yMax="899">
      <contour>
        <pt x="143" y="817" on="1"/>
        <pt x="326" y="899" on="1"/>
        <pt x="364" y="788" on="1"/>
        <pt x="175" y="730" on="1"/>
      </contour>
    </TTGlyph>
    <TTGlyph name="adieresis" xMin="29" yMin="0" xMax="419" yMax="700">
      <contour>
        <pt x="284" y="231" on="1"/>
        <pt x="177" y="231" on="1"/>
        <pt x="156" y="205" on="0"/>
        <pt x="156" y="127" on="0"/>
        <pt x="178" y="105" on="1"/>
        <pt x="284" y="105" on="1"/>
      </contour>
      <contour>
        <pt x="69" y="511" on="1"/>
        <pt x="317" y="511" on="1"/>
        <pt x="377" y="475" on="0"/>
        <pt x="415" y="382" on="0"/>
        <pt x="415" y="302" on="1"/>
        <pt x="415" y="152" on="1"/>
        <pt x="415" y="69" on="0"/>
        <pt x="419" y="0" on="1"/>
        <pt x="305" y="0" on="1"/>
        <pt x="287" y="36" on="1"/>
        <pt x="248" y="0" on="0"/>
        <pt x="177" y="0" on="1"/>
        <pt x="114" y="0" on="1"/>
        <pt x="29" y="56" on="0"/>
        <pt x="29" y="267" on="0"/>
        <pt x="116" y="328" on="1"/>
        <pt x="210" y="328" on="1"/>
        <pt x="249" y="328" on="0"/>
        <pt x="283" y="304" on="1"/>
        <pt x="283" y="354" on="1"/>
        <pt x="283" y="393" on="0"/>
        <pt x="249" y="406" on="1"/>
        <pt x="69" y="406" on="1"/>
      </contour>
      <contour>
        <pt x="68" y="565" on="1"/>
        <pt x="68" y="700" on="1"/>
        <pt x="200" y="700" on="1"/>
        <pt x="200" y="565" on="1"/>
      </contour>
      <contour>
        <pt x="241" y="565" on="1"/>
        <pt x="241" y="700" on="1"/>
        <pt x="373" y="700" on="1"/>
        <pt x="373" y="565" on="1"/>
      </contour>
    </TTGlyph>
    <TTGlyph name="ae" xMin="29" yMin="0" xMax="684" yMax="511">
      <contour>
        <pt x="664" y="104" on="1"/>
        <pt x="664" y="0" on="1"/>
        <pt x="410" y="0" on="1"/>
        <pt x="390" y="13" on="0"/>
        <pt x="364" y="39" on="1"/>
        <pt x="320" y="0" on="0"/>
        <pt x="257" y="0" on="1"/>
        <pt x="114" y="0" on="1"/>
        <pt x="29" y="56" on="0"/>
        <pt x="29" y="267" on="0"/>
        <pt x="116" y="328" on="1"/>
        <pt x="210" y="328" on="1"/>
        <pt x="249" y="328" on="0"/>
        <pt x="283" y="304" on="1"/>
        <pt x="283" y="354" on="1"/>
        <pt x="283" y="393" on="0"/>
        <pt x="249" y="406" on="1"/>
        <pt x="69" y="406" on="1"/>
        <pt x="69" y="511" on="1"/>
        <pt x="308" y="511" on="1"/>
        <pt x="341" y="497" on="0"/>
        <pt x="362" y="467" on="1"/>
        <pt x="378" y="485" on="0"/>
        <pt x="412" y="511" on="1"/>
        <pt x="569" y="511" on="1"/>
        <pt x="636" y="462" on="0"/>
        <pt x="684" y="352" on="0"/>
        <pt x="684" y="240" on="0"/>
        <pt x="675" y="200" on="1"/>
        <pt x="426" y="200" on="1"/>
        <pt x="429" y="177" on="0"/>
        <pt x="458" y="117" on="0"/>
        <pt x="475" y="104" on="1"/>
      </contour>
      <contour>
        <pt x="284" y="231" on="1"/>
        <pt x="177" y="231" on="1"/>
        <pt x="156" y="205" on="0"/>
        <pt x="156" y="127" on="0"/>
        <pt x="178" y="105" on="1"/>
        <pt x="317" y="105" on="1"/>
        <pt x="287" y="164" on="0"/>
      </contour>
      <contour>
        <pt x="528" y="406" on="1"/>
        <pt x="453" y="406" on="1"/>
        <pt x="438" y="388" on="0"/>
        <pt x="419" y="324" on="0"/>
        <pt x="419" y="294" on="1"/>
        <pt x="562" y="294" on="1"/>
        <pt x="562" y="321" on="0"/>
        <pt x="543" y="390" on="0"/>
      </contour>
    </TTGlyph>
    <TTGlyph name="aeacute" xMin="29" yMin="0" xMax="684" yMax="727">
      <contour>
        <pt x="664" y="104" on="1"/>
        <pt x="664" y="0" on="1"/>
        <pt x="410" y="0" on="1"/>
        <pt x="390" y="13" on="0"/>
        <pt x="364" y="39" on="1"/>
        <pt x="320" y="0" on="0"/>
        <pt x="257" y="0" on="1"/>
        <pt x="114" y="0" on="1"/>
        <pt x="29" y="56" on="0"/>
        <pt x="29" y="267" on="0"/>
        <pt x="116" y="328" on="1"/>
        <pt x="210" y="328" on="1"/>
        <pt x="249" y="328" on="0"/>
        <pt x="283" y="304" on="1"/>
        <pt x="283" y="354" on="1"/>
        <pt x="283" y="393" on="0"/>
        <pt x="249" y="406" on="1"/>
        <pt x="69" y="406" on="1"/>
        <pt x="69" y="511" on="1"/>
        <pt x="308" y="511" on="1"/>
        <pt x="341" y="497" on="0"/>
        <pt x="362" y="467" on="1"/>
        <pt x="378" y="485" on="0"/>
        <pt x="412" y="511" on="1"/>
        <pt x="569" y="511" on="1"/>
        <pt x="636" y="462" on="0"/>
        <pt x="684" y="352" on="0"/>
        <pt x="684" y="240" on="0"/>
        <pt x="675" y="200" on="1"/>
        <pt x="426" y="200" on="1"/>
        <pt x="429" y="177" on="0"/>
        <pt x="458" y="117" on="0"/>
        <pt x="475" y="104" on="1"/>
      </contour>
      <contour>
        <pt x="284" y="231" on="1"/>
        <pt x="177" y="231" on="1"/>
        <pt x="156" y="205" on="0"/>
        <pt x="156" y="127" on="0"/>
        <pt x="178" y="105" on="1"/>
        <pt x="317" y="105" on="1"/>
        <pt x="287" y="164" on="0"/>
      </contour>
      <contour>
        <pt x="528" y="406" on="1"/>
        <pt x="453" y="406" on="1"/>
        <pt x="438" y="388" on="0"/>
        <pt x="419" y="324" on="0"/>
        <pt x="419" y="294" on="1"/>
        <pt x="562" y="294" on="1"/>
        <pt x="562" y="321" on="0"/>
        <pt x="543" y="390" on="0"/>
      </contour>
      <contour>
        <pt x="292" y="627" on="1"/>
        <pt x="463" y="727" on="1"/>
        <pt x="510" y="624" on="1"/>
        <pt x="332" y="546" on="1"/>
      </contour>
    </TTGlyph>
    <TTGlyph name="agrave" xMin="29" yMin="0" xMax="419" yMax="727">
      <component glyphName="a" x="0" y="0" flags="0x1004"/>
      <component glyphName="grave" x="-39" y="0" flags="0x1004"/>
    </TTGlyph>
    <TTGlyph name="amacron" xMin="29" yMin="0" xMax="419" yMax="669">
      <contour>
        <pt x="284" y="231" on="1"/>
        <pt x="177" y="231" on="1"/>
        <pt x="156" y="205" on="0"/>
        <pt x="156" y="127" on="0"/>
        <pt x="178" y="105" on="1"/>
        <pt x="284" y="105" on="1"/>
      </contour>
      <contour>
        <pt x="69" y="511" on="1"/>
        <pt x="317" y="511" on="1"/>
        <pt x="377" y="475" on="0"/>
        <pt x="415" y="382" on="0"/>
        <pt x="415" y="302" on="1"/>
        <pt x="415" y="152" on="1"/>
        <pt x="415" y="69" on="0"/>
        <pt x="419" y="0" on="1"/>
        <pt x="305" y="0" on="1"/>
        <pt x="287" y="36" on="1"/>
        <pt x="248" y="0" on="0"/>
        <pt x="177" y="0" on="1"/>
        <pt x="114" y="0" on="1"/>
        <pt x="29" y="56" on="0"/>
        <pt x="29" y="267" on="0"/>
        <pt x="116" y="328" on="1"/>
        <pt x="210" y="328" on="1"/>
        <pt x="249" y="328" on="0"/>
        <pt x="283" y="304" on="1"/>
        <pt x="283" y="354" on="1"/>
        <pt x="283" y="393" on="0"/>
        <pt x="249" y="406" on="1"/>
        <pt x="69" y="406" on="1"/>
      </contour>
      <contour>
        <pt x="84" y="569" on="1"/>
        <pt x="84" y="669" on="1"/>
        <pt x="336" y="669" on="1"/>
        <pt x="336" y="569" on="1"/>
      </contour>
    </TTGlyph>
    <TTGlyph name="ampersand" xMin="30" yMin="0" xMax="430" yMax="655">
      <contour>
        <pt x="161" y="421" on="1"/>
        <pt x="148" y="451" on="1"/>
        <pt x="127" y="492" on="0"/>
        <pt x="127" y="539" on="1"/>
        <pt x="127" y="625" on="0"/>
        <pt x="198" y="655" on="1"/>
        <pt x="359" y="655" on="1"/>
        <pt x="359" y="535" on="1"/>
        <pt x="256" y="535" on="1"/>
        <pt x="254" y="529" on="1"/>
        <pt x="430" y="111" on="1"/>
        <pt x="430" y="0" on="1"/>
        <pt x="152" y="0" on="1"/>
        <pt x="95" y="22" on="0"/>
        <pt x="30" y="130" on="0"/>
        <pt x="30" y="262" on="0"/>
        <pt x="96" y="381" on="0"/>
      </contour>
      <contour>
        <pt x="210" y="314" on="1"/>
        <pt x="155" y="267" on="0"/>
        <pt x="155" y="144" on="0"/>
        <pt x="194" y="111" on="1"/>
        <pt x="299" y="111" on="1"/>
      </contour>
    </TTGlyph>
    <TTGlyph name="aogonek" xMin="29" yMin="-227" xMax="420" yMax="511">
      <contour>
        <pt x="69" y="511" on="1"/>
        <pt x="317" y="511" on="1"/>
        <pt x="377" y="475" on="0"/>
        <pt x="415" y="382" on="0"/>
        <pt x="415" y="302" on="1"/>
        <pt x="415" y="152" on="1"/>
        <pt x="415" y="69" on="0"/>
        <pt x="419" y="0" on="1"/>
        <pt x="364" y="-103" on="1"/>
        <pt x="358" y="-113" on="0"/>
        <pt x="358" y="-127" on="0"/>
        <pt x="368" y="-127" on="1"/>
        <pt x="420" y="-127" on="1"/>
        <pt x="420" y="-227" on="1"/>
        <pt x="267" y="-227" on="1"/>
        <pt x="230" y="-204" on="0"/>
        <pt x="230" y="-159" on="1"/>
        <pt x="230" y="-130" on="0"/>
        <pt x="242" y="-106" on="1"/>
        <pt x="256" y="-77" on="1"/>
        <pt x="260" y="-70" on="0"/>
        <pt x="278" y="-40" on="1"/>
        <pt x="303" y="3" on="1"/>
        <pt x="287" y="36" on="1"/>
        <pt x="248" y="0" on="0"/>
        <pt x="177" y="0" on="1"/>
        <pt x="114" y="0" on="1"/>
        <pt x="29" y="56" on="0"/>
        <pt x="29" y="267" on="0"/>
        <pt x="116" y="328" on="1"/>
        <pt x="210" y="328" on="1"/>
        <pt x="249" y="328" on="0"/>
        <pt x="283" y="304" on="1"/>
        <pt x="283" y="354" on="1"/>
        <pt x="283" y="393" on="0"/>
        <pt x="249" y="406" on="1"/>
        <pt x="69" y="406" on="1"/>
      </contour>
      <contour>
        <pt x="284" y="231" on="1"/>
        <pt x="177" y="231" on="1"/>
        <pt x="156" y="205" on="0"/>
        <pt x="156" y="127" on="0"/>
        <pt x="178" y="105" on="1"/>
        <pt x="284" y="105" on="1"/>
      </contour>
    </TTGlyph>
    <TTGlyph name="apostrophe" xMin="187" yMin="430" xMax="311" yMax="663">
      <contour>
        <pt x="187" y="540" on="1"/>
        <pt x="187" y="663" on="1"/>
        <pt x="311" y="663" on="1"/>
        <pt x="311" y="631" on="1"/>
        <pt x="311" y="558" on="0"/>
        <pt x="286" y="484" on="0"/>
        <pt x="246" y="430" on="1"/>
        <pt x="198" y="456" on="1"/>
        <pt x="227" y="501" on="0"/>
        <pt x="236" y="540" on="1"/>
      </contour>
    </TTGlyph>
    <TTGlyph name="approxequal" xMin="40" yMin="158" xMax="432" yMax="560">
      <contour>
        <pt x="304" y="383" on="1"/>
        <pt x="168" y="431" on="1"/>
        <pt x="114" y="427" on="0"/>
        <pt x="40" y="401" on="1"/>
        <pt x="40" y="530" on="1"/>
        <pt x="88" y="548" on="0"/>
        <pt x="135" y="558" on="0"/>
        <pt x="168" y="560" on="1"/>
        <pt x="304" y="512" on="1"/>
        <pt x="354" y="512" on="0"/>
        <pt x="432" y="529" on="1"/>
        <pt x="432" y="400" on="1"/>
        <pt x="369" y="384" on="0"/>
      </contour>
      <contour>
        <pt x="304" y="158" on="1"/>
        <pt x="168" y="206" on="1"/>
        <pt x="114" y="202" on="0"/>
        <pt x="40" y="176" on="1"/>
        <pt x="40" y="305" on="1"/>
        <pt x="88" y="323" on="0"/>
        <pt x="135" y="333" on="0"/>
        <pt x="168" y="335" on="1"/>
        <pt x="304" y="287" on="1"/>
        <pt x="354" y="287" on="0"/>
        <pt x="432" y="304" on="1"/>
        <pt x="432" y="175" on="1"/>
        <pt x="369" y="159" on="0"/>
      </contour>
    </TTGlyph>
    <TTGlyph name="aring" xMin="29" yMin="0" xMax="419" yMax="794">
      <component glyphName="a" x="0" y="0" flags="0x1004"/>
      <component glyphName="ring" x="-30" y="0" flags="0x1004"/>
    </TTGlyph>
    <TTGlyph name="aringacute" xMin="29" yMin="0" xMax="419" yMax="982">
      <contour>
        <pt x="284" y="231" on="1"/>
        <pt x="177" y="231" on="1"/>
        <pt x="156" y="205" on="0"/>
        <pt x="156" y="127" on="0"/>
        <pt x="178" y="105" on="1"/>
        <pt x="284" y="105" on="1"/>
      </contour>
      <contour>
        <pt x="69" y="511" on="1"/>
        <pt x="317" y="511" on="1"/>
        <pt x="377" y="475" on="0"/>
        <pt x="415" y="382" on="0"/>
        <pt x="415" y="302" on="1"/>
        <pt x="415" y="152" on="1"/>
        <pt x="415" y="69" on="0"/>
        <pt x="419" y="0" on="1"/>
        <pt x="305" y="0" on="1"/>
        <pt x="287" y="36" on="1"/>
        <pt x="248" y="0" on="0"/>
        <pt x="177" y="0" on="1"/>
        <pt x="114" y="0" on="1"/>
        <pt x="29" y="56" on="0"/>
        <pt x="29" y="267" on="0"/>
        <pt x="116" y="328" on="1"/>
        <pt x="210" y="328" on="1"/>
        <pt x="249" y="328" on="0"/>
        <pt x="283" y="304" on="1"/>
        <pt x="283" y="354" on="1"/>
        <pt x="283" y="393" on="0"/>
        <pt x="249" y="406" on="1"/>
        <pt x="69" y="406" on="1"/>
      </contour>
      <contour>
        <pt x="176" y="784" on="1"/>
        <pt x="266" y="784" on="1"/>
        <pt x="346" y="745" on="0"/>
        <pt x="346" y="659" on="1"/>
        <pt x="346" y="621" on="0"/>
        <pt x="304" y="556" on="0"/>
        <pt x="266" y="538" on="1"/>
        <pt x="176" y="538" on="1"/>
        <pt x="138" y="556" on="0"/>
        <pt x="96" y="621" on="0"/>
        <pt x="96" y="659" on="1"/>
        <pt x="96" y="745" on="0"/>
      </contour>
      <contour>
        <pt x="202" y="611" on="1"/>
        <pt x="239" y="611" on="1"/>
        <pt x="260" y="632" on="0"/>
        <pt x="260" y="690" on="0"/>
        <pt x="239" y="709" on="1"/>
        <pt x="202" y="709" on="1"/>
        <pt x="182" y="689" on="0"/>
        <pt x="182" y="631" on="0"/>
      </contour>
      <contour>
        <pt x="118" y="882" on="1"/>
        <pt x="289" y="982" on="1"/>
        <pt x="336" y="879" on="1"/>
        <pt x="158" y="801" on="1"/>
      </contour>
    </TTGlyph>
    <TTGlyph name="asciicircum" xMin="40" yMin="330" xMax="396" yMax="700">
      <contour>
        <pt x="40" y="362" on="1"/>
        <pt x="155" y="700" on="1"/>
        <pt x="273" y="700" on="1"/>
        <pt x="396" y="362" on="1"/>
        <pt x="275" y="330" on="1"/>
        <pt x="214" y="511" on="1"/>
        <pt x="162" y="330" on="1"/>
      </contour>
    </TTGlyph>
    <TTGlyph name="asciitilde" xMin="10" yMin="224" xMax="402" yMax="391">
      <contour>
        <pt x="274" y="224" on="1"/>
        <pt x="138" y="272" on="1"/>
        <pt x="74" y="267" on="0"/>
        <pt x="10" y="245" on="1"/>
        <pt x="10" y="362" on="1"/>
        <pt x="66" y="388" on="0"/>
        <pt x="138" y="391" on="1"/>
        <pt x="274" y="343" on="1"/>
        <pt x="346" y="343" on="0"/>
        <pt x="402" y="357" on="1"/>
        <pt x="402" y="241" on="1"/>
        <pt x="349" y="225" on="0"/>
      </contour>
    </TTGlyph>
    <TTGlyph name="asterisk" xMin="40" yMin="435" xMax="336" yMax="732">
      <contour>
        <pt x="154" y="732" on="1"/>
        <pt x="222" y="732" on="1"/>
        <pt x="226" y="629" on="1"/>
        <pt x="316" y="655" on="1"/>
        <pt x="336" y="592" on="1"/>
        <pt x="249" y="560" on="1"/>
        <pt x="305" y="474" on="1"/>
        <pt x="252" y="435" on="1"/>
        <pt x="188" y="516" on="1"/>
        <pt x="124" y="435" on="1"/>
        <pt x="71" y="474" on="1"/>
        <pt x="128" y="558" on="1"/>
        <pt x="40" y="592" on="1"/>
        <pt x="60" y="655" on="1"/>
        <pt x="149" y="629" on="1"/>
      </contour>
    </TTGlyph>
    <TTGlyph name="at" xMin="25" yMin="-140" xMax="696" yMax="511">
      <contour>
        <pt x="341" y="120" on="1"/>
        <pt x="394" y="120" on="1"/>
        <pt x="394" y="250" on="1"/>
        <pt x="344" y="250" on="1"/>
        <pt x="323" y="220" on="0"/>
        <pt x="323" y="150" on="0"/>
      </contour>
      <contour>
        <pt x="325" y="20" on="1"/>
        <pt x="279" y="20" on="1"/>
        <pt x="206" y="87" on="0"/>
        <pt x="206" y="282" on="0"/>
        <pt x="287" y="348" on="1"/>
        <pt x="325" y="348" on="1"/>
        <pt x="376" y="348" on="0"/>
        <pt x="404" y="325" on="1"/>
        <pt x="409" y="348" on="1"/>
        <pt x="509" y="348" on="1"/>
        <pt x="509" y="116" on="1"/>
        <pt x="530" y="116" on="1"/>
        <pt x="559" y="146" on="0"/>
        <pt x="581" y="206" on="0"/>
        <pt x="581" y="306" on="0"/>
        <pt x="547" y="371" on="0"/>
        <pt x="511" y="406" on="1"/>
        <pt x="260" y="406" on="1"/>
        <pt x="140" y="325" on="0"/>
        <pt x="140" y="190" on="1"/>
        <pt x="140" y="79" on="0"/>
        <pt x="203" y="18" on="1"/>
        <pt x="233" y="-11" on="0"/>
        <pt x="272" y="-35" on="1"/>
        <pt x="501" y="-35" on="1"/>
        <pt x="501" y="-140" on="1"/>
        <pt x="236" y="-140" on="1"/>
        <pt x="134" y="-87" on="0"/>
        <pt x="25" y="65" on="0"/>
        <pt x="25" y="190" on="1"/>
        <pt x="25" y="381" on="0"/>
        <pt x="225" y="511" on="1"/>
        <pt x="557" y="511" on="1"/>
        <pt x="696" y="407" on="0"/>
        <pt x="696" y="260" on="1"/>
        <pt x="696" y="184" on="0"/>
        <pt x="641" y="81" on="0"/>
        <pt x="580" y="20" on="1"/>
        <pt x="423" y="20" on="1"/>
        <pt x="410" y="46" on="1"/>
        <pt x="395" y="29" on="0"/>
        <pt x="360" y="20" on="0"/>
      </contour>
    </TTGlyph>
    <TTGlyph name="atilde" xMin="29" yMin="0" xMax="419" yMax="686">
      <contour>
        <pt x="284" y="231" on="1"/>
        <pt x="177" y="231" on="1"/>
        <pt x="156" y="205" on="0"/>
        <pt x="156" y="127" on="0"/>
        <pt x="178" y="105" on="1"/>
        <pt x="284" y="105" on="1"/>
      </contour>
      <contour>
        <pt x="69" y="511" on="1"/>
        <pt x="317" y="511" on="1"/>
        <pt x="377" y="475" on="0"/>
        <pt x="415" y="382" on="0"/>
        <pt x="415" y="302" on="1"/>
        <pt x="415" y="152" on="1"/>
        <pt x="415" y="69" on="0"/>
        <pt x="419" y="0" on="1"/>
        <pt x="305" y="0" on="1"/>
        <pt x="287" y="36" on="1"/>
        <pt x="248" y="0" on="0"/>
        <pt x="177" y="0" on="1"/>
        <pt x="114" y="0" on="1"/>
        <pt x="29" y="56" on="0"/>
        <pt x="29" y="267" on="0"/>
        <pt x="116" y="328" on="1"/>
        <pt x="210" y="328" on="1"/>
        <pt x="249" y="328" on="0"/>
        <pt x="283" y="304" on="1"/>
        <pt x="283" y="354" on="1"/>
        <pt x="283" y="393" on="0"/>
        <pt x="249" y="406" on="1"/>
        <pt x="69" y="406" on="1"/>
      </contour>
      <contour>
        <pt x="267" y="557" on="1"/>
        <pt x="171" y="582" on="1"/>
        <pt x="150" y="582" on="0"/>
        <pt x="89" y="559" on="1"/>
        <pt x="89" y="659" on="1"/>
        <pt x="153" y="686" on="0"/>
        <pt x="175" y="686" on="1"/>
        <pt x="272" y="659" on="1"/>
        <pt x="292" y="659" on="0"/>
        <pt x="351" y="673" on="1"/>
        <pt x="351" y="571" on="1"/>
        <pt x="290" y="556" on="0"/>
      </contour>
    </TTGlyph>
    <TTGlyph name="b" xMin="43" yMin="0" xMax="445" yMax="700">
      <contour>
        <pt x="43" y="700" on="1"/>
        <pt x="175" y="700" on="1"/>
        <pt x="175" y="475" on="1"/>
        <pt x="197" y="495" on="0"/>
        <pt x="236" y="511" on="0"/>
        <pt x="275" y="511" on="1"/>
        <pt x="355" y="511" on="1"/>
        <pt x="397" y="470" on="0"/>
        <pt x="445" y="340" on="0"/>
        <pt x="445" y="262" on="1"/>
        <pt x="445" y="95" on="0"/>
        <pt x="345" y="0" on="1"/>
        <pt x="250" y="0" on="1"/>
        <pt x="201" y="0" on="0"/>
        <pt x="168" y="37" on="1"/>
        <pt x="150" y="0" on="1"/>
        <pt x="43" y="0" on="1"/>
      </contour>
      <contour>
        <pt x="176" y="105" on="1"/>
        <pt x="272" y="105" on="1"/>
        <pt x="309" y="168" on="0"/>
        <pt x="309" y="348" on="0"/>
        <pt x="271" y="406" on="1"/>
        <pt x="176" y="406" on="1"/>
      </contour>
    </TTGlyph>
    <TTGlyph name="backslash" xMin="10" yMin="0" xMax="365" yMax="700">
      <contour>
        <pt x="143" y="700" on="1"/>
        <pt x="365" y="0" on="1"/>
        <pt x="236" y="0" on="1"/>
        <pt x="10" y="700" on="1"/>
      </contour>
    </TTGlyph>
    <TTGlyph name="bar" xMin="50" yMin="0" xMax="178" yMax="700">
      <contour>
        <pt x="50" y="0" on="1"/>
        <pt x="50" y="700" on="1"/>
        <pt x="178" y="700" on="1"/>
        <pt x="178" y="0" on="1"/>
      </contour>
    </TTGlyph>
    <TTGlyph name="braceleft" xMin="25" yMin="-148" xMax="238" yMax="800">
      <contour>
        <pt x="139" y="330" on="1"/>
        <pt x="139" y="322" on="1"/>
        <pt x="209" y="277" on="0"/>
        <pt x="192" y="171" on="1"/>
        <pt x="175" y="67" on="1"/>
        <pt x="166" y="18" on="0"/>
        <pt x="176" y="-63" on="0"/>
        <pt x="193" y="-78" on="1"/>
        <pt x="238" y="-78" on="1"/>
        <pt x="238" y="-148" on="1"/>
        <pt x="164" y="-148" on="1"/>
        <pt x="20" y="-116" on="0"/>
        <pt x="46" y="50" on="1"/>
        <pt x="69" y="213" on="1"/>
        <pt x="78" y="261" on="0"/>
        <pt x="61" y="291" on="1"/>
        <pt x="25" y="291" on="1"/>
        <pt x="25" y="361" on="1"/>
        <pt x="61" y="361" on="1"/>
        <pt x="78" y="391" on="0"/>
        <pt x="69" y="439" on="1"/>
        <pt x="46" y="602" on="1"/>
        <pt x="20" y="768" on="0"/>
        <pt x="164" y="800" on="1"/>
        <pt x="238" y="800" on="1"/>
        <pt x="238" y="730" on="1"/>
        <pt x="193" y="730" on="1"/>
        <pt x="176" y="715" on="0"/>
        <pt x="166" y="634" on="0"/>
        <pt x="175" y="585" on="1"/>
        <pt x="192" y="481" on="1"/>
        <pt x="209" y="375" on="0"/>
      </contour>
    </TTGlyph>
    <TTGlyph name="braceright" xMin="10" yMin="-148" xMax="223" yMax="800">
      <contour>
        <pt x="109" y="322" on="1"/>
        <pt x="109" y="330" on="1"/>
        <pt x="39" y="375" on="0"/>
        <pt x="56" y="481" on="1"/>
        <pt x="73" y="585" on="1"/>
        <pt x="82" y="634" on="0"/>
        <pt x="72" y="715" on="0"/>
        <pt x="55" y="730" on="1"/>
        <pt x="10" y="730" on="1"/>
        <pt x="10" y="800" on="1"/>
        <pt x="84" y="800" on="1"/>
        <pt x="228" y="768" on="0"/>
        <pt x="202" y="602" on="1"/>
        <pt x="179" y="439" on="1"/>
        <pt x="170" y="391" on="0"/>
        <pt x="187" y="361" on="1"/>
        <pt x="223" y="361" on="1"/>
        <pt x="223" y="291" on="1"/>
        <pt x="187" y="291" on="1"/>
        <pt x="170" y="261" on="0"/>
        <pt x="179" y="213" on="1"/>
        <pt x="202" y="50" on="1"/>
        <pt x="228" y="-116" on="0"/>
        <pt x="84" y="-148" on="1"/>
        <pt x="10" y="-148" on="1"/>
        <pt x="10" y="-78" on="1"/>
        <pt x="55" y="-78" on="1"/>
        <pt x="72" y="-63" on="0"/>
        <pt x="82" y="18" on="0"/>
        <pt x="73" y="67" on="1"/>
        <pt x="56" y="171" on="1"/>
        <pt x="39" y="277" on="0"/>
      </contour>
    </TTGlyph>
    <TTGlyph name="bracketleft" xMin="45" yMin="-150" xMax="233" yMax="800">
      <contour>
        <pt x="45" y="-150" on="1"/>
        <pt x="45" y="800" on="1"/>
        <pt x="233" y="800" on="1"/>
        <pt x="233" y="690" on="1"/>
        <pt x="167" y="690" on="1"/>
        <pt x="167" y="-40" on="1"/>
        <pt x="233" y="-40" on="1"/>
        <pt x="233" y="-150" on="1"/>
      </contour>
    </TTGlyph>
    <TTGlyph name="bracketright" xMin="15" yMin="-150" xMax="203" yMax="800">
      <contour>
        <pt x="203" y="800" on="1"/>
        <pt x="203" y="-150" on="1"/>
        <pt x="15" y="-150" on="1"/>
        <pt x="15" y="-40" on="1"/>
        <pt x="81" y="-40" on="1"/>
        <pt x="81" y="690" on="1"/>
        <pt x="15" y="690" on="1"/>
        <pt x="15" y="800" on="1"/>
      </contour>
    </TTGlyph>
    <TTGlyph name="breve" xMin="101" yMin="548" xMax="399" yMax="707">
      <contour>
        <pt x="101" y="707" on="1"/>
        <pt x="195" y="707" on="1"/>
        <pt x="202" y="665" on="0"/>
        <pt x="218" y="647" on="0"/>
        <pt x="226" y="643" on="1"/>
        <pt x="274" y="643" on="1"/>
        <pt x="291" y="652" on="0"/>
        <pt x="296" y="667" on="1"/>
        <pt x="302" y="688" on="0"/>
        <pt x="305" y="707" on="1"/>
        <pt x="399" y="707" on="1"/>
        <pt x="392" y="588" on="0"/>
        <pt x="294" y="548" on="1"/>
        <pt x="206" y="548" on="1"/>
        <pt x="108" y="588" on="0"/>
      </contour>
    </TTGlyph>
    <TTGlyph name="breve.cap" xMin="103" yMin="730" xMax="399" yMax="879">
      <contour>
        <pt x="103" y="879" on="1"/>
        <pt x="195" y="879" on="1"/>
        <pt x="205" y="840" on="0"/>
        <pt x="231" y="827" on="1"/>
        <pt x="270" y="827" on="1"/>
        <pt x="296" y="840" on="0"/>
        <pt x="306" y="879" on="1"/>
        <pt x="399" y="879" on="1"/>
        <pt x="395" y="771" on="0"/>
        <pt x="294" y="730" on="1"/>
        <pt x="208" y="730" on="1"/>
        <pt x="109" y="770" on="0"/>
      </contour>
    </TTGlyph>
    <TTGlyph name="brokenbar" xMin="50" yMin="0" xMax="178" yMax="700">
      <contour>
        <pt x="50" y="0" on="1"/>
        <pt x="50" y="316" on="1"/>
        <pt x="178" y="316" on="1"/>
        <pt x="178" y="0" on="1"/>
      </contour>
      <contour>
        <pt x="50" y="386" on="1"/>
        <pt x="50" y="700" on="1"/>
        <pt x="178" y="700" on="1"/>
        <pt x="178" y="386" on="1"/>
      </contour>
    </TTGlyph>
    <TTGlyph name="bullet" xMin="40" yMin="233" xMax="223" yMax="437">
      <contour>
        <pt x="40" y="437" on="1"/>
        <pt x="223" y="437" on="1"/>
        <pt x="223" y="233" on="1"/>
        <pt x="40" y="233" on="1"/>
      </contour>
    </TTGlyph>
    <TTGlyph name="c" xMin="29" yMin="0" xMax="366" yMax="511">
      <contour>
        <pt x="167" y="260" on="1"/>
        <pt x="167" y="218" on="0"/>
        <pt x="193" y="131" on="0"/>
        <pt x="216" y="105" on="1"/>
        <pt x="366" y="105" on="1"/>
        <pt x="366" y="0" on="1"/>
        <pt x="147" y="0" on="1"/>
        <pt x="29" y="94" on="0"/>
        <pt x="29" y="426" on="0"/>
        <pt x="155" y="511" on="1"/>
        <pt x="366" y="511" on="1"/>
        <pt x="366" y="406" on="1"/>
        <pt x="216" y="406" on="1"/>
        <pt x="167" y="355" on="0"/>
      </contour>
    </TTGlyph>
    <TTGlyph name="cacute" xMin="29" yMin="0" xMax="374" yMax="727">
      <component glyphName="c" x="0" y="0" flags="0x1004"/>
      <component glyphName="acute" x="10" y="0" flags="0x1004"/>
    </TTGlyph>
    <TTGlyph name="caron" xMin="111" yMin="549" xMax="390" yMax="718">
      <contour>
        <pt x="309" y="549" on="1"/>
        <pt x="191" y="549" on="1"/>
        <pt x="111" y="685" on="1"/>
        <pt x="174" y="718" on="1"/>
        <pt x="250" y="641" on="1"/>
        <pt x="326" y="718" on="1"/>
        <pt x="390" y="685" on="1"/>
      </contour>
    </TTGlyph>
    <TTGlyph name="caron.alt" xMin="183" yMin="501" xMax="286" yMax="700">
      <contour>
        <pt x="183" y="700" on="1"/>
        <pt x="286" y="700" on="1"/>
        <pt x="266" y="501" on="1"/>
        <pt x="183" y="501" on="1"/>
      </contour>
    </TTGlyph>
    <TTGlyph name="caron.cap" xMin="105" yMin="728" xMax="395" yMax="878">
      <contour>
        <pt x="304" y="728" on="1"/>
        <pt x="198" y="728" on="1"/>
        <pt x="105" y="837" on="1"/>
        <pt x="164" y="877" on="1"/>
        <pt x="250" y="820" on="1"/>
        <pt x="336" y="878" on="1"/>
        <pt x="395" y="839" on="1"/>
      </contour>
    </TTGlyph>
    <TTGlyph name="ccaron" xMin="29" yMin="0" xMax="391" yMax="718">
      <contour>
        <pt x="167" y="260" on="1"/>
        <pt x="167" y="355" on="0"/>
        <pt x="216" y="406" on="1"/>
        <pt x="366" y="406" on="1"/>
        <pt x="366" y="511" on="1"/>
        <pt x="155" y="511" on="1"/>
        <pt x="29" y="426" on="0"/>
        <pt x="29" y="94" on="0"/>
        <pt x="147" y="0" on="1"/>
        <pt x="366" y="0" on="1"/>
        <pt x="366" y="105" on="1"/>
        <pt x="216" y="105" on="1"/>
        <pt x="193" y="131" on="0"/>
        <pt x="167" y="218" on="0"/>
      </contour>
      <contour>
        <pt x="310" y="549" on="1"/>
        <pt x="192" y="549" on="1"/>
        <pt x="112" y="685" on="1"/>
        <pt x="175" y="718" on="1"/>
        <pt x="251" y="641" on="1"/>
        <pt x="327" y="718" on="1"/>
        <pt x="391" y="685" on="1"/>
      </contour>
    </TTGlyph>
    <TTGlyph name="ccedilla" xMin="29" yMin="-260" xMax="366" yMax="511">
      <contour>
        <pt x="206" y="-132" on="1"/>
        <pt x="181" y="-132" on="1"/>
        <pt x="181" y="-60" on="1"/>
        <pt x="207" y="0" on="1"/>
        <pt x="147" y="0" on="1"/>
        <pt x="29" y="94" on="0"/>
        <pt x="29" y="426" on="0"/>
        <pt x="155" y="511" on="1"/>
        <pt x="366" y="511" on="1"/>
        <pt x="366" y="406" on="1"/>
        <pt x="216" y="406" on="1"/>
        <pt x="167" y="355" on="0"/>
        <pt x="167" y="260" on="1"/>
        <pt x="167" y="218" on="0"/>
        <pt x="193" y="131" on="0"/>
        <pt x="216" y="105" on="1"/>
        <pt x="366" y="105" on="1"/>
        <pt x="366" y="0" on="1"/>
        <pt x="292" y="0" on="1"/>
        <pt x="269" y="-60" on="1"/>
        <pt x="284" y="-73" on="0"/>
        <pt x="291" y="-82" on="1"/>
        <pt x="313" y="-108" on="0"/>
        <pt x="313" y="-184" on="0"/>
        <pt x="277" y="-242" on="0"/>
        <pt x="249" y="-260" on="1"/>
        <pt x="161" y="-260" on="1"/>
        <pt x="161" y="-179" on="1"/>
        <pt x="206" y="-179" on="1"/>
        <pt x="215" y="-173" on="0"/>
        <pt x="216" y="-139" on="0"/>
      </contour>
    </TTGlyph>
    <TTGlyph name="ccircumflex" xMin="29" yMin="0" xMax="390" yMax="718">
      <component glyphName="c" x="0" y="0" flags="0x1004"/>
      <component glyphName="circumflex" x="0" y="0" flags="0x1004"/>
    </TTGlyph>
    <TTGlyph name="cdotaccent" xMin="29" yMin="0" xMax="366" yMax="700">
      <contour>
        <pt x="167" y="260" on="1"/>
        <pt x="167" y="355" on="0"/>
        <pt x="216" y="406" on="1"/>
        <pt x="366" y="406" on="1"/>
        <pt x="366" y="511" on="1"/>
        <pt x="155" y="511" on="1"/>
        <pt x="29" y="426" on="0"/>
        <pt x="29" y="94" on="0"/>
        <pt x="147" y="0" on="1"/>
        <pt x="366" y="0" on="1"/>
        <pt x="366" y="105" on="1"/>
        <pt x="216" y="105" on="1"/>
        <pt x="193" y="131" on="0"/>
        <pt x="167" y="218" on="0"/>
      </contour>
      <contour>
        <pt x="191" y="700" on="1"/>
        <pt x="323" y="700" on="1"/>
        <pt x="323" y="565" on="1"/>
        <pt x="191" y="565" on="1"/>
      </contour>
    </TTGlyph>
    <TTGlyph name="cedilla" xMin="174" yMin="-260" xMax="326" yMax="15">
      <contour>
        <pt x="219" y="-132" on="1"/>
        <pt x="194" y="-132" on="1"/>
        <pt x="194" y="-60" on="1"/>
        <pt x="227" y="15" on="1"/>
        <pt x="311" y="15" on="1"/>
        <pt x="282" y="-60" on="1"/>
        <pt x="297" y="-73" on="0"/>
        <pt x="304" y="-82" on="1"/>
        <pt x="326" y="-108" on="0"/>
        <pt x="326" y="-184" on="0"/>
        <pt x="290" y="-242" on="0"/>
        <pt x="262" y="-260" on="1"/>
        <pt x="174" y="-260" on="1"/>
        <pt x="174" y="-179" on="1"/>
        <pt x="219" y="-179" on="1"/>
        <pt x="228" y="-173" on="0"/>
        <pt x="229" y="-139" on="0"/>
      </contour>
    </TTGlyph>
    <TTGlyph name="cedilla.cap" xMin="174" yMin="-260" xMax="326" yMax="15">
      <contour>
        <pt x="219" y="-132" on="1"/>
        <pt x="194" y="-132" on="1"/>
        <pt x="194" y="-60" on="1"/>
        <pt x="227" y="15" on="1"/>
        <pt x="311" y="15" on="1"/>
        <pt x="282" y="-60" on="1"/>
        <pt x="297" y="-73" on="0"/>
        <pt x="304" y="-82" on="1"/>
        <pt x="326" y="-108" on="0"/>
        <pt x="326" y="-184" on="0"/>
        <pt x="290" y="-242" on="0"/>
        <pt x="262" y="-260" on="1"/>
        <pt x="174" y="-260" on="1"/>
        <pt x="174" y="-179" on="1"/>
        <pt x="219" y="-179" on="1"/>
        <pt x="228" y="-173" on="0"/>
        <pt x="229" y="-139" on="0"/>
      </contour>
    </TTGlyph>
    <TTGlyph name="cent" xMin="40" yMin="0" xMax="377" yMax="700">
      <contour>
        <pt x="178" y="363" on="1"/>
        <pt x="178" y="321" on="0"/>
        <pt x="204" y="234" on="0"/>
        <pt x="227" y="208" on="1"/>
        <pt x="377" y="208" on="1"/>
        <pt x="377" y="103" on="1"/>
        <pt x="316" y="103" on="1"/>
        <pt x="316" y="0" on="1"/>
        <pt x="210" y="0" on="1"/>
        <pt x="210" y="103" on="1"/>
        <pt x="158" y="103" on="1"/>
        <pt x="40" y="197" on="0"/>
        <pt x="40" y="529" on="0"/>
        <pt x="166" y="614" on="1"/>
        <pt x="210" y="614" on="1"/>
        <pt x="210" y="700" on="1"/>
        <pt x="316" y="700" on="1"/>
        <pt x="316" y="614" on="1"/>
        <pt x="377" y="614" on="1"/>
        <pt x="377" y="509" on="1"/>
        <pt x="227" y="509" on="1"/>
        <pt x="178" y="458" on="0"/>
      </contour>
    </TTGlyph>
    <TTGlyph name="circumflex" xMin="111" yMin="549" xMax="390" yMax="718">
      <contour>
        <pt x="191" y="718" on="1"/>
        <pt x="309" y="718" on="1"/>
        <pt x="390" y="582" on="1"/>
        <pt x="326" y="549" on="1"/>
        <pt x="250" y="626" on="1"/>
        <pt x="174" y="549" on="1"/>
        <pt x="111" y="582" on="1"/>
      </contour>
    </TTGlyph>
    <TTGlyph name="circumflex.cap" xMin="105" yMin="728" xMax="395" yMax="878">
      <contour>
        <pt x="198" y="878" on="1"/>
        <pt x="304" y="878" on="1"/>
        <pt x="395" y="767" on="1"/>
        <pt x="336" y="728" on="1"/>
        <pt x="250" y="786" on="1"/>
        <pt x="164" y="729" on="1"/>
        <pt x="105" y="769" on="1"/>
      </contour>
    </TTGlyph>
    <TTGlyph name="colon" xMin="40" yMin="0" xMax="184" yMax="444">
      <component glyphName="period" x="0" y="0" flags="0x1004"/>
      <component glyphName="period" x="0" y="296" flags="0x1004"/>
    </TTGlyph>
    <TTGlyph name="comma" xMin="40" yMin="-149" xMax="184" yMax="148">
      <contour>
        <pt x="40" y="0" on="1"/>
        <pt x="40" y="148" on="1"/>
        <pt x="184" y="148" on="1"/>
        <pt x="184" y="89" on="1"/>
        <pt x="184" y="14" on="0"/>
        <pt x="150" y="-78" on="0"/>
        <pt x="99" y="-149" on="1"/>
        <pt x="41" y="-121" on="1"/>
        <pt x="89" y="-47" on="0"/>
        <pt x="99" y="0" on="1"/>
      </contour>
    </TTGlyph>
    <TTGlyph name="commaaccent" xMin="190" yMin="-319" xMax="310" yMax="-66">
      <contour>
        <pt x="190" y="-203" on="1"/>
        <pt x="190" y="-66" on="1"/>
        <pt x="310" y="-66" on="1"/>
        <pt x="310" y="-109" on="1"/>
        <pt x="310" y="-185" on="0"/>
        <pt x="286" y="-256" on="0"/>
        <pt x="240" y="-319" on="1"/>
        <pt x="194" y="-293" on="1"/>
        <pt x="223" y="-244" on="0"/>
        <pt x="234" y="-203" on="1"/>
      </contour>
    </TTGlyph>
    <TTGlyph name="commaaccent.cap" xMin="188" yMin="-319" xMax="308" yMax="-66">
      <contour>
        <pt x="188" y="-203" on="1"/>
        <pt x="188" y="-66" on="1"/>
        <pt x="308" y="-66" on="1"/>
        <pt x="308" y="-109" on="1"/>
        <pt x="308" y="-185" on="0"/>
        <pt x="284" y="-256" on="0"/>
        <pt x="238" y="-319" on="1"/>
        <pt x="192" y="-293" on="1"/>
        <pt x="221" y="-244" on="0"/>
        <pt x="232" y="-203" on="1"/>
      </contour>
    </TTGlyph>
    <TTGlyph name="copyright" xMin="25" yMin="0" xMax="745" yMax="700">
      <contour>
        <pt x="381" y="265" on="1"/>
        <pt x="349" y="292" on="0"/>
        <pt x="349" y="401" on="0"/>
        <pt x="381" y="427" on="1"/>
        <pt x="488" y="427" on="1"/>
        <pt x="488" y="544" on="1"/>
        <pt x="320" y="544" on="1"/>
        <pt x="218" y="475" on="0"/>
        <pt x="218" y="225" on="0"/>
        <pt x="320" y="149" on="1"/>
        <pt x="488" y="149" on="1"/>
        <pt x="488" y="265" on="1"/>
      </contour>
      <contour>
        <pt x="635" y="649" on="0"/>
        <pt x="745" y="463" on="0"/>
        <pt x="745" y="236" on="0"/>
        <pt x="635" y="51" on="0"/>
        <pt x="534" y="0" on="1"/>
        <pt x="236" y="0" on="1"/>
        <pt x="135" y="51" on="0"/>
        <pt x="25" y="236" on="0"/>
        <pt x="25" y="463" on="0"/>
        <pt x="135" y="649" on="0"/>
        <pt x="236" y="700" on="1"/>
        <pt x="534" y="700" on="1"/>
      </contour>
      <contour>
        <pt x="560" y="134" on="0"/>
        <pt x="626" y="273" on="0"/>
        <pt x="626" y="426" on="0"/>
        <pt x="560" y="563" on="0"/>
        <pt x="492" y="597" on="1"/>
        <pt x="278" y="597" on="1"/>
        <pt x="210" y="563" on="0"/>
        <pt x="144" y="426" on="0"/>
        <pt x="144" y="273" on="0"/>
        <pt x="210" y="134" on="0"/>
        <pt x="278" y="102" on="1"/>
        <pt x="492" y="102" on="1"/>
      </contour>
    </TTGlyph>
    <TTGlyph name="d" xMin="29" yMin="0" xMax="430" yMax="700">
      <contour>
        <pt x="430" y="0" on="1"/>
        <pt x="329" y="0" on="1"/>
        <pt x="311" y="36" on="1"/>
        <pt x="289" y="16" on="0"/>
        <pt x="250" y="0" on="0"/>
        <pt x="211" y="0" on="1"/>
        <pt x="124" y="0" on="1"/>
        <pt x="80" y="42" on="0"/>
        <pt x="29" y="178" on="0"/>
        <pt x="29" y="347" on="0"/>
        <pt x="80" y="465" on="0"/>
        <pt x="127" y="511" on="1"/>
        <pt x="213" y="511" on="1"/>
        <pt x="266" y="511" on="0"/>
        <pt x="297" y="483" on="1"/>
        <pt x="297" y="700" on="1"/>
        <pt x="430" y="700" on="1"/>
      </contour>
      <contour>
        <pt x="297" y="406" on="1"/>
        <pt x="201" y="406" on="1"/>
        <pt x="164" y="343" on="0"/>
        <pt x="164" y="160" on="0"/>
        <pt x="200" y="105" on="1"/>
        <pt x="297" y="105" on="1"/>
      </contour>
    </TTGlyph>
    <TTGlyph name="dagger" xMin="30" yMin="0" xMax="355" yMax="700">
      <contour>
        <pt x="253" y="0" on="1"/>
        <pt x="132" y="0" on="1"/>
        <pt x="132" y="431" on="1"/>
        <pt x="30" y="431" on="1"/>
        <pt x="30" y="541" on="1"/>
        <pt x="132" y="541" on="1"/>
        <pt x="132" y="700" on="1"/>
        <pt x="253" y="700" on="1"/>
        <pt x="253" y="541" on="1"/>
        <pt x="355" y="541" on="1"/>
        <pt x="355" y="431" on="1"/>
        <pt x="253" y="431" on="1"/>
      </contour>
    </TTGlyph>
    <TTGlyph name="daggerdbl" xMin="30" yMin="0" xMax="355" yMax="700">
      <contour>
        <pt x="253" y="0" on="1"/>
        <pt x="132" y="0" on="1"/>
        <pt x="132" y="179" on="1"/>
        <pt x="30" y="179" on="1"/>
        <pt x="30" y="289" on="1"/>
        <pt x="132" y="289" on="1"/>
        <pt x="132" y="431" on="1"/>
        <pt x="30" y="431" on="1"/>
        <pt x="30" y="541" on="1"/>
        <pt x="132" y="541" on="1"/>
        <pt x="132" y="700" on="1"/>
        <pt x="253" y="700" on="1"/>
        <pt x="253" y="541" on="1"/>
        <pt x="355" y="541" on="1"/>
        <pt x="355" y="431" on="1"/>
        <pt x="253" y="431" on="1"/>
        <pt x="253" y="289" on="1"/>
        <pt x="355" y="289" on="1"/>
        <pt x="355" y="179" on="1"/>
        <pt x="253" y="179" on="1"/>
      </contour>
    </TTGlyph>
    <TTGlyph name="dcaron" xMin="29" yMin="0" xMax="567" yMax="700">
      <contour>
        <pt x="430" y="0" on="1"/>
        <pt x="329" y="0" on="1"/>
        <pt x="311" y="36" on="1"/>
        <pt x="289" y="16" on="0"/>
        <pt x="250" y="0" on="0"/>
        <pt x="211" y="0" on="1"/>
        <pt x="124" y="0" on="1"/>
        <pt x="80" y="42" on="0"/>
        <pt x="29" y="178" on="0"/>
        <pt x="29" y="347" on="0"/>
        <pt x="80" y="465" on="0"/>
        <pt x="127" y="511" on="1"/>
        <pt x="213" y="511" on="1"/>
        <pt x="266" y="511" on="0"/>
        <pt x="297" y="483" on="1"/>
        <pt x="297" y="700" on="1"/>
        <pt x="430" y="700" on="1"/>
      </contour>
      <contour>
        <pt x="297" y="406" on="1"/>
        <pt x="201" y="406" on="1"/>
        <pt x="164" y="343" on="0"/>
        <pt x="164" y="160" on="0"/>
        <pt x="200" y="105" on="1"/>
        <pt x="297" y="105" on="1"/>
      </contour>
      <contour>
        <pt x="567" y="700" on="1"/>
        <pt x="464" y="700" on="1"/>
        <pt x="464" y="501" on="1"/>
        <pt x="547" y="501" on="1"/>
      </contour>
    </TTGlyph>
    <TTGlyph name="dcroat" xMin="29" yMin="0" xMax="471" yMax="700">
      <contour>
        <pt x="175" y="556" on="1"/>
        <pt x="175" y="649" on="1"/>
        <pt x="297" y="649" on="1"/>
        <pt x="297" y="700" on="1"/>
        <pt x="430" y="700" on="1"/>
        <pt x="430" y="649" on="1"/>
        <pt x="471" y="649" on="1"/>
        <pt x="471" y="556" on="1"/>
        <pt x="430" y="556" on="1"/>
        <pt x="430" y="0" on="1"/>
        <pt x="329" y="0" on="1"/>
        <pt x="311" y="36" on="1"/>
        <pt x="289" y="16" on="0"/>
        <pt x="250" y="0" on="0"/>
        <pt x="211" y="0" on="1"/>
        <pt x="124" y="0" on="1"/>
        <pt x="80" y="42" on="0"/>
        <pt x="29" y="178" on="0"/>
        <pt x="29" y="347" on="0"/>
        <pt x="80" y="465" on="0"/>
        <pt x="127" y="511" on="1"/>
        <pt x="213" y="511" on="1"/>
        <pt x="266" y="511" on="0"/>
        <pt x="297" y="483" on="1"/>
        <pt x="297" y="556" on="1"/>
      </contour>
      <contour>
        <pt x="297" y="406" on="1"/>
        <pt x="201" y="406" on="1"/>
        <pt x="164" y="343" on="0"/>
        <pt x="164" y="160" on="0"/>
        <pt x="200" y="105" on="1"/>
        <pt x="297" y="105" on="1"/>
      </contour>
    </TTGlyph>
    <TTGlyph name="degree" xMin="31" yMin="518" xMax="285" yMax="774">
      <contour>
        <pt x="111" y="774" on="1"/>
        <pt x="205" y="774" on="1"/>
        <pt x="285" y="735" on="0"/>
        <pt x="285" y="644" on="1"/>
        <pt x="285" y="605" on="0"/>
        <pt x="243" y="535" on="0"/>
        <pt x="205" y="518" on="1"/>
        <pt x="111" y="518" on="1"/>
        <pt x="73" y="535" on="0"/>
        <pt x="31" y="605" on="0"/>
        <pt x="31" y="644" on="1"/>
        <pt x="31" y="735" on="0"/>
      </contour>
      <contour>
        <pt x="142" y="598" on="1"/>
        <pt x="174" y="598" on="1"/>
        <pt x="192" y="616" on="0"/>
        <pt x="192" y="677" on="0"/>
        <pt x="174" y="694" on="1"/>
        <pt x="142" y="694" on="1"/>
        <pt x="124" y="677" on="0"/>
        <pt x="124" y="616" on="0"/>
      </contour>
    </TTGlyph>
    <TTGlyph name="dieresis" xMin="97" yMin="565" xMax="402" yMax="700">
      <contour>
        <pt x="97" y="565" on="1"/>
        <pt x="97" y="700" on="1"/>
        <pt x="229" y="700" on="1"/>
        <pt x="229" y="565" on="1"/>
      </contour>
      <contour>
        <pt x="270" y="565" on="1"/>
        <pt x="270" y="700" on="1"/>
        <pt x="402" y="700" on="1"/>
        <pt x="402" y="565" on="1"/>
      </contour>
    </TTGlyph>
    <TTGlyph name="dieresis.cap" xMin="97" yMin="730" xMax="402" yMax="865">
      <contour>
        <pt x="97" y="730" on="1"/>
        <pt x="97" y="865" on="1"/>
        <pt x="229" y="865" on="1"/>
        <pt x="229" y="730" on="1"/>
      </contour>
      <contour>
        <pt x="270" y="730" on="1"/>
        <pt x="270" y="865" on="1"/>
        <pt x="402" y="865" on="1"/>
        <pt x="402" y="730" on="1"/>
      </contour>
    </TTGlyph>
    <TTGlyph name="divide" xMin="5" yMin="105" xMax="339" yMax="570">
      <contour>
        <pt x="142" y="570" on="1"/>
        <pt x="202" y="570" on="1"/>
        <pt x="249" y="546" on="0"/>
        <pt x="249" y="491" on="1"/>
        <pt x="249" y="472" on="0"/>
        <pt x="223" y="426" on="0"/>
        <pt x="202" y="416" on="1"/>
        <pt x="142" y="416" on="1"/>
        <pt x="121" y="426" on="0"/>
        <pt x="95" y="471" on="0"/>
        <pt x="95" y="491" on="1"/>
        <pt x="95" y="547" on="0"/>
      </contour>
      <contour>
        <pt x="142" y="259" on="1"/>
        <pt x="202" y="259" on="1"/>
        <pt x="249" y="236" on="0"/>
        <pt x="249" y="180" on="1"/>
        <pt x="249" y="161" on="0"/>
        <pt x="223" y="115" on="0"/>
        <pt x="202" y="105" on="1"/>
        <pt x="142" y="105" on="1"/>
        <pt x="121" y="115" on="0"/>
        <pt x="95" y="160" on="0"/>
        <pt x="95" y="180" on="1"/>
        <pt x="95" y="236" on="0"/>
      </contour>
      <contour>
        <pt x="339" y="289" on="1"/>
        <pt x="339" y="386" on="1"/>
        <pt x="5" y="386" on="1"/>
        <pt x="5" y="289" on="1"/>
      </contour>
    </TTGlyph>
    <TTGlyph name="dollar" xMin="33" yMin="-66" xMax="374" yMax="770">
      <contour>
        <pt x="261" y="684" on="1"/>
        <pt x="360" y="684" on="1"/>
        <pt x="360" y="564" on="1"/>
        <pt x="166" y="564" on="1"/>
        <pt x="163" y="558" on="1"/>
        <pt x="325" y="302" on="1"/>
        <pt x="374" y="223" on="0"/>
        <pt x="374" y="168" on="1"/>
        <pt x="374" y="67" on="0"/>
        <pt x="307" y="20" on="1"/>
        <pt x="260" y="20" on="1"/>
        <pt x="260" y="-66" on="1"/>
        <pt x="154" y="-66" on="1"/>
        <pt x="154" y="20" on="1"/>
        <pt x="42" y="20" on="1"/>
        <pt x="42" y="136" on="1"/>
        <pt x="254" y="136" on="1"/>
        <pt x="257" y="142" on="1"/>
        <pt x="72" y="429" on="1"/>
        <pt x="33" y="491" on="0"/>
        <pt x="33" y="543" on="1"/>
        <pt x="33" y="647" on="0"/>
        <pt x="120" y="684" on="1"/>
        <pt x="155" y="684" on="1"/>
        <pt x="155" y="770" on="1"/>
        <pt x="261" y="770" on="1"/>
      </contour>
    </TTGlyph>
    <TTGlyph name="dotaccent" xMin="183" yMin="565" xMax="315" yMax="700">
      <contour>
        <pt x="183" y="700" on="1"/>
        <pt x="315" y="700" on="1"/>
        <pt x="315" y="565" on="1"/>
        <pt x="183" y="565" on="1"/>
      </contour>
    </TTGlyph>
    <TTGlyph name="dotaccent.cap" xMin="183" yMin="730" xMax="315" yMax="865">
      <contour>
        <pt x="183" y="865" on="1"/>
        <pt x="315" y="865" on="1"/>
        <pt x="315" y="730" on="1"/>
        <pt x="183" y="730" on="1"/>
      </contour>
    </TTGlyph>
    <TTGlyph name="dotlessi" xMin="43" yMin="0" xMax="175" yMax="511">
      <contour>
        <pt x="43" y="0" on="1"/>
        <pt x="43" y="511" on="1"/>
        <pt x="175" y="511" on="1"/>
        <pt x="175" y="0" on="1"/>
      </contour>
    </TTGlyph>
    <TTGlyph name="dotlessj" xMin="-51" yMin="-150" xMax="174" yMax="511">
      <contour>
        <pt x="43" y="511" on="1"/>
        <pt x="174" y="511" on="1"/>
        <pt x="174" y="51" on="1"/>
        <pt x="174" y="-25" on="0"/>
        <pt x="138" y="-115" on="0"/>
        <pt x="81" y="-150" on="1"/>
        <pt x="-51" y="-150" on="1"/>
        <pt x="-51" y="-45" on="1"/>
        <pt x="18" y="-45" on="1"/>
        <pt x="43" y="-30" on="0"/>
        <pt x="43" y="3" on="1"/>
      </contour>
    </TTGlyph>
    <TTGlyph name="e" xMin="29" yMin="0" xMax="430" yMax="511">
      <contour>
        <pt x="274" y="406" on="1"/>
        <pt x="199" y="406" on="1"/>
        <pt x="184" y="388" on="0"/>
        <pt x="165" y="324" on="0"/>
        <pt x="165" y="294" on="1"/>
        <pt x="308" y="294" on="1"/>
        <pt x="310" y="324" on="0"/>
        <pt x="290" y="389" on="0"/>
      </contour>
      <contour>
        <pt x="410" y="105" on="1"/>
        <pt x="410" y="0" on="1"/>
        <pt x="156" y="0" on="1"/>
        <pt x="86" y="47" on="0"/>
        <pt x="29" y="186" on="0"/>
        <pt x="29" y="257" on="1"/>
        <pt x="29" y="421" on="0"/>
        <pt x="153" y="511" on="1"/>
        <pt x="315" y="511" on="1"/>
        <pt x="382" y="462" on="0"/>
        <pt x="430" y="352" on="0"/>
        <pt x="430" y="240" on="0"/>
        <pt x="421" y="200" on="1"/>
        <pt x="172" y="200" on="1"/>
        <pt x="175" y="177" on="0"/>
        <pt x="204" y="118" on="0"/>
        <pt x="221" y="105" on="1"/>
      </contour>
    </TTGlyph>
    <TTGlyph name="eacute" xMin="29" yMin="0" xMax="430" yMax="727">
      <component glyphName="e" x="0" y="0" flags="0x1004"/>
      <component glyphName="acute" x="3" y="0" flags="0x1004"/>
    </TTGlyph>
    <TTGlyph name="ebreve" xMin="29" yMin="0" xMax="430" yMax="707">
      <contour>
        <pt x="274" y="406" on="1"/>
        <pt x="199" y="406" on="1"/>
        <pt x="184" y="388" on="0"/>
        <pt x="165" y="324" on="0"/>
        <pt x="165" y="294" on="1"/>
        <pt x="308" y="294" on="1"/>
        <pt x="310" y="324" on="0"/>
        <pt x="290" y="389" on="0"/>
      </contour>
      <contour>
        <pt x="410" y="105" on="1"/>
        <pt x="410" y="0" on="1"/>
        <pt x="156" y="0" on="1"/>
        <pt x="86" y="47" on="0"/>
        <pt x="29" y="186" on="0"/>
        <pt x="29" y="257" on="1"/>
        <pt x="29" y="421" on="0"/>
        <pt x="153" y="511" on="1"/>
        <pt x="315" y="511" on="1"/>
        <pt x="382" y="462" on="0"/>
        <pt x="430" y="352" on="0"/>
        <pt x="430" y="240" on="0"/>
        <pt x="421" y="200" on="1"/>
        <pt x="172" y="200" on="1"/>
        <pt x="175" y="177" on="0"/>
        <pt x="204" y="118" on="0"/>
        <pt x="221" y="105" on="1"/>
      </contour>
      <contour>
        <pt x="85" y="707" on="1"/>
        <pt x="179" y="707" on="1"/>
        <pt x="186" y="665" on="0"/>
        <pt x="202" y="647" on="0"/>
        <pt x="210" y="643" on="1"/>
        <pt x="258" y="643" on="1"/>
        <pt x="275" y="652" on="0"/>
        <pt x="280" y="667" on="1"/>
        <pt x="286" y="688" on="0"/>
        <pt x="289" y="707" on="1"/>
        <pt x="383" y="707" on="1"/>
        <pt x="376" y="588" on="0"/>
        <pt x="278" y="548" on="1"/>
        <pt x="190" y="548" on="1"/>
        <pt x="92" y="588" on="0"/>
      </contour>
    </TTGlyph>
    <TTGlyph name="ecaron" xMin="29" yMin="0" xMax="430" yMax="718">
      <component glyphName="e" x="0" y="0" flags="0x1004"/>
      <component glyphName="caron" x="-17" y="0" flags="0x1004"/>
    </TTGlyph>
    <TTGlyph name="ecircumflex" xMin="29" yMin="0" xMax="430" yMax="718">
      <contour>
        <pt x="274" y="406" on="1"/>
        <pt x="199" y="406" on="1"/>
        <pt x="184" y="388" on="0"/>
        <pt x="165" y="324" on="0"/>
        <pt x="165" y="294" on="1"/>
        <pt x="308" y="294" on="1"/>
        <pt x="310" y="324" on="0"/>
        <pt x="290" y="389" on="0"/>
      </contour>
      <contour>
        <pt x="410" y="105" on="1"/>
        <pt x="410" y="0" on="1"/>
        <pt x="156" y="0" on="1"/>
        <pt x="86" y="47" on="0"/>
        <pt x="29" y="186" on="0"/>
        <pt x="29" y="257" on="1"/>
        <pt x="29" y="421" on="0"/>
        <pt x="153" y="511" on="1"/>
        <pt x="315" y="511" on="1"/>
        <pt x="382" y="462" on="0"/>
        <pt x="430" y="352" on="0"/>
        <pt x="430" y="240" on="0"/>
        <pt x="421" y="200" on="1"/>
        <pt x="172" y="200" on="1"/>
        <pt x="175" y="177" on="0"/>
        <pt x="204" y="118" on="0"/>
        <pt x="221" y="105" on="1"/>
      </contour>
      <contour>
        <pt x="174" y="718" on="1"/>
        <pt x="292" y="718" on="1"/>
        <pt x="373" y="582" on="1"/>
        <pt x="309" y="549" on="1"/>
        <pt x="233" y="626" on="1"/>
        <pt x="157" y="549" on="1"/>
        <pt x="94" y="582" on="1"/>
      </contour>
    </TTGlyph>
    <TTGlyph name="edieresis" xMin="29" yMin="0" xMax="430" yMax="700">
      <component glyphName="e" x="0" y="0" flags="0x1004"/>
      <component glyphName="dieresis" x="-16" y="0" flags="0x1004"/>
    </TTGlyph>
    <TTGlyph name="edotaccent" xMin="29" yMin="0" xMax="430" yMax="700">
      <contour>
        <pt x="274" y="406" on="1"/>
        <pt x="199" y="406" on="1"/>
        <pt x="184" y="388" on="0"/>
        <pt x="165" y="324" on="0"/>
        <pt x="165" y="294" on="1"/>
        <pt x="308" y="294" on="1"/>
        <pt x="310" y="324" on="0"/>
        <pt x="290" y="389" on="0"/>
      </contour>
      <contour>
        <pt x="410" y="105" on="1"/>
        <pt x="410" y="0" on="1"/>
        <pt x="156" y="0" on="1"/>
        <pt x="86" y="47" on="0"/>
        <pt x="29" y="186" on="0"/>
        <pt x="29" y="257" on="1"/>
        <pt x="29" y="421" on="0"/>
        <pt x="153" y="511" on="1"/>
        <pt x="315" y="511" on="1"/>
        <pt x="382" y="462" on="0"/>
        <pt x="430" y="352" on="0"/>
        <pt x="430" y="240" on="0"/>
        <pt x="421" y="200" on="1"/>
        <pt x="172" y="200" on="1"/>
        <pt x="175" y="177" on="0"/>
        <pt x="204" y="118" on="0"/>
        <pt x="221" y="105" on="1"/>
      </contour>
      <contour>
        <pt x="167" y="700" on="1"/>
        <pt x="299" y="700" on="1"/>
        <pt x="299" y="565" on="1"/>
        <pt x="167" y="565" on="1"/>
      </contour>
    </TTGlyph>
    <TTGlyph name="egrave" xMin="29" yMin="0" xMax="430" yMax="727">
      <component glyphName="e" x="0" y="0" flags="0x1004"/>
      <component glyphName="grave" x="-36" y="0" flags="0x1004"/>
    </TTGlyph>
    <TTGlyph name="eight" xMin="25" yMin="0" xMax="462" yMax="700">
      <contour>
        <pt x="337" y="0" on="1"/>
        <pt x="153" y="0" on="1"/>
        <pt x="99" y="23" on="0"/>
        <pt x="25" y="129" on="0"/>
        <pt x="25" y="197" on="1"/>
        <pt x="25" y="307" on="0"/>
        <pt x="110" y="363" on="1"/>
        <pt x="110" y="367" on="1"/>
        <pt x="42" y="425" on="0"/>
        <pt x="42" y="512" on="1"/>
        <pt x="42" y="578" on="0"/>
        <pt x="117" y="679" on="0"/>
        <pt x="169" y="700" on="1"/>
        <pt x="320" y="700" on="1"/>
        <pt x="372" y="679" on="0"/>
        <pt x="445" y="581" on="0"/>
        <pt x="445" y="515" on="1"/>
        <pt x="445" y="428" on="0"/>
        <pt x="376" y="369" on="1"/>
        <pt x="376" y="365" on="1"/>
        <pt x="462" y="308" on="0"/>
        <pt x="462" y="201" on="1"/>
        <pt x="462" y="134" on="0"/>
        <pt x="387" y="23" on="0"/>
      </contour>
      <contour>
        <pt x="199" y="298" on="1"/>
        <pt x="164" y="269" on="0"/>
        <pt x="164" y="213" on="1"/>
        <pt x="164" y="182" on="0"/>
        <pt x="187" y="126" on="0"/>
        <pt x="201" y="116" on="1"/>
        <pt x="286" y="116" on="1"/>
        <pt x="300" y="126" on="0"/>
        <pt x="323" y="182" on="0"/>
        <pt x="323" y="213" on="1"/>
        <pt x="323" y="269" on="0"/>
        <pt x="288" y="298" on="1"/>
      </contour>
      <contour>
        <pt x="205" y="580" on="1"/>
        <pt x="191" y="570" on="0"/>
        <pt x="169" y="525" on="0"/>
        <pt x="169" y="498" on="1"/>
        <pt x="169" y="448" on="0"/>
        <pt x="204" y="415" on="1"/>
        <pt x="283" y="415" on="1"/>
        <pt x="318" y="448" on="0"/>
        <pt x="318" y="498" on="1"/>
        <pt x="318" y="525" on="0"/>
        <pt x="296" y="570" on="0"/>
        <pt x="282" y="580" on="1"/>
      </contour>
    </TTGlyph>
    <TTGlyph name="ellipsis" xMin="40" yMin="0" xMax="648" yMax="148">
      <contour>
        <pt x="40" y="148" on="1"/>
        <pt x="184" y="148" on="1"/>
        <pt x="184" y="0" on="1"/>
        <pt x="40" y="0" on="1"/>
      </contour>
      <contour>
        <pt x="272" y="148" on="1"/>
        <pt x="416" y="148" on="1"/>
        <pt x="416" y="0" on="1"/>
        <pt x="272" y="0" on="1"/>
      </contour>
      <contour>
        <pt x="504" y="148" on="1"/>
        <pt x="648" y="148" on="1"/>
        <pt x="648" y="0" on="1"/>
        <pt x="504" y="0" on="1"/>
      </contour>
    </TTGlyph>
    <TTGlyph name="emacron" xMin="29" yMin="0" xMax="430" yMax="669">
      <contour>
        <pt x="274" y="406" on="1"/>
        <pt x="199" y="406" on="1"/>
        <pt x="184" y="388" on="0"/>
        <pt x="165" y="324" on="0"/>
        <pt x="165" y="294" on="1"/>
        <pt x="308" y="294" on="1"/>
        <pt x="310" y="324" on="0"/>
        <pt x="290" y="389" on="0"/>
      </contour>
      <contour>
        <pt x="410" y="105" on="1"/>
        <pt x="410" y="0" on="1"/>
        <pt x="156" y="0" on="1"/>
        <pt x="86" y="47" on="0"/>
        <pt x="29" y="186" on="0"/>
        <pt x="29" y="257" on="1"/>
        <pt x="29" y="421" on="0"/>
        <pt x="153" y="511" on="1"/>
        <pt x="315" y="511" on="1"/>
        <pt x="382" y="462" on="0"/>
        <pt x="430" y="352" on="0"/>
        <pt x="430" y="240" on="0"/>
        <pt x="421" y="200" on="1"/>
        <pt x="172" y="200" on="1"/>
        <pt x="175" y="177" on="0"/>
        <pt x="204" y="118" on="0"/>
        <pt x="221" y="105" on="1"/>
      </contour>
      <contour>
        <pt x="110" y="569" on="1"/>
        <pt x="110" y="669" on="1"/>
        <pt x="362" y="669" on="1"/>
        <pt x="362" y="569" on="1"/>
      </contour>
    </TTGlyph>
    <TTGlyph name="emdash" xMin="0" yMin="231" xMax="793" yMax="345">
      <contour>
        <pt x="0" y="231" on="1"/>
        <pt x="0" y="345" on="1"/>
        <pt x="793" y="345" on="1"/>
        <pt x="793" y="231" on="1"/>
      </contour>
    </TTGlyph>
    <TTGlyph name="endash" xMin="0" yMin="231" xMax="416" yMax="345">
      <contour>
        <pt x="0" y="231" on="1"/>
        <pt x="0" y="345" on="1"/>
        <pt x="416" y="345" on="1"/>
        <pt x="416" y="231" on="1"/>
      </contour>
    </TTGlyph>
    <TTGlyph name="eng" xMin="39" yMin="-150" xMax="447" yMax="511">
      <contour>
        <pt x="265" y="511" on="1"/>
        <pt x="371" y="511" on="1"/>
        <pt x="415" y="455" on="0"/>
        <pt x="447" y="343" on="0"/>
        <pt x="447" y="259" on="1"/>
        <pt x="447" y="51" on="1"/>
        <pt x="447" y="-23" on="0"/>
        <pt x="406" y="-115" on="0"/>
        <pt x="348" y="-150" on="1"/>
        <pt x="200" y="-150" on="1"/>
        <pt x="200" y="-45" on="1"/>
        <pt x="289" y="-45" on="1"/>
        <pt x="314" y="-30" on="0"/>
        <pt x="314" y="3" on="1"/>
        <pt x="314" y="269" on="1"/>
        <pt x="314" y="364" on="0"/>
        <pt x="288" y="406" on="1"/>
        <pt x="176" y="406" on="1"/>
        <pt x="176" y="0" on="1"/>
        <pt x="43" y="0" on="1"/>
        <pt x="43" y="355" on="1"/>
        <pt x="43" y="442" on="0"/>
        <pt x="39" y="511" on="1"/>
        <pt x="147" y="511" on="1"/>
        <pt x="165" y="475" on="1"/>
        <pt x="187" y="495" on="0"/>
        <pt x="226" y="511" on="0"/>
      </contour>
    </TTGlyph>
    <TTGlyph name="eogonek" xMin="29" yMin="-227" xMax="430" yMax="511">
      <contour>
        <pt x="410" y="105" on="1"/>
        <pt x="410" y="0" on="1"/>
        <pt x="326" y="-125" on="1"/>
        <pt x="330" y="-132" on="1"/>
        <pt x="394" y="-132" on="1"/>
        <pt x="394" y="-227" on="1"/>
        <pt x="241" y="-227" on="1"/>
        <pt x="204" y="-204" on="0"/>
        <pt x="204" y="-159" on="1"/>
        <pt x="204" y="-132" on="0"/>
        <pt x="226" y="-90" on="0"/>
        <pt x="255" y="-52" on="1"/>
        <pt x="295" y="0" on="1"/>
        <pt x="156" y="0" on="1"/>
        <pt x="86" y="47" on="0"/>
        <pt x="29" y="186" on="0"/>
        <pt x="29" y="257" on="1"/>
        <pt x="29" y="421" on="0"/>
        <pt x="153" y="511" on="1"/>
        <pt x="315" y="511" on="1"/>
        <pt x="382" y="462" on="0"/>
        <pt x="430" y="352" on="0"/>
        <pt x="430" y="240" on="0"/>
        <pt x="421" y="200" on="1"/>
        <pt x="172" y="200" on="1"/>
        <pt x="175" y="177" on="0"/>
        <pt x="204" y="118" on="0"/>
        <pt x="221" y="105" on="1"/>
      </contour>
      <contour>
        <pt x="274" y="406" on="1"/>
        <pt x="199" y="406" on="1"/>
        <pt x="184" y="388" on="0"/>
        <pt x="165" y="324" on="0"/>
        <pt x="165" y="294" on="1"/>
        <pt x="308" y="294" on="1"/>
        <pt x="310" y="324" on="0"/>
        <pt x="290" y="389" on="0"/>
      </contour>
    </TTGlyph>
    <TTGlyph name="equal" xMin="5" yMin="170" xMax="339" yMax="467">
      <contour>
        <pt x="5" y="370" on="1"/>
        <pt x="5" y="467" on="1"/>
        <pt x="339" y="467" on="1"/>
        <pt x="339" y="370" on="1"/>
      </contour>
      <contour>
        <pt x="5" y="170" on="1"/>
        <pt x="5" y="267" on="1"/>
        <pt x="339" y="267" on="1"/>
        <pt x="339" y="170" on="1"/>
      </contour>
    </TTGlyph>
    <TTGlyph name="eth" xMin="29" yMin="0" xMax="449" yMax="700">
      <contour>
        <pt x="156" y="555" on="1"/>
        <pt x="156" y="643" on="1"/>
        <pt x="229" y="643" on="1"/>
        <pt x="225" y="649" on="0"/>
        <pt x="204" y="689" on="0"/>
        <pt x="198" y="700" on="1"/>
        <pt x="324" y="700" on="1"/>
        <pt x="353" y="643" on="1"/>
        <pt x="449" y="643" on="1"/>
        <pt x="449" y="555" on="1"/>
        <pt x="393" y="555" on="1"/>
        <pt x="445" y="427" on="0"/>
        <pt x="445" y="181" on="0"/>
        <pt x="393" y="50" on="0"/>
        <pt x="347" y="0" on="1"/>
        <pt x="124" y="0" on="1"/>
        <pt x="80" y="42" on="0"/>
        <pt x="29" y="178" on="0"/>
        <pt x="29" y="347" on="0"/>
        <pt x="80" y="465" on="0"/>
        <pt x="127" y="511" on="1"/>
        <pt x="213" y="511" on="1"/>
        <pt x="261" y="511" on="0"/>
        <pt x="297" y="481" on="1"/>
        <pt x="285" y="518" on="0"/>
        <pt x="269" y="555" on="1"/>
      </contour>
      <contour>
        <pt x="304" y="406" on="1"/>
        <pt x="201" y="406" on="1"/>
        <pt x="164" y="343" on="0"/>
        <pt x="164" y="160" on="0"/>
        <pt x="200" y="105" on="1"/>
        <pt x="279" y="105" on="1"/>
        <pt x="312" y="180" on="0"/>
        <pt x="312" y="297" on="1"/>
        <pt x="312" y="360" on="0"/>
      </contour>
    </TTGlyph>
    <TTGlyph name="exclam" xMin="40" yMin="0" xMax="182" yMax="700">
      <contour>
        <pt x="55" y="135" on="1"/>
        <pt x="167" y="135" on="1"/>
        <pt x="167" y="0" on="1"/>
        <pt x="55" y="0" on="1"/>
      </contour>
      <contour>
        <pt x="182" y="700" on="1"/>
        <pt x="167" y="380" on="1"/>
        <pt x="167" y="241" on="1"/>
        <pt x="55" y="241" on="1"/>
        <pt x="55" y="380" on="1"/>
        <pt x="40" y="700" on="1"/>
      </contour>
    </TTGlyph>
    <TTGlyph name="exclamdown" xMin="40" yMin="-189" xMax="182" yMax="511">
      <contour>
        <pt x="167" y="376" on="1"/>
        <pt x="55" y="376" on="1"/>
        <pt x="55" y="511" on="1"/>
        <pt x="167" y="511" on="1"/>
      </contour>
      <contour>
        <pt x="55" y="131" on="1"/>
        <pt x="40" y="-189" on="1"/>
        <pt x="182" y="-189" on="1"/>
        <pt x="167" y="131" on="1"/>
        <pt x="167" y="270" on="1"/>
        <pt x="55" y="270" on="1"/>
      </contour>
    </TTGlyph>
    <TTGlyph name="f" xMin="9" yMin="0" xMax="321" yMax="700">
      <contour>
        <pt x="177" y="700" on="1"/>
        <pt x="321" y="700" on="1"/>
        <pt x="321" y="595" on="1"/>
        <pt x="231" y="595" on="1"/>
        <pt x="197" y="574" on="0"/>
        <pt x="197" y="511" on="1"/>
        <pt x="301" y="511" on="1"/>
        <pt x="301" y="406" on="1"/>
        <pt x="197" y="406" on="1"/>
        <pt x="197" y="0" on="1"/>
        <pt x="64" y="0" on="1"/>
        <pt x="64" y="406" on="1"/>
        <pt x="9" y="406" on="1"/>
        <pt x="9" y="511" on="1"/>
        <pt x="64" y="511" on="1"/>
        <pt x="64" y="641" on="0"/>
      </contour>
    </TTGlyph>
    <TTGlyph name="ff" xMin="9" yMin="0" xMax="578" yMax="700">
      <contour>
        <pt x="177" y="700" on="1"/>
        <pt x="291" y="700" on="1"/>
        <pt x="291" y="595" on="1"/>
        <pt x="231" y="595" on="1"/>
        <pt x="197" y="574" on="0"/>
        <pt x="197" y="511" on="1"/>
        <pt x="321" y="511" on="1"/>
        <pt x="321" y="641" on="0"/>
        <pt x="434" y="700" on="1"/>
        <pt x="578" y="700" on="1"/>
        <pt x="578" y="595" on="1"/>
        <pt x="488" y="595" on="1"/>
        <pt x="454" y="574" on="0"/>
        <pt x="454" y="511" on="1"/>
        <pt x="558" y="511" on="1"/>
        <pt x="558" y="406" on="1"/>
        <pt x="454" y="406" on="1"/>
        <pt x="454" y="0" on="1"/>
        <pt x="321" y="0" on="1"/>
        <pt x="321" y="406" on="1"/>
        <pt x="197" y="406" on="1"/>
        <pt x="197" y="0" on="1"/>
        <pt x="64" y="0" on="1"/>
        <pt x="64" y="406" on="1"/>
        <pt x="9" y="406" on="1"/>
        <pt x="9" y="511" on="1"/>
        <pt x="64" y="511" on="1"/>
        <pt x="64" y="641" on="0"/>
      </contour>
    </TTGlyph>
    <TTGlyph name="ffi" xMin="9" yMin="0" xMax="710" yMax="700">
      <contour>
        <pt x="434" y="700" on="1"/>
        <pt x="538" y="700" on="1"/>
        <pt x="538" y="595" on="1"/>
        <pt x="488" y="595" on="1"/>
        <pt x="454" y="574" on="0"/>
        <pt x="454" y="511" on="1"/>
        <pt x="710" y="511" on="1"/>
        <pt x="710" y="0" on="1"/>
        <pt x="578" y="0" on="1"/>
        <pt x="578" y="406" on="1"/>
        <pt x="454" y="406" on="1"/>
        <pt x="454" y="0" on="1"/>
        <pt x="321" y="0" on="1"/>
        <pt x="321" y="406" on="1"/>
        <pt x="197" y="406" on="1"/>
        <pt x="197" y="0" on="1"/>
        <pt x="64" y="0" on="1"/>
        <pt x="64" y="406" on="1"/>
        <pt x="9" y="406" on="1"/>
        <pt x="9" y="511" on="1"/>
        <pt x="64" y="511" on="1"/>
        <pt x="64" y="641" on="0"/>
        <pt x="177" y="700" on="1"/>
        <pt x="291" y="700" on="1"/>
        <pt x="291" y="595" on="1"/>
        <pt x="231" y="595" on="1"/>
        <pt x="197" y="574" on="0"/>
        <pt x="197" y="511" on="1"/>
        <pt x="321" y="511" on="1"/>
        <pt x="321" y="641" on="0"/>
      </contour>
      <contour>
        <pt x="578" y="700" on="1"/>
        <pt x="710" y="700" on="1"/>
        <pt x="710" y="565" on="1"/>
        <pt x="578" y="565" on="1"/>
      </contour>
    </TTGlyph>
    <TTGlyph name="ffl" xMin="9" yMin="0" xMax="709" yMax="700">
      <contour>
        <pt x="709" y="700" on="1"/>
        <pt x="709" y="0" on="1"/>
        <pt x="577" y="0" on="1"/>
        <pt x="577" y="406" on="1"/>
        <pt x="453" y="406" on="1"/>
        <pt x="453" y="0" on="1"/>
        <pt x="320" y="0" on="1"/>
        <pt x="320" y="406" on="1"/>
        <pt x="197" y="406" on="1"/>
        <pt x="197" y="0" on="1"/>
        <pt x="64" y="0" on="1"/>
        <pt x="64" y="406" on="1"/>
        <pt x="9" y="406" on="1"/>
        <pt x="9" y="511" on="1"/>
        <pt x="64" y="511" on="1"/>
        <pt x="64" y="641" on="0"/>
        <pt x="177" y="700" on="1"/>
        <pt x="291" y="700" on="1"/>
        <pt x="291" y="595" on="1"/>
        <pt x="231" y="595" on="1"/>
        <pt x="197" y="574" on="0"/>
        <pt x="197" y="511" on="1"/>
        <pt x="320" y="511" on="1"/>
        <pt x="320" y="641" on="0"/>
        <pt x="433" y="700" on="1"/>
        <pt x="536" y="700" on="1"/>
        <pt x="536" y="595" on="1"/>
        <pt x="487" y="595" on="1"/>
        <pt x="453" y="574" on="0"/>
        <pt x="453" y="511" on="1"/>
        <pt x="577" y="511" on="1"/>
        <pt x="577" y="700" on="1"/>
      </contour>
    </TTGlyph>
    <TTGlyph name="fi" xMin="9" yMin="0" xMax="453" yMax="700">
      <contour>
        <pt x="177" y="700" on="1"/>
        <pt x="281" y="700" on="1"/>
        <pt x="281" y="595" on="1"/>
        <pt x="231" y="595" on="1"/>
        <pt x="197" y="574" on="0"/>
        <pt x="197" y="511" on="1"/>
        <pt x="453" y="511" on="1"/>
        <pt x="453" y="0" on="1"/>
        <pt x="321" y="0" on="1"/>
        <pt x="321" y="406" on="1"/>
        <pt x="197" y="406" on="1"/>
        <pt x="197" y="0" on="1"/>
        <pt x="64" y="0" on="1"/>
        <pt x="64" y="406" on="1"/>
        <pt x="9" y="406" on="1"/>
        <pt x="9" y="511" on="1"/>
        <pt x="64" y="511" on="1"/>
        <pt x="64" y="641" on="0"/>
      </contour>
      <contour>
        <pt x="321" y="700" on="1"/>
        <pt x="453" y="700" on="1"/>
        <pt x="453" y="565" on="1"/>
        <pt x="321" y="565" on="1"/>
      </contour>
    </TTGlyph>
    <TTGlyph name="five" xMin="45" yMin="0" xMax="403" yMax="700">
      <contour>
        <pt x="252" y="451" on="1"/>
        <pt x="328" y="451" on="1"/>
        <pt x="403" y="400" on="0"/>
        <pt x="403" y="321" on="1"/>
        <pt x="403" y="273" on="0"/>
        <pt x="369" y="214" on="1"/>
        <pt x="359" y="196" on="0"/>
        <pt x="334" y="158" on="1"/>
        <pt x="231" y="0" on="1"/>
        <pt x="76" y="0" on="1"/>
        <pt x="279" y="321" on="1"/>
        <pt x="276" y="330" on="1"/>
        <pt x="45" y="330" on="1"/>
        <pt x="45" y="700" on="1"/>
        <pt x="373" y="700" on="1"/>
        <pt x="373" y="580" on="1"/>
        <pt x="178" y="580" on="1"/>
        <pt x="178" y="438" on="1"/>
        <pt x="208" y="451" on="0"/>
      </contour>
    </TTGlyph>
    <TTGlyph name="fl" xMin="9" yMin="0" xMax="453" yMax="700">
      <contour>
        <pt x="453" y="700" on="1"/>
        <pt x="453" y="0" on="1"/>
        <pt x="321" y="0" on="1"/>
        <pt x="321" y="406" on="1"/>
        <pt x="197" y="406" on="1"/>
        <pt x="197" y="0" on="1"/>
        <pt x="64" y="0" on="1"/>
        <pt x="64" y="406" on="1"/>
        <pt x="9" y="406" on="1"/>
        <pt x="9" y="511" on="1"/>
        <pt x="64" y="511" on="1"/>
        <pt x="64" y="641" on="0"/>
        <pt x="177" y="700" on="1"/>
        <pt x="280" y="700" on="1"/>
        <pt x="280" y="595" on="1"/>
        <pt x="231" y="595" on="1"/>
        <pt x="197" y="574" on="0"/>
        <pt x="197" y="511" on="1"/>
        <pt x="321" y="511" on="1"/>
        <pt x="321" y="700" on="1"/>
      </contour>
    </TTGlyph>
    <TTGlyph name="florin" xMin="15" yMin="-150" xMax="352" yMax="700">
      <contour>
        <pt x="245" y="310" on="1"/>
        <pt x="245" y="81" on="1"/>
        <pt x="245" y="-3" on="0"/>
        <pt x="197" y="-116" on="0"/>
        <pt x="137" y="-150" on="1"/>
        <pt x="15" y="-150" on="1"/>
        <pt x="15" y="-45" on="1"/>
        <pt x="81" y="-45" on="1"/>
        <pt x="98" y="-28" on="0"/>
        <pt x="109" y="13" on="0"/>
        <pt x="109" y="49" on="1"/>
        <pt x="109" y="310" on="1"/>
        <pt x="25" y="310" on="1"/>
        <pt x="25" y="414" on="1"/>
        <pt x="109" y="414" on="1"/>
        <pt x="109" y="479" on="1"/>
        <pt x="109" y="629" on="0"/>
        <pt x="224" y="700" on="1"/>
        <pt x="352" y="700" on="1"/>
        <pt x="352" y="580" on="1"/>
        <pt x="273" y="580" on="1"/>
        <pt x="255" y="562" on="0"/>
        <pt x="245" y="527" on="0"/>
        <pt x="245" y="493" on="1"/>
        <pt x="245" y="414" on="1"/>
        <pt x="352" y="414" on="1"/>
        <pt x="352" y="310" on="1"/>
      </contour>
    </TTGlyph>
    <TTGlyph name="four" xMin="32" yMin="0" xMax="434" yMax="700">
      <contour>
        <pt x="317" y="700" on="1"/>
        <pt x="156" y="270" on="1"/>
        <pt x="304" y="270" on="1"/>
        <pt x="304" y="452" on="1"/>
        <pt x="434" y="452" on="1"/>
        <pt x="434" y="0" on="1"/>
        <pt x="304" y="0" on="1"/>
        <pt x="304" y="145" on="1"/>
        <pt x="119" y="145" on="1"/>
        <pt x="32" y="190" on="0"/>
        <pt x="32" y="284" on="1"/>
        <pt x="32" y="327" on="0"/>
        <pt x="80" y="447" on="1"/>
        <pt x="180" y="700" on="1"/>
      </contour>
    </TTGlyph>
    <TTGlyph name="fraction" xMin="10" yMin="0" xMax="345" yMax="700">
      <contour>
        <pt x="10" y="0" on="1"/>
        <pt x="232" y="700" on="1"/>
        <pt x="345" y="700" on="1"/>
        <pt x="119" y="0" on="1"/>
      </contour>
    </TTGlyph>
    <TTGlyph name="g" xMin="29" yMin="-150" xMax="430" yMax="511">
      <contour>
        <pt x="430" y="511" on="1"/>
        <pt x="430" y="53" on="1"/>
        <pt x="430" y="-23" on="0"/>
        <pt x="391" y="-115" on="0"/>
        <pt x="333" y="-150" on="1"/>
        <pt x="105" y="-150" on="1"/>
        <pt x="105" y="-46" on="1"/>
        <pt x="276" y="-46" on="1"/>
        <pt x="301" y="-31" on="0"/>
        <pt x="301" y="2" on="1"/>
        <pt x="301" y="61" on="1"/>
        <pt x="264" y="30" on="0"/>
        <pt x="183" y="30" on="1"/>
        <pt x="110" y="30" on="1"/>
        <pt x="29" y="127" on="0"/>
        <pt x="29" y="255" on="1"/>
        <pt x="29" y="347" on="0"/>
        <pt x="81" y="464" on="0"/>
        <pt x="131" y="511" on="1"/>
        <pt x="205" y="511" on="1"/>
        <pt x="270" y="511" on="0"/>
        <pt x="308" y="469" on="1"/>
        <pt x="326" y="511" on="1"/>
      </contour>
      <contour>
        <pt x="297" y="406" on="1"/>
        <pt x="200" y="406" on="1"/>
        <pt x="164" y="344" on="0"/>
        <pt x="164" y="183" on="0"/>
        <pt x="195" y="131" on="1"/>
        <pt x="297" y="131" on="1"/>
      </contour>
    </TTGlyph>
    <TTGlyph name="gbreve" xMin="29" yMin="-150" xMax="430" yMax="707">
      <component glyphName="g" x="0" y="0" flags="0x1004"/>
      <component glyphName="breve" x="4" y="0" flags="0x1004"/>
    </TTGlyph>
    <TTGlyph name="gcircumflex" xMin="29" yMin="-150" xMax="430" yMax="718">
      <contour>
        <pt x="430" y="511" on="1"/>
        <pt x="430" y="53" on="1"/>
        <pt x="430" y="-23" on="0"/>
        <pt x="391" y="-115" on="0"/>
        <pt x="333" y="-150" on="1"/>
        <pt x="105" y="-150" on="1"/>
        <pt x="105" y="-46" on="1"/>
        <pt x="276" y="-46" on="1"/>
        <pt x="301" y="-31" on="0"/>
        <pt x="301" y="2" on="1"/>
        <pt x="301" y="61" on="1"/>
        <pt x="264" y="30" on="0"/>
        <pt x="183" y="30" on="1"/>
        <pt x="110" y="30" on="1"/>
        <pt x="29" y="127" on="0"/>
        <pt x="29" y="255" on="1"/>
        <pt x="29" y="347" on="0"/>
        <pt x="81" y="464" on="0"/>
        <pt x="131" y="511" on="1"/>
        <pt x="205" y="511" on="1"/>
        <pt x="270" y="511" on="0"/>
        <pt x="308" y="469" on="1"/>
        <pt x="326" y="511" on="1"/>
      </contour>
      <contour>
        <pt x="297" y="406" on="1"/>
        <pt x="200" y="406" on="1"/>
        <pt x="164" y="344" on="0"/>
        <pt x="164" y="183" on="0"/>
        <pt x="195" y="131" on="1"/>
        <pt x="297" y="131" on="1"/>
      </contour>
      <contour>
        <pt x="195" y="718" on="1"/>
        <pt x="313" y="718" on="1"/>
        <pt x="394" y="582" on="1"/>
        <pt x="330" y="549" on="1"/>
        <pt x="254" y="626" on="1"/>
        <pt x="178" y="549" on="1"/>
        <pt x="115" y="582" on="1"/>
      </contour>
    </TTGlyph>
    <TTGlyph name="gcommaaccent" xMin="29" yMin="-150" xMax="430" yMax="801">
      <contour>
        <pt x="430" y="511" on="1"/>
        <pt x="430" y="53" on="1"/>
        <pt x="430" y="-23" on="0"/>
        <pt x="391" y="-115" on="0"/>
        <pt x="333" y="-150" on="1"/>
        <pt x="105" y="-150" on="1"/>
        <pt x="105" y="-46" on="1"/>
        <pt x="276" y="-46" on="1"/>
        <pt x="301" y="-31" on="0"/>
        <pt x="301" y="2" on="1"/>
        <pt x="301" y="61" on="1"/>
        <pt x="264" y="30" on="0"/>
        <pt x="183" y="30" on="1"/>
        <pt x="110" y="30" on="1"/>
        <pt x="29" y="127" on="0"/>
        <pt x="29" y="255" on="1"/>
        <pt x="29" y="347" on="0"/>
        <pt x="81" y="464" on="0"/>
        <pt x="131" y="511" on="1"/>
        <pt x="205" y="511" on="1"/>
        <pt x="270" y="511" on="0"/>
        <pt x="308" y="469" on="1"/>
        <pt x="326" y="511" on="1"/>
      </contour>
      <contour>
        <pt x="297" y="406" on="1"/>
        <pt x="200" y="406" on="1"/>
        <pt x="164" y="344" on="0"/>
        <pt x="164" y="183" on="0"/>
        <pt x="195" y="131" on="1"/>
        <pt x="297" y="131" on="1"/>
      </contour>
      <contour>
        <pt x="309" y="685" on="1"/>
        <pt x="309" y="548" on="1"/>
        <pt x="189" y="548" on="1"/>
        <pt x="189" y="591" on="1"/>
        <pt x="189" y="667" on="0"/>
        <pt x="213" y="738" on="0"/>
        <pt x="259" y="801" on="1"/>
        <pt x="305" y="775" on="1"/>
        <pt x="276" y="726" on="0"/>
        <pt x="265" y="685" on="1"/>
      </contour>
    </TTGlyph>
    <TTGlyph name="gdotaccent" xMin="29" yMin="-150" xMax="430" yMax="700">
      <component glyphName="g" x="0" y="0" flags="0x1004"/>
      <component glyphName="dotaccent" x="15" y="0" flags="0x1004"/>
    </TTGlyph>
</ttFont>
